STARTFONT 2.1
FONT -HP-Mincho-Medium-R-Normal--24-173-100-100-C-240-JISX0212.1990-0
SIZE 17 100 100
FONTBOUNDINGBOX 24 24 0 -2

STARTPROPERTIES 23
FONTNAME_REGISTRY ""
FOUNDRY "HP"
FAMILY_NAME "Mincho"
WEIGHT_NAME "Medium"
SLANT "R"
SETWIDTH_NAME "Normal"
ADD_STYLE_NAME ""
PIXEL_SIZE 24
POINT_SIZE 173
RESOLUTION_X 100
RESOLUTION_Y 100
SPACING "C"
AVERAGE_WIDTH 240
CHARSET_REGISTRY "JISX0212.1990"
CHARSET_ENCODING "0"
COPYRIGHT "Copyright 1994 by Bridge Inc. All rights reserved. Copyright (c) 1994 Hewlett-Packard Company."
_HP_ASXVERSION "@(#) ASX 3.00 $Revision: 13.9 $ minX24s"
WEIGHT 10
X_HEIGHT 22
QUAD_WIDTH 24
DEFAULT_CHAR 8481
FONT_DESCENT 2
FONT_ASCENT 22
ENDPROPERTIES

CHARS 6068

STARTCHAR jisx0212_2121
ENCODING 8481
SWIDTH 960 0
DWIDTH 24 0
BBX 24 24 0 -2
BITMAP
000000
000000
200004
000000
000000
000000
000000
000000
000000
000000
000000
000000
000000
000000
000000
000000
000000
000000
000000
000000
000000
200004
000000
000000
ENDCHAR

STARTCHAR jisx0212_222F
ENCODING 8751
SWIDTH 960 0
DWIDTH 24 0
BBX 24 24 0 -2
BITMAP
010080
018180
00FF00
007E00
000000
000000
000000
000000
000000
000000
000000
000000
000000
000000
000000
000000
000000
000000
000000
000000
000000
000000
000000
000000
ENDCHAR

STARTCHAR jisx0212_2230
ENCODING 8752
SWIDTH 960 0
DWIDTH 24 0
BBX 24 24 0 -2
BITMAP
018300
00C600
007C00
003800
000000
000000
000000
000000
000000
000000
000000
000000
000000
000000
000000
000000
000000
000000
000000
000000
000000
000000
000000
000000
ENDCHAR

STARTCHAR jisx0212_2231
ENCODING 8753
SWIDTH 960 0
DWIDTH 24 0
BBX 24 24 0 -2
BITMAP
000000
000000
000000
000000
000000
000000
000000
000000
000000
000000
000000
000000
000000
000000
000000
000000
000000
000800
000800
001800
001C00
000600
00C600
007C00
ENDCHAR

STARTCHAR jisx0212_2232
ENCODING 8754
SWIDTH 960 0
DWIDTH 24 0
BBX 24 24 0 -2
BITMAP
001800
003C00
003C00
001800
000000
000000
000000
000000
000000
000000
000000
000000
000000
000000
000000
000000
000000
000000
000000
000000
000000
000000
000000
000000
ENDCHAR

STARTCHAR jisx0212_2233
ENCODING 8755
SWIDTH 960 0
DWIDTH 24 0
BBX 24 24 0 -2
BITMAP
006180
0071C0
00E380
00C300
018600
010400
000000
000000
000000
000000
000000
000000
000000
000000
000000
000000
000000
000000
000000
000000
000000
000000
000000
000000
ENDCHAR

STARTCHAR jisx0212_2234
ENCODING 8756
SWIDTH 960 0
DWIDTH 24 0
BBX 24 24 0 -2
BITMAP
03FFC0
000000
000000
000000
000000
000000
000000
000000
000000
000000
000000
000000
000000
000000
000000
000000
000000
000000
000000
000000
000000
000000
000000
000000
ENDCHAR

STARTCHAR jisx0212_2235
ENCODING 8757
SWIDTH 960 0
DWIDTH 24 0
BBX 24 24 0 -2
BITMAP
000000
000000
000000
000000
000000
000000
000000
000000
000000
000000
000000
000000
000000
000000
000000
000000
000000
000180
000300
000600
000400
000460
0007E0
0003C0
ENDCHAR

STARTCHAR jisx0212_2236
ENCODING 8758
SWIDTH 960 0
DWIDTH 24 0
BBX 24 24 0 -2
BITMAP
003800
006C00
004400
006C00
003800
000000
000000
000000
000000
000000
000000
000000
000000
000000
000000
000000
000000
000000
000000
000000
000000
000000
000000
000000
ENDCHAR

STARTCHAR jisx0212_2237
ENCODING 8759
SWIDTH 960 0
DWIDTH 24 0
BBX 24 24 0 -2
BITMAP
00E040
01F8C0
031F80
020700
000000
000000
000000
000000
000000
000000
000000
000000
000000
000000
000000
000000
000000
000000
000000
000000
000000
000000
000000
000000
ENDCHAR

STARTCHAR jisx0212_2238
ENCODING 8760
SWIDTH 960 0
DWIDTH 24 0
BBX 24 24 0 -2
BITMAP
001000
003800
003800
003800
001000
001000
001000
000000
000000
000000
000000
000000
000000
000000
000000
000000
000000
000000
000000
000000
000000
000000
000000
000000
ENDCHAR

STARTCHAR jisx0212_2239
ENCODING 8761
SWIDTH 960 0
DWIDTH 24 0
BBX 24 24 0 -2
BITMAP
001000
003800
003800
003800
001000
001000
001000
000000
018300
03C780
018300
000000
000000
000000
000000
000000
000000
000000
000000
000000
000000
000000
000000
000000
ENDCHAR

STARTCHAR jisx0212_2242
ENCODING 8770
SWIDTH 960 0
DWIDTH 24 0
BBX 24 24 0 -2
BITMAP
000000
000000
003000
007800
003000
000000
000000
001000
001000
001000
001000
001000
001000
003800
003800
003800
003800
003800
003800
003800
003800
001000
000000
000000
ENDCHAR

STARTCHAR jisx0212_2243
ENCODING 8771
SWIDTH 960 0
DWIDTH 24 0
BBX 24 24 0 -2
BITMAP
001800
001800
001800
001800
001800
001800
001800
001800
001800
001800
000000
000000
000000
000000
001800
001800
001800
001800
001800
001800
001800
001800
001800
001800
ENDCHAR

STARTCHAR jisx0212_2244
ENCODING 8772
SWIDTH 960 0
DWIDTH 24 0
BBX 24 24 0 -2
BITMAP
000000
000000
001800
003C00
001800
000000
000000
000800
000800
000800
001800
003000
006000
00C000
018000
018080
0301C0
0301C0
0300C0
018080
01C380
007E00
000000
000000
ENDCHAR

STARTCHAR jisx0212_226B
ENCODING 8811
SWIDTH 960 0
DWIDTH 24 0
BBX 24 24 0 -2
BITMAP
000000
000000
1F8000
30C000
606000
606000
606000
606000
606000
606000
606000
30C000
1F8000
000000
000000
FFF000
000000
000000
000000
000000
000000
000000
000000
000000
ENDCHAR

STARTCHAR jisx0212_226C
ENCODING 8812
SWIDTH 960 0
DWIDTH 24 0
BBX 24 24 0 -2
BITMAP
000000
000000
1F8000
30C000
38C000
10C000
0FC000
38C000
60C000
60C000
60D000
61F000
3F6000
000000
000000
FFF000
000000
000000
000000
000000
000000
000000
000000
000000
ENDCHAR

STARTCHAR jisx0212_226D
ENCODING 8813
SWIDTH 960 0
DWIDTH 24 0
BBX 24 24 0 -2
BITMAP
00FF00
0381C0
0E0070
180018
30000C
203E84
60E386
4180C2
C18043
830041
830001
830001
830001
830001
830041
C18043
4180C2
60E386
203E04
30000C
180018
0E0070
0381C0
00FF00
ENDCHAR

STARTCHAR jisx0212_226E
ENCODING 8814
SWIDTH 960 0
DWIDTH 24 0
BBX 24 24 0 -2
BITMAP
00FF00
0381C0
0E0070
180018
30000C
27FF04
618186
4180C2
C180C3
8180C1
818181
81FF01
818601
818301
818301
C18303
418302
6181B6
27E0E4
30000C
180018
0E0070
0381C0
00FF00
ENDCHAR

STARTCHAR jisx0212_226F
ENCODING 8815
SWIDTH 960 0
DWIDTH 24 0
BBX 24 24 0 -2
BITMAP
7FB070
CCD060
8C58E0
0C18E0
0C1DE0
0C1D60
0C1760
0C1760
0C1260
1E3AF0
000000
000000
000000
000000
000000
000000
000000
000000
000000
000000
000000
000000
000000
000000
ENDCHAR

STARTCHAR jisx0212_2270
ENCODING 8816
SWIDTH 960 0
DWIDTH 24 0
BBX 24 24 0 -2
BITMAP
000000
000000
000000
100008
180018
0C7E30
07C3E0
0300C0
020040
060060
040020
040020
040020
040020
060060
020040
0300C0
07C3E0
0C7E30
180018
100008
000000
000000
000000
ENDCHAR

STARTCHAR jisx0212_2271
ENCODING 8817
SWIDTH 960 0
DWIDTH 24 0
BBX 24 24 0 -2
BITMAP
000000
000000
F03E7C
3008C6
380983
380983
2C0983
2C0983
260983
260983
230983
2308C6
21887C
218800
20C800
20C800
206800
206800
203800
203800
201800
F81800
000000
000000
ENDCHAR

STARTCHAR jisx0212_2661
ENCODING 9825
SWIDTH 960 0
DWIDTH 24 0
BBX 24 24 0 -2
BITMAP
040000
0E0000
0E1800
0E1800
043C00
042C00
046600
004600
004600
00C300
008300
018180
010180
010180
0300C0
0200C0
07FFE0
040060
040060
0C0030
080030
3E00FC
000000
000000
ENDCHAR

STARTCHAR jisx0212_2662
ENCODING 9826
SWIDTH 960 0
DWIDTH 24 0
BBX 24 24 0 -2
BITMAP
200000
700000
73FFF0
70C030
20C018
20C008
20C008
00C000
00C040
00C040
00C0C0
00FFC0
00C0C0
00C040
00C040
00C000
00C000
00C004
00C004
00C00C
00C018
03FFF8
000000
000000
ENDCHAR

STARTCHAR jisx0212_2663
ENCODING 9827
SWIDTH 960 0
DWIDTH 24 0
BBX 24 24 0 -2
BITMAP
400000
E00000
EFC07E
E30018
430018
430018
430018
030018
030018
030018
030018
03FFF8
030018
030018
030018
030018
030018
030018
030018
030018
030018
0FC07E
000000
000000
ENDCHAR

STARTCHAR jisx0212_2664
ENCODING 9828
SWIDTH 960 0
DWIDTH 24 0
BBX 24 24 0 -2
BITMAP
010000
038000
039F80
038600
010600
010600
010600
000600
000600
000600
000600
000600
000600
000600
000600
000600
000600
000600
000600
000600
000600
001F80
000000
000000
ENDCHAR

STARTCHAR jisx0212_2665
ENCODING 9829
SWIDTH 960 0
DWIDTH 24 0
BBX 24 24 0 -2
BITMAP
00C300
01E780
00C300
000000
00FF00
001800
001800
001800
001800
001800
001800
001800
001800
001800
001800
001800
001800
001800
001800
001800
001800
007E00
000000
000000
ENDCHAR

STARTCHAR jisx0212_2667
ENCODING 9831
SWIDTH 960 0
DWIDTH 24 0
BBX 24 24 0 -2
BITMAP
200000
700000
703F00
70E1C0
218060
230030
260018
060018
0C000C
0C000C
0C000C
0C000C
0C000C
0C000C
0C000C
0C000C
060018
060018
030030
018060
00E1C0
003F00
000000
000000
ENDCHAR

STARTCHAR jisx0212_2669
ENCODING 9833
SWIDTH 960 0
DWIDTH 24 0
BBX 24 24 0 -2
BITMAP
200000
700000
71F0F8
73198C
260F06
240602
240602
000600
000600
000600
000600
000600
000600
000600
000600
000600
000600
000600
000600
000600
000600
001F80
000000
000000
ENDCHAR

STARTCHAR jisx0212_266A
ENCODING 9834
SWIDTH 960 0
DWIDTH 24 0
BBX 24 24 0 -2
BITMAP
00C300
01E780
00C300
000000
07C3E0
0C6630
183C18
101808
101808
001800
001800
001800
001800
001800
001800
001800
001800
001800
001800
001800
001800
007E00
000000
000000
ENDCHAR

STARTCHAR jisx0212_266C
ENCODING 9836
SWIDTH 960 0
DWIDTH 24 0
BBX 24 24 0 -2
BITMAP
100000
380000
381F80
3870E0
10C030
118018
118018
03000C
03000C
03000C
03000C
03000C
03000C
018018
018018
00C030
0070E0
011988
010908
018918
01F9F8
01F9F8
000000
000000
ENDCHAR

STARTCHAR jisx0212_2671
ENCODING 9841
SWIDTH 960 0
DWIDTH 24 0
BBX 24 24 0 -2
BITMAP
001000
003800
003800
003800
001000
001000
001000
000000
003C10
00E610
018330
030320
060360
060340
0C03C0
0C0380
0C0300
0C0310
0C0710
0C0F30
0639E0
03E0C0
000000
000000
ENDCHAR

STARTCHAR jisx0212_2672
ENCODING 9842
SWIDTH 960 0
DWIDTH 24 0
BBX 24 24 0 -2
BITMAP
001000
003800
003800
003800
001000
001000
001000
000000
007F00
00C180
0183C0
018180
018000
00C000
01FE00
030000
060020
060020
060060
0600C0
030380
01FE00
000000
000000
ENDCHAR

STARTCHAR jisx0212_2673
ENCODING 9843
SWIDTH 960 0
DWIDTH 24 0
BBX 24 24 0 -2
BITMAP
000800
001C00
001C00
001C00
000800
000800
000800
000000
03CFC0
067860
007030
006030
00C030
00C030
00C030
018060
018060
018060
0300C0
0300C0
0300C0
0FC180
000180
0007E0
ENDCHAR

STARTCHAR jisx0212_2674
ENCODING 9844
SWIDTH 960 0
DWIDTH 24 0
BBX 24 24 0 -2
BITMAP
001000
003800
003800
003800
001000
001000
001000
000000
007800
001800
001800
003000
003000
003000
006000
006000
006000
00C080
00C180
00C700
00FE00
007800
000000
000000
ENDCHAR

STARTCHAR jisx0212_2675
ENCODING 9845
SWIDTH 960 0
DWIDTH 24 0
BBX 24 24 0 -2
BITMAP
000000
000000
00C300
01E780
00C300
000000
000000
000000
007800
001800
001800
003000
003000
003000
006000
006000
006000
00C080
00C180
00C700
00FE00
007800
000000
000000
ENDCHAR

STARTCHAR jisx0212_2676
ENCODING 9846
SWIDTH 960 0
DWIDTH 24 0
BBX 24 24 0 -2
BITMAP
001000
003800
003800
001000
019300
03C780
018300
000000
007800
001800
001800
003000
003000
003000
006000
006000
006000
00C080
00C180
00C700
00FE00
007800
000000
000000
ENDCHAR

STARTCHAR jisx0212_2677
ENCODING 9847
SWIDTH 960 0
DWIDTH 24 0
BBX 24 24 0 -2
BITMAP
000800
001C00
001C00
001C00
000800
000800
000800
000000
003F00
00E1C0
0180C0
030060
030060
060060
060060
060060
060060
0600C0
0600C0
030180
038700
00FC00
000000
000000
ENDCHAR

STARTCHAR jisx0212_2678
ENCODING 9848
SWIDTH 960 0
DWIDTH 24 0
BBX 24 24 0 -2
BITMAP
000000
000000
000000
000000
000000
000000
000000
000000
003E00
00E380
0180C0
030060
030060
0300E0
0300C0
018000
01C000
00F000
007800
001C00
000C00
030C00
039800
01F000
ENDCHAR

STARTCHAR jisx0212_2679
ENCODING 9849
SWIDTH 960 0
DWIDTH 24 0
BBX 24 24 0 -2
BITMAP
001000
003800
003800
003800
001000
001000
001000
000000
010180
0380C0
0180C0
018060
018060
030060
030060
030060
0600C0
0600C0
060180
060300
030E00
01F800
000000
000000
ENDCHAR

STARTCHAR jisx0212_267A
ENCODING 9850
SWIDTH 960 0
DWIDTH 24 0
BBX 24 24 0 -2
BITMAP
000000
000000
00C300
01E780
00C300
000000
000000
000000
010180
0380C0
0180C0
018060
018060
030060
030060
030060
0600C0
0600C0
060180
060300
030E00
01F800
000000
000000
ENDCHAR

STARTCHAR jisx0212_267B
ENCODING 9851
SWIDTH 960 0
DWIDTH 24 0
BBX 24 24 0 -2
BITMAP
001000
003800
003800
001000
019300
03C780
018300
000000
010180
0380C0
0180C0
018060
018060
030060
030060
030060
0600C0
0600C0
060180
060300
030E00
01F800
000000
000000
ENDCHAR

STARTCHAR jisx0212_267C
ENCODING 9852
SWIDTH 960 0
DWIDTH 24 0
BBX 24 24 0 -2
BITMAP
000800
001C00
001C00
001C00
000800
000800
000800
000000
00C0C0
018060
030030
060030
0C0C18
0C0C18
180C18
181818
181818
181830
183030
183060
0C78C0
07CF80
000000
000000
ENDCHAR

STARTCHAR jisx0212_2742
ENCODING 10050
SWIDTH 960 0
DWIDTH 24 0
BBX 24 24 0 -2
BITMAP
000000
000000
3FFFC0
3060C0
606060
406020
406020
006000
0067C0
007C70
007018
006018
00600C
00600C
00600C
00600C
00600C
00610C
006398
006398
006330
01F9E0
000000
000000
ENDCHAR

STARTCHAR jisx0212_2743
ENCODING 10051
SWIDTH 960 0
DWIDTH 24 0
BBX 24 24 0 -2
BITMAP
000600
001E00
007000
000000
07FFE0
018060
018030
018010
018010
018000
018000
018000
018000
018000
018000
018000
018000
018000
018000
018000
018000
07F000
000000
000000
ENDCHAR

STARTCHAR jisx0212_2744
ENCODING 10052
SWIDTH 960 0
DWIDTH 24 0
BBX 24 24 0 -2
BITMAP
000000
000000
007E20
01C3A0
0300E0
060060
0C0030
0C0010
180010
180000
180000
1FFF80
180000
180000
180010
180010
0C0030
0C0020
060060
0300C0
01C380
007E00
000000
000000
ENDCHAR

STARTCHAR jisx0212_2745
ENCODING 10053
SWIDTH 960 0
DWIDTH 24 0
BBX 24 24 0 -2
BITMAP
000000
000000
01FE40
0703C0
0600C0
0C0060
0C0020
0C0020
060000
078000
01F000
007E00
000FC0
0001E0
080070
080030
0C0030
0C0030
060030
070060
05C1C0
047F00
000000
000000
ENDCHAR

STARTCHAR jisx0212_2746
ENCODING 10054
SWIDTH 960 0
DWIDTH 24 0
BBX 24 24 0 -2
BITMAP
000000
000000
007E00
001800
001800
001800
001800
001800
001800
001800
001800
001800
001800
001800
001800
001800
001800
001800
001800
001800
001800
007E00
000000
000000
ENDCHAR

STARTCHAR jisx0212_2747
ENCODING 10055
SWIDTH 960 0
DWIDTH 24 0
BBX 24 24 0 -2
BITMAP
00C300
01E780
00C300
000000
00FF00
001800
001800
001800
001800
001800
001800
001800
001800
001800
001800
001800
001800
001800
001800
001800
001800
007E00
000000
000000
ENDCHAR

STARTCHAR jisx0212_2748
ENCODING 10056
SWIDTH 960 0
DWIDTH 24 0
BBX 24 24 0 -2
BITMAP
000000
000000
000FC0
000300
000300
000300
000300
000300
000300
000300
000300
000300
000300
000300
000300
000300
030300
078300
070600
030600
018C00
00F800
000000
000000
ENDCHAR

STARTCHAR jisx0212_2749
ENCODING 10057
SWIDTH 960 0
DWIDTH 24 0
BBX 24 24 0 -2
BITMAP
000000
000000
03FF80
00C600
00C600
00C600
00C600
00C600
00C600
00C600
00C7F0
00C61C
00C606
00C606
00C603
00C603
60C603
F0C603
E18606
618606
33061C
1E1FF0
000000
000000
ENDCHAR

STARTCHAR jisx0212_274A
ENCODING 10058
SWIDTH 960 0
DWIDTH 24 0
BBX 24 24 0 -2
BITMAP
000000
000000
FC3F00
300C00
300C00
300C00
300C00
300C00
300C00
300C00
3FFFF0
300C1C
300C06
300C06
300C03
300C03
300C03
300C03
300C06
300C06
300C1C
FC3FF0
000000
000000
ENDCHAR

STARTCHAR jisx0212_274B
ENCODING 10059
SWIDTH 960 0
DWIDTH 24 0
BBX 24 24 0 -2
BITMAP
000000
000000
3FFFC0
3060C0
606060
406020
406020
006000
006FC0
007870
007030
006018
006018
006018
006018
006018
006018
006018
006018
006018
006018
01F87E
000000
000000
ENDCHAR

STARTCHAR jisx0212_274C
ENCODING 10060
SWIDTH 960 0
DWIDTH 24 0
BBX 24 24 0 -2
BITMAP
000600
001E00
007000
000000
1F83F0
0600C0
060180
060300
060200
060600
060C00
07F800
061800
060C00
060E00
060600
060300
060380
060180
0600C0
0600E0
1F83F8
000000
000000
ENDCHAR

STARTCHAR jisx0212_274D
ENCODING 10061
SWIDTH 960 0
DWIDTH 24 0
BBX 24 24 0 -2
BITMAP
00C300
01E780
00C300
007E00
000000
0FC3F0
0300C0
018080
018180
00C100
00C300
006200
006600
003400
003C00
001800
001800
021000
073000
072000
066000
03C000
000000
000000
ENDCHAR

STARTCHAR jisx0212_274E
ENCODING 10062
SWIDTH 960 0
DWIDTH 24 0
BBX 24 24 0 -2
BITMAP
000000
000000
3F01F8
0C0060
0C0060
0C0060
0C0060
0C0060
0C0060
0C0060
0C0060
0C0060
0C0060
0C0060
0C0060
0C0060
0C0060
0C0060
0C0060
0C0060
3FFFF8
001000
001000
001000
ENDCHAR

STARTCHAR jisx0212_2772
ENCODING 10098
SWIDTH 960 0
DWIDTH 24 0
BBX 24 24 0 -2
BITMAP
000000
000000
030000
0F0000
030000
030000
1FE000
030000
033E00
03E380
038180
0300C0
0300C0
0300C0
0300C0
0300C0
0300C0
0300C0
0300C0
0300C0
0308C0
0FDC80
001D80
000F00
ENDCHAR

STARTCHAR jisx0212_2773
ENCODING 10099
SWIDTH 960 0
DWIDTH 24 0
BBX 24 24 0 -2
BITMAP
000000
000000
000600
001E00
007000
000000
000000
000000
03FF80
00C180
00C0C0
00C040
00C040
00C000
00C000
00C000
00C000
00C000
00C000
00C000
00C000
03F000
000000
000000
ENDCHAR

STARTCHAR jisx0212_2774
ENCODING 10100
SWIDTH 960 0
DWIDTH 24 0
BBX 24 24 0 -2
BITMAP
000000
000000
000000
000000
000000
000000
000000
000000
007C00
01C700
030180
0303C0
060180
060000
07FC00
060000
060000
060040
0300C0
030180
01C700
007C00
000000
000000
ENDCHAR

STARTCHAR jisx0212_2775
ENCODING 10101
SWIDTH 960 0
DWIDTH 24 0
BBX 24 24 0 -2
BITMAP
000000
000000
000000
000000
000000
000000
000000
000000
00FE80
018380
030180
030080
038080
01F000
007E00
000F80
0201C0
0200C0
0300C0
0300C0
03C180
027F00
000000
000000
ENDCHAR

STARTCHAR jisx0212_2776
ENCODING 10102
SWIDTH 960 0
DWIDTH 24 0
BBX 24 24 0 -2
BITMAP
000000
000000
001800
003C00
001800
000000
000000
000000
001800
007800
001800
001800
001800
001800
001800
001800
001800
001800
001800
001800
001800
007E00
000000
000000
ENDCHAR

STARTCHAR jisx0212_2777
ENCODING 10103
SWIDTH 960 0
DWIDTH 24 0
BBX 24 24 0 -2
BITMAP
000000
000000
00C300
01E780
00C300
000000
000000
000000
001800
007800
001800
001800
001800
001800
001800
001800
001800
001800
001800
001800
001800
007E00
000000
000000
ENDCHAR

STARTCHAR jisx0212_2778
ENCODING 10104
SWIDTH 960 0
DWIDTH 24 0
BBX 24 24 0 -2
BITMAP
000000
000000
000C00
001E00
000C00
000000
000000
000000
000C00
003C00
000C00
000C00
000C00
000C00
000C00
000C00
000C00
000C00
000C00
000C00
018C00
03CC00
019800
00F000
ENDCHAR

STARTCHAR jisx0212_2779
ENCODING 10105
SWIDTH 960 0
DWIDTH 24 0
BBX 24 24 0 -2
BITMAP
000000
000000
000000
000000
000000
000000
000000
000000
07FF00
018C00
018C00
018C00
018C00
018C00
018FF0
018C18
018C0C
018C0C
318C0C
798C0C
330C18
1E3FF0
000000
000000
ENDCHAR

STARTCHAR jisx0212_277A
ENCODING 10106
SWIDTH 960 0
DWIDTH 24 0
BBX 24 24 0 -2
BITMAP
000000
000000
000000
000000
000000
000000
000000
000000
3F3F00
0C0C00
0C0C00
0C0C00
0C0C00
0C0C00
0FFFF0
0C0C18
0C0C0C
0C0C0C
0C0C0C
0C0C0C
0C0C18
3F3FF0
000000
000000
ENDCHAR

STARTCHAR jisx0212_277B
ENCODING 10107
SWIDTH 960 0
DWIDTH 24 0
BBX 24 24 0 -2
BITMAP
000000
000000
030000
0F0000
030000
1FFC00
030000
030000
033E00
03E380
038180
0300C0
0300C0
0300C0
0300C0
0300C0
0300C0
0300C0
0300C0
0300C0
0300C0
0FC3F0
000000
000000
ENDCHAR

STARTCHAR jisx0212_277C
ENCODING 10108
SWIDTH 960 0
DWIDTH 24 0
BBX 24 24 0 -2
BITMAP
000000
000000
000600
001E00
007000
000000
000000
000000
07E7E0
018180
018100
018300
018200
018600
01FE00
018600
018300
018300
018180
018180
0180C0
07E3F0
000000
000000
ENDCHAR

STARTCHAR jisx0212_277D
ENCODING 10109
SWIDTH 960 0
DWIDTH 24 0
BBX 24 24 0 -2
BITMAP
000000
000000
00C300
01E780
00C300
007E00
000000
000000
07E1F0
018040
0180C0
00C080
00C180
006100
006300
003200
003600
001C00
001C00
000800
011800
039000
03B000
01E000
ENDCHAR

STARTCHAR jisx0212_277E
ENCODING 10110
SWIDTH 960 0
DWIDTH 24 0
BBX 24 24 0 -2
BITMAP
000000
000000
000000
000000
000000
000000
000000
000000
0FC7E0
030180
030180
030180
030180
030180
030180
030180
030180
030180
030180
030180
0FFFE0
001000
001000
001000
ENDCHAR

STARTCHAR jisx0212_2921
ENCODING 10529
SWIDTH 960 0
DWIDTH 24 0
BBX 24 24 0 -2
BITMAP
000000
000000
00FFFC
003C0C
002C06
006C02
004C02
00CC00
008C10
018C10
010C30
030FF0
020C30
060C10
07FC10
0C0C00
080C00
180C01
100C01
300C03
200C06
F83FFE
000000
000000
ENDCHAR

STARTCHAR jisx0212_2922
ENCODING 10530
SWIDTH 960 0
DWIDTH 24 0
BBX 24 24 0 -2
BITMAP
000000
000000
1FFE00
060380
0600C0
060060
060060
060030
060030
060030
060030
7FE030
060030
060030
060030
060030
060030
060060
060060
0600C0
060380
1FFE00
000000
000000
ENDCHAR

STARTCHAR jisx0212_2924
ENCODING 10532
SWIDTH 960 0
DWIDTH 24 0
BBX 24 24 0 -2
BITMAP
000000
000000
3F01F8
0C0060
0C0060
0C0060
FFFFFE
0C0060
0C0060
0C0060
0C0060
0FFFE0
0C0060
0C0060
0C0060
0C0060
0C0060
0C0060
0C0060
0C0060
0C0060
3F01F8
000000
000000
ENDCHAR

STARTCHAR jisx0212_2926
ENCODING 10534
SWIDTH 960 0
DWIDTH 24 0
BBX 24 24 0 -2
BITMAP
000000
000000
1F80FC
060030
060030
060030
060030
060030
060030
060030
060030
060030
060030
060030
060030
060030
063030
067830
067060
063060
0618C0
1F8F80
000000
000000
ENDCHAR

STARTCHAR jisx0212_2928
ENCODING 10536
SWIDTH 960 0
DWIDTH 24 0
BBX 24 24 0 -2
BITMAP
000000
000000
0FC000
030000
030000
030000
031000
033000
036000
03C000
038000
030000
070000
0F0000
1B0000
330000
230000
030010
030010
030030
030060
0FFFE0
000000
000000
ENDCHAR

STARTCHAR jisx0212_2929
ENCODING 10537
SWIDTH 960 0
DWIDTH 24 0
BBX 24 24 0 -2
BITMAP
000000
000000
0FC000
030000
030000
030000
030000
030000
030000
030000
031800
033C00
031800
030000
030000
030000
030000
030010
030010
030030
030060
0FFFE0
000000
000000
ENDCHAR

STARTCHAR jisx0212_292B
ENCODING 10539
SWIDTH 960 0
DWIDTH 24 0
BBX 24 24 0 -2
BITMAP
000000
000000
0F1F00
0371C0
03C0C0
038060
038060
030060
030060
030060
030060
030060
030060
030060
030060
030060
031060
033860
033860
033040
0318C0
0FCF80
000000
000000
ENDCHAR

STARTCHAR jisx0212_292C
ENCODING 10540
SWIDTH 960 0
DWIDTH 24 0
BBX 24 24 0 -2
BITMAP
000000
000000
007E08
01C398
0300F0
060060
0C00F0
0C01B0
180318
180618
180C18
181818
183018
186018
18C018
198018
0F0030
0E0030
0E0060
1B00C0
31C380
207E00
000000
000000
ENDCHAR

STARTCHAR jisx0212_292D
ENCODING 10541
SWIDTH 960 0
DWIDTH 24 0
BBX 24 24 0 -2
BITMAP
000000
000000
03FFFC
0E0C0C
180C06
300C02
300C02
600C00
600C10
600C10
600C30
600FF0
600C30
600C10
600C10
600C00
600C00
300C01
300C01
180C03
0E0C06
03FFFE
000000
000000
ENDCHAR

STARTCHAR jisx0212_292F
ENCODING 10543
SWIDTH 960 0
DWIDTH 24 0
BBX 24 24 0 -2
BITMAP
000000
000000
0FFFF0
0C1830
181818
101808
101808
001800
001800
001800
001800
01FF80
001800
001800
001800
001800
001800
001800
001800
001800
001800
007E00
000000
000000
ENDCHAR

STARTCHAR jisx0212_2930
ENCODING 10544
SWIDTH 960 0
DWIDTH 24 0
BBX 24 24 0 -2
BITMAP
000000
000000
0FC000
030000
030000
030000
030000
03FE00
030380
0300C0
030060
030060
030060
030060
0300C0
030380
03FE00
030000
030000
030000
030000
0FC000
000000
000000
ENDCHAR

STARTCHAR jisx0212_2941
ENCODING 10561
SWIDTH 960 0
DWIDTH 24 0
BBX 24 24 0 -2
BITMAP
000000
000000
000000
000000
000000
000000
000000
000000
0FE3E0
1C3E38
1C1C18
08180C
00180C
00180C
07FFFC
1C1800
301800
301804
301804
301C0C
187618
0FC3F0
000000
000000
ENDCHAR

STARTCHAR jisx0212_2942
ENCODING 10562
SWIDTH 960 0
DWIDTH 24 0
BBX 24 24 0 -2
BITMAP
000000
000000
0000C0
0003C0
0000C0
001FF8
0000C0
0000C0
007CC0
01C7C0
0301C0
0300C0
0600C0
0600C0
0600C0
0600C0
0600C0
0600C0
0300C0
0301C0
01C7C0
007CF0
000000
000000
ENDCHAR

STARTCHAR jisx0212_2943
ENCODING 10563
SWIDTH 960 0
DWIDTH 24 0
BBX 24 24 0 -2
BITMAP
000000
000000
01C180
007700
001C00
007C00
00C600
000300
003F00
00E780
018180
0181C0
0300C0
0300C0
0300C0
0300C0
0300C0
0300C0
018180
018180
00E700
003C00
000000
000000
ENDCHAR

STARTCHAR jisx0212_2944
ENCODING 10564
SWIDTH 960 0
DWIDTH 24 0
BBX 24 24 0 -2
BITMAP
000000
000000
030000
0F0000
030000
1FFC00
030000
030000
033E00
03E380
038180
0300C0
0300C0
0300C0
0300C0
0300C0
0300C0
0300C0
0300C0
0300C0
0300C0
0FC3F0
000000
000000
ENDCHAR

STARTCHAR jisx0212_2945
ENCODING 10565
SWIDTH 960 0
DWIDTH 24 0
BBX 24 24 0 -2
BITMAP
000000
000000
000000
000000
000000
000000
000000
000000
001800
007800
001800
001800
001800
001800
001800
001800
001800
001800
001800
001800
001800
007E00
000000
000000
ENDCHAR

STARTCHAR jisx0212_2946
ENCODING 10566
SWIDTH 960 0
DWIDTH 24 0
BBX 24 24 0 -2
BITMAP
000000
000000
0180C0
03C1E0
0180C0
000000
000000
000000
0180C0
0783C0
0180C0
0180C0
0180C0
0180C0
0180C0
0180C0
0180C0
0180C0
0180C0
0180C0
0184C0
07EEC0
000CC0
000780
ENDCHAR

STARTCHAR jisx0212_2947
ENCODING 10567
SWIDTH 960 0
DWIDTH 24 0
BBX 24 24 0 -2
BITMAP
000000
000000
000000
000000
000000
000000
000000
000000
07E7E0
018180
018300
018600
018C00
019800
01BC00
01EE00
01C600
018300
018380
018180
0180C0
07E3F0
000000
000000
ENDCHAR

STARTCHAR jisx0212_2948
ENCODING 10568
SWIDTH 960 0
DWIDTH 24 0
BBX 24 24 0 -2
BITMAP
000000
000000
001800
007800
001800
001800
001800
001880
001980
001B00
001E00
001C00
001800
003800
007800
00D800
019800
011800
001800
001800
001800
007E00
000000
000000
ENDCHAR

STARTCHAR jisx0212_2949
ENCODING 10569
SWIDTH 960 0
DWIDTH 24 0
BBX 24 24 0 -2
BITMAP
000000
000000
003000
00F000
003000
003000
003000
003000
003000
003000
003300
003780
003300
003000
003000
003000
003000
003000
003000
003000
003000
00FC00
000000
000000
ENDCHAR

STARTCHAR jisx0212_294A
ENCODING 10570
SWIDTH 960 0
DWIDTH 24 0
BBX 24 24 0 -2
BITMAP
000000
000000
000000
000000
000000
000000
100000
380000
38CF80
3BF8E0
10E060
10C030
10C030
00C030
00C030
00C030
00C030
00C030
00C030
00C030
00C030
03F0FC
000000
000000
ENDCHAR

STARTCHAR jisx0212_294B
ENCODING 10571
SWIDTH 960 0
DWIDTH 24 0
BBX 24 24 0 -2
BITMAP
000000
000000
000000
000000
000000
000000
000000
000000
033E00
0FE380
038180
0300C0
0300C0
0300C0
0300C0
0300C0
0300C0
0300C0
0300C0
0300C0
0308C0
0FDC80
001D80
000F00
ENDCHAR

STARTCHAR jisx0212_294C
ENCODING 10572
SWIDTH 960 0
DWIDTH 24 0
BBX 24 24 0 -2
BITMAP
000000
000000
000000
000000
000000
000000
000000
000000
007C40
01C7C0
030180
030380
0606C0
060CC0
0618C0
0630C0
0660C0
06C0C0
038180
030180
07C700
047C00
000000
000000
ENDCHAR

STARTCHAR jisx0212_294D
ENCODING 10573
SWIDTH 960 0
DWIDTH 24 0
BBX 24 24 0 -2
BITMAP
000000
000000
000000
000000
000000
000000
000000
000000
07C3E0
1C7E38
183C18
30180C
30180C
301FFC
301800
301800
301800
301804
301804
183C0C
1C7618
07C3F0
000000
000000
ENDCHAR

STARTCHAR jisx0212_294E
ENCODING 10574
SWIDTH 960 0
DWIDTH 24 0
BBX 24 24 0 -2
BITMAP
000000
000000
007E00
01C380
018180
0300C0
0300C0
0300C0
030180
030380
033E00
030380
0300C0
0300C0
030060
030060
030060
032060
037060
0370C0
0361C0
0F3F00
000000
000000
ENDCHAR

STARTCHAR jisx0212_294F
ENCODING 10575
SWIDTH 960 0
DWIDTH 24 0
BBX 24 24 0 -2
BITMAP
000000
000000
001000
003000
003000
003000
003000
003000
00FF00
003000
003000
003000
00FE00
003000
003000
003000
003000
003000
003080
003180
003B00
001E00
000000
000000
ENDCHAR

STARTCHAR jisx0212_2950
ENCODING 10576
SWIDTH 960 0
DWIDTH 24 0
BBX 24 24 0 -2
BITMAP
000000
000000
00C000
03C000
00C000
00C000
00C000
00C000
00DF00
00F1C0
00C060
00C060
00C030
00C030
00C030
00C030
00C030
00C060
00C060
00F1C0
00DF00
00C000
00C000
03F000
ENDCHAR

STARTCHAR jisx0212_2A21
ENCODING 10785
SWIDTH 960 0
DWIDTH 24 0
BBX 24 24 0 -2
BITMAP
000600
001E00
007000
000000
001800
001800
003C00
002C00
006600
004600
00C300
008300
018180
010180
010180
0300C0
03FFC0
060060
040060
0C0030
080030
3E00FC
000000
000000
ENDCHAR

STARTCHAR jisx0212_2A22
ENCODING 10786
SWIDTH 960 0
DWIDTH 24 0
BBX 24 24 0 -2
BITMAP
006000
007800
000E00
000000
001800
001800
003C00
002C00
006600
004600
00C300
008300
018180
010180
010180
0300C0
03FFC0
060060
040060
0C0030
080030
3E00FC
000000
000000
ENDCHAR

STARTCHAR jisx0212_2A23
ENCODING 10787
SWIDTH 960 0
DWIDTH 24 0
BBX 24 24 0 -2
BITMAP
00C300
01E780
00C300
000000
001800
001800
003C00
002C00
006600
004600
00C300
008300
018180
010180
010180
0300C0
03FFC0
060060
040060
0C0030
080030
3E00FC
000000
000000
ENDCHAR

STARTCHAR jisx0212_2A24
ENCODING 10788
SWIDTH 960 0
DWIDTH 24 0
BBX 24 24 0 -2
BITMAP
003800
006C00
00C600
000000
001800
001800
003C00
002C00
006600
004600
00C300
008300
018180
010180
010180
0300C0
03FFC0
060060
040060
0C0030
080030
3E00FC
000000
000000
ENDCHAR

STARTCHAR jisx0212_2A25
ENCODING 10789
SWIDTH 960 0
DWIDTH 24 0
BBX 24 24 0 -2
BITMAP
004200
007E00
003C00
000000
001800
001800
003C00
002C00
006600
004600
00C300
008300
018180
010180
010180
0300C0
03FFC0
060060
040060
0C0030
080030
3E00FC
000000
000000
ENDCHAR

STARTCHAR jisx0212_2A26
ENCODING 10790
SWIDTH 960 0
DWIDTH 24 0
BBX 24 24 0 -2
BITMAP
00C600
006C00
003800
000000
001800
001800
003C00
002C00
006600
004600
00C300
008300
018180
010180
010180
0300C0
03FFC0
060060
040060
0C0030
080030
3E00FC
000000
000000
ENDCHAR

STARTCHAR jisx0212_2A27
ENCODING 10791
SWIDTH 960 0
DWIDTH 24 0
BBX 24 24 0 -2
BITMAP
00FF00
000000
000000
000000
001800
001800
003C00
002C00
006600
004600
00C300
008300
018180
010180
010180
0300C0
03FFC0
060060
040060
0C0030
080030
3E00FC
000000
000000
ENDCHAR

STARTCHAR jisx0212_2A28
ENCODING 10792
SWIDTH 960 0
DWIDTH 24 0
BBX 24 24 0 -2
BITMAP
000000
000000
001800
001800
003C00
002C00
006600
004600
00C300
008300
018180
010180
010180
0300C0
03FFC0
060060
040060
0C0030
080030
3E00FC
000030
000026
00003E
00001C
ENDCHAR

STARTCHAR jisx0212_2A29
ENCODING 10793
SWIDTH 960 0
DWIDTH 24 0
BBX 24 24 0 -2
BITMAP
001800
002400
002400
001800
001800
001800
003C00
002C00
006600
004600
00C300
008300
018180
010180
010180
0300C0
03FFC0
060060
040060
0C0030
080030
3E00FC
000000
000000
ENDCHAR

STARTCHAR jisx0212_2A2A
ENCODING 10794
SWIDTH 960 0
DWIDTH 24 0
BBX 24 24 0 -2
BITMAP
007100
00FF00
008E00
000000
001800
001800
003C00
002C00
006600
004600
00C300
008300
018180
010180
010180
0300C0
03FFC0
060060
040060
0C0030
080030
3E00FC
000000
000000
ENDCHAR

STARTCHAR jisx0212_2A2B
ENCODING 10795
SWIDTH 960 0
DWIDTH 24 0
BBX 24 24 0 -2
BITMAP
000600
001E00
007000
000000
007F20
01C1E0
030060
060030
060010
0C0010
0C0000
0C0000
0C0000
0C0000
0C0000
0C0000
0C0010
060010
060030
030060
01C1C0
007F00
000000
000000
ENDCHAR

STARTCHAR jisx0212_2A2C
ENCODING 10796
SWIDTH 960 0
DWIDTH 24 0
BBX 24 24 0 -2
BITMAP
001C00
003600
006300
000000
007F20
01C1E0
030060
060030
060010
0C0010
0C0000
0C0000
0C0000
0C0000
0C0000
0C0000
0C0010
060010
060030
030060
01C1C0
007F00
000000
000000
ENDCHAR

STARTCHAR jisx0212_2A2D
ENCODING 10797
SWIDTH 960 0
DWIDTH 24 0
BBX 24 24 0 -2
BITMAP
006300
003600
001C00
000000
007F20
01C1E0
030060
060030
060010
0C0010
0C0000
0C0000
0C0000
0C0000
0C0000
0C0000
0C0010
060010
060030
030060
01C1C0
007F00
000000
000000
ENDCHAR

STARTCHAR jisx0212_2A2E
ENCODING 10798
SWIDTH 960 0
DWIDTH 24 0
BBX 24 24 0 -2
BITMAP
000000
000000
007F20
01C1E0
030060
060030
060010
0C0010
0C0000
0C0000
0C0000
0C0000
0C0000
0C0000
0C0010
060010
060030
030060
01C1C0
007F00
001800
001C00
00C600
007C00
ENDCHAR

STARTCHAR jisx0212_2A2F
ENCODING 10799
SWIDTH 960 0
DWIDTH 24 0
BBX 24 24 0 -2
BITMAP
001800
003C00
001800
000000
007F20
01C1E0
030060
060030
060010
0C0010
0C0000
0C0000
0C0000
0C0000
0C0000
0C0000
0C0010
060010
060030
030060
01C1C0
007F00
000000
000000
ENDCHAR

STARTCHAR jisx0212_2A30
ENCODING 10800
SWIDTH 960 0
DWIDTH 24 0
BBX 24 24 0 -2
BITMAP
00C600
006C00
003800
000000
1FFE00
060380
0600C0
060060
060060
060030
060030
060030
060030
060030
060030
060030
060030
060060
060060
0600C0
060380
1FFE00
000000
000000
ENDCHAR

STARTCHAR jisx0212_2A31
ENCODING 10801
SWIDTH 960 0
DWIDTH 24 0
BBX 24 24 0 -2
BITMAP
000600
001E00
007000
000000
0FFFC0
0300C0
030060
030020
030020
030100
030100
030300
03FF00
030300
030100
030100
030000
030010
030010
030030
030060
0FFFE0
000000
000000
ENDCHAR

STARTCHAR jisx0212_2A32
ENCODING 10802
SWIDTH 960 0
DWIDTH 24 0
BBX 24 24 0 -2
BITMAP
006000
007800
000E00
000000
0FFFC0
0300C0
030060
030020
030020
030100
030100
030300
03FF00
030300
030100
030100
030000
030010
030010
030030
030060
0FFFE0
000000
000000
ENDCHAR

STARTCHAR jisx0212_2A33
ENCODING 10803
SWIDTH 960 0
DWIDTH 24 0
BBX 24 24 0 -2
BITMAP
00C300
01E780
00C300
000000
0FFFC0
0300C0
030060
030020
030020
030100
030100
030300
03FF00
030300
030100
030100
030000
030010
030010
030030
030060
0FFFE0
000000
000000
ENDCHAR

STARTCHAR jisx0212_2A34
ENCODING 10804
SWIDTH 960 0
DWIDTH 24 0
BBX 24 24 0 -2
BITMAP
003800
006C00
00C600
000000
0FFFC0
0300C0
030060
030020
030020
030100
030100
030300
03FF00
030300
030100
030100
030000
030010
030010
030030
030060
0FFFE0
000000
000000
ENDCHAR

STARTCHAR jisx0212_2A35
ENCODING 10805
SWIDTH 960 0
DWIDTH 24 0
BBX 24 24 0 -2
BITMAP
00C600
006C00
003800
000000
0FFFC0
0300C0
030060
030020
030020
030100
030100
030300
03FF00
030300
030100
030100
030000
030010
030010
030030
030060
0FFFE0
000000
000000
ENDCHAR

STARTCHAR jisx0212_2A36
ENCODING 10806
SWIDTH 960 0
DWIDTH 24 0
BBX 24 24 0 -2
BITMAP
001800
003C00
001800
000000
0FFFC0
0300C0
030060
030020
030020
030100
030100
030300
03FF00
030300
030100
030100
030000
030010
030010
030030
030060
0FFFE0
000000
000000
ENDCHAR

STARTCHAR jisx0212_2A37
ENCODING 10807
SWIDTH 960 0
DWIDTH 24 0
BBX 24 24 0 -2
BITMAP
00FF00
000000
000000
000000
0FFFC0
0300C0
030060
030020
030020
030100
030100
030300
03FF00
030300
030100
030100
030000
030010
030010
030030
030060
0FFFE0
000000
000000
ENDCHAR

STARTCHAR jisx0212_2A38
ENCODING 10808
SWIDTH 960 0
DWIDTH 24 0
BBX 24 24 0 -2
BITMAP
000000
000000
0FFFC0
0300C0
030060
030020
030020
030100
030100
030300
03FF00
030300
030100
030100
030000
030010
030010
030030
030060
0FFFE0
000600
0004C0
0007C0
000380
ENDCHAR

STARTCHAR jisx0212_2A3A
ENCODING 10810
SWIDTH 960 0
DWIDTH 24 0
BBX 24 24 0 -2
BITMAP
001C00
003600
006300
000000
007F20
01C1E0
030060
060030
060010
0C0010
0C0000
0C0000
0C0000
0C03FC
0C0030
0C0030
0C0030
060030
060030
030070
01C1F0
007F10
000000
000000
ENDCHAR

STARTCHAR jisx0212_2A3B
ENCODING 10811
SWIDTH 960 0
DWIDTH 24 0
BBX 24 24 0 -2
BITMAP
004200
007E00
003C00
000000
007F20
01C1E0
030060
060030
060010
0C0010
0C0000
0C0000
0C0000
0C03FC
0C0030
0C0030
0C0030
060030
060030
030070
01C1F0
007F10
000000
000000
ENDCHAR

STARTCHAR jisx0212_2A3C
ENCODING 10812
SWIDTH 960 0
DWIDTH 24 0
BBX 24 24 0 -2
BITMAP
000000
000000
007F20
01C1E0
030060
060030
060010
0C0010
0C0000
0C0000
0C0000
0C03FC
0C0030
0C0030
0C0030
060030
060030
030070
01C1F0
007F10
001800
001C00
00C600
007C00
ENDCHAR

STARTCHAR jisx0212_2A3D
ENCODING 10813
SWIDTH 960 0
DWIDTH 24 0
BBX 24 24 0 -2
BITMAP
001800
003C00
001800
000000
007F20
01C1E0
030060
060030
060010
0C0010
0C0000
0C0000
0C0000
0C03FC
0C0030
0C0030
0C0030
060030
060030
030070
01C1F0
007F10
000000
000000
ENDCHAR

STARTCHAR jisx0212_2A3E
ENCODING 10814
SWIDTH 960 0
DWIDTH 24 0
BBX 24 24 0 -2
BITMAP
003800
006C00
00C600
000000
3F01F8
0C0060
0C0060
0C0060
0C0060
0C0060
0C0060
0C0060
0FFFE0
0C0060
0C0060
0C0060
0C0060
0C0060
0C0060
0C0060
0C0060
3F01F8
000000
000000
ENDCHAR

STARTCHAR jisx0212_2A3F
ENCODING 10815
SWIDTH 960 0
DWIDTH 24 0
BBX 24 24 0 -2
BITMAP
000600
001E00
007000
000000
007E00
001800
001800
001800
001800
001800
001800
001800
001800
001800
001800
001800
001800
001800
001800
001800
001800
007E00
000000
000000
ENDCHAR

STARTCHAR jisx0212_2A40
ENCODING 10816
SWIDTH 960 0
DWIDTH 24 0
BBX 24 24 0 -2
BITMAP
006000
007800
000E00
000000
007E00
001800
001800
001800
001800
001800
001800
001800
001800
001800
001800
001800
001800
001800
001800
001800
001800
007E00
000000
000000
ENDCHAR

STARTCHAR jisx0212_2A41
ENCODING 10817
SWIDTH 960 0
DWIDTH 24 0
BBX 24 24 0 -2
BITMAP
00C300
01E780
00C300
000000
007E00
001800
001800
001800
001800
001800
001800
001800
001800
001800
001800
001800
001800
001800
001800
001800
001800
007E00
000000
000000
ENDCHAR

STARTCHAR jisx0212_2A42
ENCODING 10818
SWIDTH 960 0
DWIDTH 24 0
BBX 24 24 0 -2
BITMAP
003800
006C00
00C600
000000
007E00
001800
001800
001800
001800
001800
001800
001800
001800
001800
001800
001800
001800
001800
001800
001800
001800
007E00
000000
000000
ENDCHAR

STARTCHAR jisx0212_2A43
ENCODING 10819
SWIDTH 960 0
DWIDTH 24 0
BBX 24 24 0 -2
BITMAP
00C600
006C00
003800
000000
007E00
001800
001800
001800
001800
001800
001800
001800
001800
001800
001800
001800
001800
001800
001800
001800
001800
007E00
000000
000000
ENDCHAR

STARTCHAR jisx0212_2A44
ENCODING 10820
SWIDTH 960 0
DWIDTH 24 0
BBX 24 24 0 -2
BITMAP
001800
003C00
001800
000000
007E00
001800
001800
001800
001800
001800
001800
001800
001800
001800
001800
001800
001800
001800
001800
001800
001800
007E00
000000
000000
ENDCHAR

STARTCHAR jisx0212_2A45
ENCODING 10821
SWIDTH 960 0
DWIDTH 24 0
BBX 24 24 0 -2
BITMAP
00FF00
000000
000000
000000
007E00
001800
001800
001800
001800
001800
001800
001800
001800
001800
001800
001800
001800
001800
001800
001800
001800
007E00
000000
000000
ENDCHAR

STARTCHAR jisx0212_2A46
ENCODING 10822
SWIDTH 960 0
DWIDTH 24 0
BBX 24 24 0 -2
BITMAP
000000
000000
007E00
001800
001800
001800
001800
001800
001800
001800
001800
001800
001800
001800
001800
001800
001800
001800
001800
007E00
001800
001300
001F00
000E00
ENDCHAR

STARTCHAR jisx0212_2A47
ENCODING 10823
SWIDTH 960 0
DWIDTH 24 0
BBX 24 24 0 -2
BITMAP
007100
00FF00
008E00
000000
007E00
001800
001800
001800
001800
001800
001800
001800
001800
001800
001800
001800
001800
001800
001800
001800
001800
007E00
000000
000000
ENDCHAR

STARTCHAR jisx0212_2A48
ENCODING 10824
SWIDTH 960 0
DWIDTH 24 0
BBX 24 24 0 -2
BITMAP
003800
006C00
00C600
000000
000FC0
000300
000300
000300
000300
000300
000300
000300
000300
000300
000300
000300
030300
078300
070600
030600
018C00
00F800
000000
000000
ENDCHAR

STARTCHAR jisx0212_2A49
ENCODING 10825
SWIDTH 960 0
DWIDTH 24 0
BBX 24 24 0 -2
BITMAP
000000
000000
1F83F0
0600C0
060180
060300
060600
060C00
061800
063800
067C00
06CC00
078600
070700
060380
060180
0600C0
0600E0
060870
1F99FC
001C00
000600
00C600
007C00
ENDCHAR

STARTCHAR jisx0212_2A4A
ENCODING 10826
SWIDTH 960 0
DWIDTH 24 0
BBX 24 24 0 -2
BITMAP
000600
001E00
007000
000000
0FC000
030000
030000
030000
030000
030000
030000
030000
030000
030000
030000
030000
030000
030010
030010
030030
030060
0FFFE0
000000
000000
ENDCHAR

STARTCHAR jisx0212_2A4B
ENCODING 10827
SWIDTH 960 0
DWIDTH 24 0
BBX 24 24 0 -2
BITMAP
00C600
006C00
003800
000000
0FC000
030000
030000
030000
030000
030000
030000
030000
030000
030000
030000
030000
030000
030010
030010
030030
030060
0FFFE0
000000
000000
ENDCHAR

STARTCHAR jisx0212_2A4C
ENCODING 10828
SWIDTH 960 0
DWIDTH 24 0
BBX 24 24 0 -2
BITMAP
000000
000000
0FC000
030000
030000
030000
030000
030000
030000
030000
030000
030000
030000
030000
030000
030010
030010
030030
030060
0FFFE0
001800
001C00
00C600
007C00
ENDCHAR

STARTCHAR jisx0212_2A4D
ENCODING 10829
SWIDTH 960 0
DWIDTH 24 0
BBX 24 24 0 -2
BITMAP
000600
001E00
007000
000000
3C00F8
0E0020
0F0020
0B8020
098020
08C020
08E020
087020
083020
081820
081C20
080E20
080620
080320
0803A0
0801E0
0800E0
3E0060
000000
000000
ENDCHAR

STARTCHAR jisx0212_2A4E
ENCODING 10830
SWIDTH 960 0
DWIDTH 24 0
BBX 24 24 0 -2
BITMAP
00C600
006C00
003800
000000
3C00F8
0E0020
0F0020
0B8020
098020
08C020
08E020
087020
083020
081820
081C20
080E20
080620
080320
0803A0
0801E0
0800E0
3E0060
000000
000000
ENDCHAR

STARTCHAR jisx0212_2A4F
ENCODING 10831
SWIDTH 960 0
DWIDTH 24 0
BBX 24 24 0 -2
BITMAP
000000
000000
3C00F8
0E0020
0F0020
0B8020
098020
08C020
08E020
087020
083020
081820
081C20
080E20
080620
080320
0803A0
0801E0
0808E0
3E1860
001C00
000600
00C600
007C00
ENDCHAR

STARTCHAR jisx0212_2A50
ENCODING 10832
SWIDTH 960 0
DWIDTH 24 0
BBX 24 24 0 -2
BITMAP
007100
00FF00
008E00
000000
3C00F8
0E0020
0F0020
0B8020
098020
08C020
08E020
087020
083020
081820
081C20
080E20
080620
080320
0803A0
0801E0
0800E0
3E0060
000000
000000
ENDCHAR

STARTCHAR jisx0212_2A51
ENCODING 10833
SWIDTH 960 0
DWIDTH 24 0
BBX 24 24 0 -2
BITMAP
000C00
003C00
00E000
000000
00FE00
038380
0600C0
0C0060
0C0060
180030
180030
180030
180030
180030
180030
180030
180030
0C0060
0C0060
0600C0
038380
00FE00
000000
000000
ENDCHAR

STARTCHAR jisx0212_2A52
ENCODING 10834
SWIDTH 960 0
DWIDTH 24 0
BBX 24 24 0 -2
BITMAP
00C000
00F000
001C00
000000
00FE00
038380
0600C0
0C0060
0C0060
180030
180030
180030
180030
180030
180030
180030
180030
0C0060
0C0060
0600C0
038380
00FE00
000000
000000
ENDCHAR

STARTCHAR jisx0212_2A53
ENCODING 10835
SWIDTH 960 0
DWIDTH 24 0
BBX 24 24 0 -2
BITMAP
018600
03CF00
018600
000000
00FE00
038380
0600C0
0C0060
0C0060
180030
180030
180030
180030
180030
180030
180030
180030
0C0060
0C0060
0600C0
038380
00FE00
000000
000000
ENDCHAR

STARTCHAR jisx0212_2A54
ENCODING 10836
SWIDTH 960 0
DWIDTH 24 0
BBX 24 24 0 -2
BITMAP
003800
006C00
00C600
000000
00FE00
038380
0600C0
0C0060
0C0060
180030
180030
180030
180030
180030
180030
180030
180030
0C0060
0C0060
0600C0
038380
00FE00
000000
000000
ENDCHAR

STARTCHAR jisx0212_2A55
ENCODING 10837
SWIDTH 960 0
DWIDTH 24 0
BBX 24 24 0 -2
BITMAP
00C600
006C00
003800
000000
00FE00
038380
0600C0
0C0060
0C0060
180030
180030
180030
180030
180030
180030
180030
180030
0C0060
0C0060
0600C0
038380
00FE00
000000
000000
ENDCHAR

STARTCHAR jisx0212_2A56
ENCODING 10838
SWIDTH 960 0
DWIDTH 24 0
BBX 24 24 0 -2
BITMAP
006180
01E780
030C00
000000
00FE00
038380
0600C0
0C0060
0C0060
180030
180030
180030
180030
180030
180030
180030
180030
0C0060
0C0060
0600C0
038380
00FE00
000000
000000
ENDCHAR

STARTCHAR jisx0212_2A57
ENCODING 10839
SWIDTH 960 0
DWIDTH 24 0
BBX 24 24 0 -2
BITMAP
01FE00
000000
000000
000000
00FE00
038380
0600C0
0C0060
0C0060
180030
180030
180030
180030
180030
180030
180030
180030
0C0060
0C0060
0600C0
038380
00FE00
000000
000000
ENDCHAR

STARTCHAR jisx0212_2A58
ENCODING 10840
SWIDTH 960 0
DWIDTH 24 0
BBX 24 24 0 -2
BITMAP
00E200
01FE00
011C00
000000
00FE00
038380
0600C0
0C0060
0C0060
180030
180030
180030
180030
180030
180030
180030
180030
0C0060
0C0060
0600C0
038380
00FE00
000000
000000
ENDCHAR

STARTCHAR jisx0212_2A59
ENCODING 10841
SWIDTH 960 0
DWIDTH 24 0
BBX 24 24 0 -2
BITMAP
000600
001E00
007000
000000
0FFF80
0300C0
030060
030060
030060
030060
030060
0300C0
03FF80
030180
030080
0300C0
0300C0
0300C0
0300C0
0300C4
03006C
0FC038
000000
000000
ENDCHAR

STARTCHAR jisx0212_2A5A
ENCODING 10842
SWIDTH 960 0
DWIDTH 24 0
BBX 24 24 0 -2
BITMAP
00C600
006C00
003800
000000
0FFF80
0300C0
030060
030060
030060
030060
030060
0300C0
03FF80
030180
030080
0300C0
0300C0
0300C0
0300C0
0300C4
03006C
0FC038
000000
000000
ENDCHAR

STARTCHAR jisx0212_2A5B
ENCODING 10843
SWIDTH 960 0
DWIDTH 24 0
BBX 24 24 0 -2
BITMAP
000000
000000
0FFF80
0300C0
030060
030060
030060
030060
030060
0300C0
03FF80
030180
030080
0300C0
0300C0
0300C0
0300C0
0300C4
03086C
0FD838
001C00
000600
00C600
007C00
ENDCHAR

STARTCHAR jisx0212_2A5C
ENCODING 10844
SWIDTH 960 0
DWIDTH 24 0
BBX 24 24 0 -2
BITMAP
000600
001E00
007000
000000
00FC80
038780
030180
0600C0
060040
060040
030000
03E000
00FC00
001F00
0003C0
0000E0
040060
040060
060060
0300C0
03C1C0
027F00
000000
000000
ENDCHAR

STARTCHAR jisx0212_2A5D
ENCODING 10845
SWIDTH 960 0
DWIDTH 24 0
BBX 24 24 0 -2
BITMAP
003800
006C00
00C600
000000
00FC80
038780
030180
0600C0
060040
060040
030000
03E000
00FC00
001F00
0003C0
0000E0
040060
040060
060060
0300C0
03C1C0
027F00
000000
000000
ENDCHAR

STARTCHAR jisx0212_2A5E
ENCODING 10846
SWIDTH 960 0
DWIDTH 24 0
BBX 24 24 0 -2
BITMAP
00C600
006C00
003800
000000
00FC80
038780
030180
0600C0
060040
060040
030000
03E000
00FC00
001F00
0003C0
0000E0
040060
040060
060060
0300C0
03C1C0
027F00
000000
000000
ENDCHAR

STARTCHAR jisx0212_2A5F
ENCODING 10847
SWIDTH 960 0
DWIDTH 24 0
BBX 24 24 0 -2
BITMAP
000000
000000
00FC80
038780
030180
0600C0
060040
060040
030000
03E000
00FC00
001F00
0003C0
0000E0
040060
040060
060060
0300C0
03C1C0
027F00
001800
001C00
00C600
007C00
ENDCHAR

STARTCHAR jisx0212_2A60
ENCODING 10848
SWIDTH 960 0
DWIDTH 24 0
BBX 24 24 0 -2
BITMAP
00C600
006C00
003800
000000
0FFFF0
0C1830
181818
101808
101808
001800
001800
001800
001800
001800
001800
001800
001800
001800
001800
001800
001800
007E00
000000
000000
ENDCHAR

STARTCHAR jisx0212_2A61
ENCODING 10849
SWIDTH 960 0
DWIDTH 24 0
BBX 24 24 0 -2
BITMAP
000000
000000
0FFFF0
0C1830
181818
101808
101808
001800
001800
001800
001800
001800
001800
001800
001800
001800
001800
001800
001800
007E00
001800
001C00
00C600
007C00
ENDCHAR

STARTCHAR jisx0212_2A62
ENCODING 10850
SWIDTH 960 0
DWIDTH 24 0
BBX 24 24 0 -2
BITMAP
000600
001E00
007000
000000
1F80F8
060020
060020
060020
060020
060020
060020
060020
060020
060020
060020
060020
060020
060060
030040
0300C0
01C380
007E00
000000
000000
ENDCHAR

STARTCHAR jisx0212_2A63
ENCODING 10851
SWIDTH 960 0
DWIDTH 24 0
BBX 24 24 0 -2
BITMAP
006000
007800
000E00
000000
1F80F8
060020
060020
060020
060020
060020
060020
060020
060020
060020
060020
060020
060020
060060
030040
0300C0
01C380
007E00
000000
000000
ENDCHAR

STARTCHAR jisx0212_2A64
ENCODING 10852
SWIDTH 960 0
DWIDTH 24 0
BBX 24 24 0 -2
BITMAP
00C300
01E780
00C300
000000
1F80F8
060020
060020
060020
060020
060020
060020
060020
060020
060020
060020
060020
060020
060060
030040
0300C0
01C380
007E00
000000
000000
ENDCHAR

STARTCHAR jisx0212_2A65
ENCODING 10853
SWIDTH 960 0
DWIDTH 24 0
BBX 24 24 0 -2
BITMAP
001C00
003600
006300
000000
1F80F8
060020
060020
060020
060020
060020
060020
060020
060020
060020
060020
060020
060020
060060
030040
0300C0
01C380
007E00
000000
000000
ENDCHAR

STARTCHAR jisx0212_2A66
ENCODING 10854
SWIDTH 960 0
DWIDTH 24 0
BBX 24 24 0 -2
BITMAP
004200
007E00
003C00
000000
1F80F8
060020
060020
060020
060020
060020
060020
060020
060020
060020
060020
060020
060020
060060
030040
0300C0
01C380
007E00
000000
000000
ENDCHAR

STARTCHAR jisx0212_2A67
ENCODING 10855
SWIDTH 960 0
DWIDTH 24 0
BBX 24 24 0 -2
BITMAP
006300
003600
001C00
000000
1F80F8
060020
060020
060020
060020
060020
060020
060020
060020
060020
060020
060020
060020
060060
030040
0300C0
01C380
007E00
000000
000000
ENDCHAR

STARTCHAR jisx0212_2A68
ENCODING 10856
SWIDTH 960 0
DWIDTH 24 0
BBX 24 24 0 -2
BITMAP
0030C0
00F3C0
018600
000000
1F80F8
060020
060020
060020
060020
060020
060020
060020
060020
060020
060020
060020
060020
060060
030040
0300C0
01C380
007E00
000000
000000
ENDCHAR

STARTCHAR jisx0212_2A69
ENCODING 10857
SWIDTH 960 0
DWIDTH 24 0
BBX 24 24 0 -2
BITMAP
00FF00
000000
000000
000000
1F80F8
060020
060020
060020
060020
060020
060020
060020
060020
060020
060020
060020
060020
060060
030040
0300C0
01C380
007E00
000000
000000
ENDCHAR

STARTCHAR jisx0212_2A6A
ENCODING 10858
SWIDTH 960 0
DWIDTH 24 0
BBX 24 24 0 -2
BITMAP
000000
000000
1F80F8
060020
060020
060020
060020
060020
060020
060020
060020
060020
060020
060020
060020
060060
030040
0300C0
01C380
007E00
001800
001300
001F00
000E00
ENDCHAR

STARTCHAR jisx0212_2A6B
ENCODING 10859
SWIDTH 960 0
DWIDTH 24 0
BBX 24 24 0 -2
BITMAP
001800
002400
002400
001800
1F80F8
060020
060020
060020
060020
060020
060020
060020
060020
060020
060020
060020
060020
060060
030040
0300C0
01C380
007E00
000000
000000
ENDCHAR

STARTCHAR jisx0212_2A6C
ENCODING 10860
SWIDTH 960 0
DWIDTH 24 0
BBX 24 24 0 -2
BITMAP
007100
00FF00
008E00
000000
1F80F8
060020
060020
060020
060020
060020
060020
060020
060020
060020
060020
060020
060020
060060
030040
0300C0
01C380
007E00
000000
000000
ENDCHAR

STARTCHAR jisx0212_2A6D
ENCODING 10861
SWIDTH 960 0
DWIDTH 24 0
BBX 24 24 0 -2
BITMAP
000300
000F00
003800
00C300
01E780
00C300
1F80F8
060020
060020
060020
060020
060020
060020
060020
060020
060020
060020
060060
030040
0300C0
01C380
007E00
000000
000000
ENDCHAR

STARTCHAR jisx0212_2A6E
ENCODING 10862
SWIDTH 960 0
DWIDTH 24 0
BBX 24 24 0 -2
BITMAP
00C000
00F000
001C00
00C300
01E780
00C300
1F80F8
060020
060020
060020
060020
060020
060020
060020
060020
060020
060020
060060
030040
0300C0
01C380
007E00
000000
000000
ENDCHAR

STARTCHAR jisx0212_2A6F
ENCODING 10863
SWIDTH 960 0
DWIDTH 24 0
BBX 24 24 0 -2
BITMAP
00C600
006C00
003800
00C300
01E780
00C300
1F80F8
060020
060020
060020
060020
060020
060020
060020
060020
060020
060020
060060
030040
0300C0
01C380
007E00
000000
000000
ENDCHAR

STARTCHAR jisx0212_2A70
ENCODING 10864
SWIDTH 960 0
DWIDTH 24 0
BBX 24 24 0 -2
BITMAP
00FF00
000000
000000
00C300
01E780
00C300
1F80F8
060020
060020
060020
060020
060020
060020
060020
060020
060020
060020
060060
030040
0300C0
01C380
007E00
000000
000000
ENDCHAR

STARTCHAR jisx0212_2A71
ENCODING 10865
SWIDTH 960 0
DWIDTH 24 0
BBX 24 24 0 -2
BITMAP
003800
006C00
00C600
000000
FC183E
301808
301808
301808
183C18
182C10
182C10
0C6630
0C4620
0C4620
0C4620
06C360
068340
068340
0381C0
030180
030180
030180
000000
000000
ENDCHAR

STARTCHAR jisx0212_2A72
ENCODING 10866
SWIDTH 960 0
DWIDTH 24 0
BBX 24 24 0 -2
BITMAP
000600
001E00
007000
000000
1F81F8
060060
0300C0
030080
018180
018100
00C300
00C200
006600
006400
003C00
003800
001800
001800
001800
001800
001800
007E00
000000
000000
ENDCHAR

STARTCHAR jisx0212_2A73
ENCODING 10867
SWIDTH 960 0
DWIDTH 24 0
BBX 24 24 0 -2
BITMAP
00C300
01E780
00C300
000000
1F81F8
060060
0300C0
030080
018180
018100
00C300
00C200
006600
006400
003C00
003800
001800
001800
001800
001800
001800
007E00
000000
000000
ENDCHAR

STARTCHAR jisx0212_2A74
ENCODING 10868
SWIDTH 960 0
DWIDTH 24 0
BBX 24 24 0 -2
BITMAP
003800
006C00
00C600
000000
1F81F8
060060
0300C0
030080
018180
018100
00C300
00C200
006600
006400
003C00
003800
001800
001800
001800
001800
001800
007E00
000000
000000
ENDCHAR

STARTCHAR jisx0212_2A75
ENCODING 10869
SWIDTH 960 0
DWIDTH 24 0
BBX 24 24 0 -2
BITMAP
000600
001E00
007000
000000
03FFE0
0300E0
0601C0
040180
040300
000700
000E00
001C00
001800
003800
007000
00E000
00C000
018010
038010
070030
0E0060
0FFFE0
000000
000000
ENDCHAR

STARTCHAR jisx0212_2A76
ENCODING 10870
SWIDTH 960 0
DWIDTH 24 0
BBX 24 24 0 -2
BITMAP
00C600
006C00
003800
000000
03FFE0
0300E0
0601C0
040180
040300
000700
000E00
001C00
001800
003800
007000
00E000
00C000
018010
038010
070030
0E0060
0FFFE0
000000
000000
ENDCHAR

STARTCHAR jisx0212_2A77
ENCODING 10871
SWIDTH 960 0
DWIDTH 24 0
BBX 24 24 0 -2
BITMAP
001800
003C00
001800
000000
03FFE0
0300E0
0601C0
040180
040300
000700
000E00
001C00
001800
003800
007000
00E000
00C000
018010
038010
070030
0E0060
0FFFE0
000000
000000
ENDCHAR

STARTCHAR jisx0212_2B21
ENCODING 11041
SWIDTH 960 0
DWIDTH 24 0
BBX 24 24 0 -2
BITMAP
000000
000000
000600
001E00
007000
000000
000000
000000
01FE00
038300
03C180
018180
000380
001F80
00F180
038180
070180
060180
060180
0603A0
0307E0
01FCC0
000000
000000
ENDCHAR

STARTCHAR jisx0212_2B22
ENCODING 11042
SWIDTH 960 0
DWIDTH 24 0
BBX 24 24 0 -2
BITMAP
000000
000000
006000
007800
000E00
000000
000000
000000
01FE00
038300
03C180
018180
000380
001F80
00F180
038180
070180
060180
060180
0603A0
0307E0
01FCC0
000000
000000
ENDCHAR

STARTCHAR jisx0212_2B23
ENCODING 11043
SWIDTH 960 0
DWIDTH 24 0
BBX 24 24 0 -2
BITMAP
000000
000000
00C300
01E780
00C300
000000
000000
000000
01FE00
038300
03C180
018180
000380
001F80
00F180
038180
070180
060180
060180
0603A0
0307E0
01FCC0
000000
000000
ENDCHAR

STARTCHAR jisx0212_2B24
ENCODING 11044
SWIDTH 960 0
DWIDTH 24 0
BBX 24 24 0 -2
BITMAP
000000
000000
003800
006C00
00C600
000000
000000
000000
01FE00
038300
03C180
018180
000380
001F80
00F180
038180
070180
060180
060180
0603A0
0307E0
01FCC0
000000
000000
ENDCHAR

STARTCHAR jisx0212_2B25
ENCODING 11045
SWIDTH 960 0
DWIDTH 24 0
BBX 24 24 0 -2
BITMAP
000000
000000
004200
007E00
003C00
000000
000000
000000
01FE00
038300
03C180
018180
000380
001F80
00F180
038180
070180
060180
060180
0603A0
0307E0
01FCC0
000000
000000
ENDCHAR

STARTCHAR jisx0212_2B26
ENCODING 11046
SWIDTH 960 0
DWIDTH 24 0
BBX 24 24 0 -2
BITMAP
000000
000000
00C600
006C00
003800
000000
000000
000000
01FE00
038300
03C180
018180
000380
001F80
00F180
038180
070180
060180
060180
0603A0
0307E0
01FCC0
000000
000000
ENDCHAR

STARTCHAR jisx0212_2B27
ENCODING 11047
SWIDTH 960 0
DWIDTH 24 0
BBX 24 24 0 -2
BITMAP
000000
000000
000000
00FF00
000000
000000
000000
000000
01FE00
038300
03C180
018180
000380
001F80
00F180
038180
070180
060180
060180
0603A0
0307E0
01FCC0
000000
000000
ENDCHAR

STARTCHAR jisx0212_2B28
ENCODING 11048
SWIDTH 960 0
DWIDTH 24 0
BBX 24 24 0 -2
BITMAP
000000
000000
000000
000000
000000
000000
000000
000000
01FE00
038300
03C180
018180
000380
003F80
01E180
070180
060180
060180
0603A0
0307E0
01FDC0
000100
0001E0
0000E0
ENDCHAR

STARTCHAR jisx0212_2B29
ENCODING 11049
SWIDTH 960 0
DWIDTH 24 0
BBX 24 24 0 -2
BITMAP
000000
000000
001800
002400
002400
001800
000000
000000
01FE00
038300
03C180
018180
000380
001F80
00F180
038180
070180
060180
060180
0603A0
0307E0
01FCC0
000000
000000
ENDCHAR

STARTCHAR jisx0212_2B2A
ENCODING 11050
SWIDTH 960 0
DWIDTH 24 0
BBX 24 24 0 -2
BITMAP
000000
000000
007100
00FF00
008E00
000000
000000
000000
01FE00
038300
03C180
018180
000380
001F80
00F180
038180
070180
060180
060180
0603A0
0307E0
01FCC0
000000
000000
ENDCHAR

STARTCHAR jisx0212_2B2B
ENCODING 11051
SWIDTH 960 0
DWIDTH 24 0
BBX 24 24 0 -2
BITMAP
000000
000000
000C00
003C00
00E000
000000
000000
000000
007C00
01C700
030180
0303C0
0603C0
060180
060000
060000
060000
060040
0300C0
030180
01C700
007C00
000000
000000
ENDCHAR

STARTCHAR jisx0212_2B2C
ENCODING 11052
SWIDTH 960 0
DWIDTH 24 0
BBX 24 24 0 -2
BITMAP
000000
000000
003800
006C00
00C600
000000
000000
000000
007C00
01C700
030180
0303C0
0603C0
060180
060000
060000
060000
060040
0300C0
030180
01C700
007C00
000000
000000
ENDCHAR

STARTCHAR jisx0212_2B2D
ENCODING 11053
SWIDTH 960 0
DWIDTH 24 0
BBX 24 24 0 -2
BITMAP
000000
000000
00C600
006C00
003800
000000
000000
000000
007C00
01C700
030180
0303C0
0603C0
060180
060000
060000
060000
060040
0300C0
030180
01C700
007C00
000000
000000
ENDCHAR

STARTCHAR jisx0212_2B2E
ENCODING 11054
SWIDTH 960 0
DWIDTH 24 0
BBX 24 24 0 -2
BITMAP
000000
000000
000000
000000
000000
000000
000000
000000
007C00
01C700
030180
0303C0
0603C0
060180
060000
060000
060040
0300C0
030180
01C700
007C00
001800
00CC00
007800
ENDCHAR

STARTCHAR jisx0212_2B2F
ENCODING 11055
SWIDTH 960 0
DWIDTH 24 0
BBX 24 24 0 -2
BITMAP
000000
000000
001800
003C00
001800
000000
000000
000000
007C00
01C700
030180
0303C0
0603C0
060180
060000
060000
060000
060040
0300C0
030180
01C700
007C00
000000
000000
ENDCHAR

STARTCHAR jisx0212_2B30
ENCODING 11056
SWIDTH 960 0
DWIDTH 24 0
BBX 24 24 0 -2
BITMAP
00C600
006C00
0038C0
0003C0
0000C0
0000C0
0000C0
0000C0
007CC0
01C7C0
0301C0
0300C0
0600C0
0600C0
0600C0
0600C0
0600C0
0600C0
0300C0
0301C0
01C7C0
007CF0
000000
000000
ENDCHAR

STARTCHAR jisx0212_2B31
ENCODING 11057
SWIDTH 960 0
DWIDTH 24 0
BBX 24 24 0 -2
BITMAP
000000
000000
000C00
003C00
00E000
000000
000000
000000
007C00
01C700
030180
030180
0600C0
0600C0
07FFC0
060000
060000
060040
0300C0
030180
01C700
007C00
000000
000000
ENDCHAR

STARTCHAR jisx0212_2B32
ENCODING 11058
SWIDTH 960 0
DWIDTH 24 0
BBX 24 24 0 -2
BITMAP
000000
000000
00C000
00F000
001C00
000000
000000
000000
007C00
01C700
030180
030180
0600C0
0600C0
07FFC0
060000
060000
060040
0300C0
030180
01C700
007C00
000000
000000
ENDCHAR

STARTCHAR jisx0212_2B33
ENCODING 11059
SWIDTH 960 0
DWIDTH 24 0
BBX 24 24 0 -2
BITMAP
000000
000000
018600
03CF00
018600
000000
000000
000000
007C00
01C700
030180
030180
0600C0
0600C0
07FFC0
060000
060000
060040
0300C0
030180
01C700
007C00
000000
000000
ENDCHAR

STARTCHAR jisx0212_2B34
ENCODING 11060
SWIDTH 960 0
DWIDTH 24 0
BBX 24 24 0 -2
BITMAP
000000
000000
003800
006C00
00C600
000000
000000
000000
007C00
01C700
030180
030180
0600C0
0600C0
07FFC0
060000
060000
060040
0300C0
030180
01C700
007C00
000000
000000
ENDCHAR

STARTCHAR jisx0212_2B35
ENCODING 11061
SWIDTH 960 0
DWIDTH 24 0
BBX 24 24 0 -2
BITMAP
000000
000000
00C600
006C00
003800
000000
000000
000000
007C00
01C700
030180
030180
0600C0
0600C0
07FFC0
060000
060000
060040
0300C0
030180
01C700
007C00
000000
000000
ENDCHAR

STARTCHAR jisx0212_2B36
ENCODING 11062
SWIDTH 960 0
DWIDTH 24 0
BBX 24 24 0 -2
BITMAP
000000
000000
003000
007800
003000
000000
000000
000000
007C00
01C700
030180
030180
0600C0
0600C0
07FFC0
060000
060000
060040
0300C0
030180
01C700
007C00
000000
000000
ENDCHAR

STARTCHAR jisx0212_2B37
ENCODING 11063
SWIDTH 960 0
DWIDTH 24 0
BBX 24 24 0 -2
BITMAP
000000
000000
000000
01FE00
000000
000000
000000
000000
007C00
01C700
030180
030180
0600C0
0600C0
07FFC0
060000
060000
060040
0300C0
030180
01C700
007C00
000000
000000
ENDCHAR

STARTCHAR jisx0212_2B38
ENCODING 11064
SWIDTH 960 0
DWIDTH 24 0
BBX 24 24 0 -2
BITMAP
000000
000000
000000
000000
000000
000000
000000
000000
007C00
01C700
030180
030180
0600C0
07FFC0
060000
060000
060040
0300C0
030180
01C700
007C00
000400
000780
000380
ENDCHAR

STARTCHAR jisx0212_2B39
ENCODING 11065
SWIDTH 960 0
DWIDTH 24 0
BBX 24 24 0 -2
BITMAP
000000
000000
000600
001E00
007000
000000
000000
000000
007EE0
00C330
0181B0
018180
018180
018180
00C300
01FE00
030000
03FF00
01FFC0
0300E0
060060
060060
0381C0
00FF00
ENDCHAR

STARTCHAR jisx0212_2B3A
ENCODING 11066
SWIDTH 960 0
DWIDTH 24 0
BBX 24 24 0 -2
BITMAP
000000
000000
003800
006C00
00C600
000000
000000
000000
007EE0
00C330
0181B0
018180
018180
018180
00C300
01FE00
030000
03FF00
01FFC0
0300E0
060060
060060
0381C0
00FF00
ENDCHAR

STARTCHAR jisx0212_2B3B
ENCODING 11067
SWIDTH 960 0
DWIDTH 24 0
BBX 24 24 0 -2
BITMAP
000000
000000
004200
007E00
003C00
000000
000000
000000
007EE0
00C330
0181B0
018180
018180
018180
00C300
01FE00
030000
03FF00
01FFC0
0300E0
060060
060060
0381C0
00FF00
ENDCHAR

STARTCHAR jisx0212_2B3D
ENCODING 11069
SWIDTH 960 0
DWIDTH 24 0
BBX 24 24 0 -2
BITMAP
000000
000000
001800
003C00
001800
000000
000000
000000
007EE0
00C330
0181B0
018180
018180
018180
00C300
01FE00
030000
03FF00
01FFC0
0300E0
060060
060060
0381C0
00FF00
ENDCHAR

STARTCHAR jisx0212_2B3E
ENCODING 11070
SWIDTH 960 0
DWIDTH 24 0
BBX 24 24 0 -2
BITMAP
001C00
003600
036300
0F0000
030000
030000
030000
030000
033E00
03E380
038180
0300C0
0300C0
0300C0
0300C0
0300C0
0300C0
0300C0
0300C0
0300C0
0300C0
0FC3F0
000000
000000
ENDCHAR

STARTCHAR jisx0212_2B3F
ENCODING 11071
SWIDTH 960 0
DWIDTH 24 0
BBX 24 24 0 -2
BITMAP
000000
000000
000600
001E00
007000
000000
000000
000000
001800
007800
001800
001800
001800
001800
001800
001800
001800
001800
001800
001800
001800
007E00
000000
000000
ENDCHAR

STARTCHAR jisx0212_2B40
ENCODING 11072
SWIDTH 960 0
DWIDTH 24 0
BBX 24 24 0 -2
BITMAP
000000
000000
006000
007800
000E00
000000
000000
000000
001800
007800
001800
001800
001800
001800
001800
001800
001800
001800
001800
001800
001800
007E00
000000
000000
ENDCHAR

STARTCHAR jisx0212_2B41
ENCODING 11073
SWIDTH 960 0
DWIDTH 24 0
BBX 24 24 0 -2
BITMAP
000000
000000
00C300
01E780
00C300
000000
000000
000000
001800
007800
001800
001800
001800
001800
001800
001800
001800
001800
001800
001800
001800
007E00
000000
000000
ENDCHAR

STARTCHAR jisx0212_2B42
ENCODING 11074
SWIDTH 960 0
DWIDTH 24 0
BBX 24 24 0 -2
BITMAP
000000
000000
003800
006C00
00C600
000000
000000
000000
001800
007800
001800
001800
001800
001800
001800
001800
001800
001800
001800
001800
001800
007E00
000000
000000
ENDCHAR

STARTCHAR jisx0212_2B43
ENCODING 11075
SWIDTH 960 0
DWIDTH 24 0
BBX 24 24 0 -2
BITMAP
000000
000000
00C600
006C00
003800
000000
000000
000000
001800
007800
001800
001800
001800
001800
001800
001800
001800
001800
001800
001800
001800
007E00
000000
000000
ENDCHAR

STARTCHAR jisx0212_2B45
ENCODING 11077
SWIDTH 960 0
DWIDTH 24 0
BBX 24 24 0 -2
BITMAP
000000
000000
000000
00FF00
000000
000000
000000
000000
001800
007800
001800
001800
001800
001800
001800
001800
001800
001800
001800
001800
001800
007E00
000000
000000
ENDCHAR

STARTCHAR jisx0212_2B46
ENCODING 11078
SWIDTH 960 0
DWIDTH 24 0
BBX 24 24 0 -2
BITMAP
000000
000000
001800
003C00
001800
000000
000000
000000
001800
007800
001800
001800
001800
001800
001800
001800
001800
001800
001800
001800
007E00
001000
001E00
000E00
ENDCHAR

STARTCHAR jisx0212_2B47
ENCODING 11079
SWIDTH 960 0
DWIDTH 24 0
BBX 24 24 0 -2
BITMAP
000000
000000
007100
00FF00
008E00
000000
000000
000000
001800
007800
001800
001800
001800
001800
001800
001800
001800
001800
001800
001800
001800
007E00
000000
000000
ENDCHAR

STARTCHAR jisx0212_2B48
ENCODING 11080
SWIDTH 960 0
DWIDTH 24 0
BBX 24 24 0 -2
BITMAP
000000
000000
003800
006C00
00C600
000000
000000
000000
000C00
003C00
000C00
000C00
000C00
000C00
000C00
000C00
000C00
000C00
000C00
000C00
018C00
03CC00
019800
00F000
ENDCHAR

STARTCHAR jisx0212_2B49
ENCODING 11081
SWIDTH 960 0
DWIDTH 24 0
BBX 24 24 0 -2
BITMAP
000000
000000
018000
078000
018000
018000
018000
018000
018FC0
018300
018600
018C00
019800
01BC00
01EC00
01C600
018300
018300
018180
07E7E0
001000
001800
00CC00
007800
ENDCHAR

STARTCHAR jisx0212_2B4A
ENCODING 11082
SWIDTH 960 0
DWIDTH 24 0
BBX 24 24 0 -2
BITMAP
000600
001E00
007000
000000
001800
007800
001800
001800
001800
001800
001800
001800
001800
001800
001800
001800
001800
001800
001800
001800
001800
007E00
000000
000000
ENDCHAR

STARTCHAR jisx0212_2B4B
ENCODING 11083
SWIDTH 960 0
DWIDTH 24 0
BBX 24 24 0 -2
BITMAP
00C600
006C00
003800
000000
001800
007800
001800
001800
001800
001800
001800
001800
001800
001800
001800
001800
001800
001800
001800
001800
001800
007E00
000000
000000
ENDCHAR

STARTCHAR jisx0212_2B4C
ENCODING 11084
SWIDTH 960 0
DWIDTH 24 0
BBX 24 24 0 -2
BITMAP
000000
000000
001800
007800
001800
001800
001800
001800
001800
001800
001800
001800
001800
001800
001800
001800
001800
001800
001800
007E00
000800
000C00
006600
003C00
ENDCHAR

STARTCHAR jisx0212_2B4D
ENCODING 11085
SWIDTH 960 0
DWIDTH 24 0
BBX 24 24 0 -2
BITMAP
000000
000000
000600
001E00
007000
000000
000000
000000
033E00
0FE380
038180
0300C0
0300C0
0300C0
0300C0
0300C0
0300C0
0300C0
0300C0
0300C0
0300C0
0FC3F0
000000
000000
ENDCHAR

STARTCHAR jisx0212_2B4E
ENCODING 11086
SWIDTH 960 0
DWIDTH 24 0
BBX 24 24 0 -2
BITMAP
000000
000000
00C600
006C00
003800
000000
000000
000000
033E00
0FE380
038180
0300C0
0300C0
0300C0
0300C0
0300C0
0300C0
0300C0
0300C0
0300C0
0300C0
0FC3F0
000000
000000
ENDCHAR

STARTCHAR jisx0212_2B4F
ENCODING 11087
SWIDTH 960 0
DWIDTH 24 0
BBX 24 24 0 -2
BITMAP
000000
000000
000000
000000
000000
000000
000000
000000
033E00
0FE380
038180
0300C0
0300C0
0300C0
0300C0
0300C0
0300C0
0300C0
0300C0
0300C0
0FD3F0
001800
00CC00
007800
ENDCHAR

STARTCHAR jisx0212_2B50
ENCODING 11088
SWIDTH 960 0
DWIDTH 24 0
BBX 24 24 0 -2
BITMAP
000000
000000
007100
00FF00
008E00
000000
000000
000000
033E00
0FE380
038180
0300C0
0300C0
0300C0
0300C0
0300C0
0300C0
0300C0
0300C0
0300C0
0300C0
0FC3F0
000000
000000
ENDCHAR

STARTCHAR jisx0212_2B51
ENCODING 11089
SWIDTH 960 0
DWIDTH 24 0
BBX 24 24 0 -2
BITMAP
000000
000000
000C00
003C00
00E000
000000
000000
000000
007C00
01C700
030180
030180
0600C0
0600C0
0600C0
0600C0
0600C0
0600C0
030180
030180
01C700
007C00
000000
000000
ENDCHAR

STARTCHAR jisx0212_2B52
ENCODING 11090
SWIDTH 960 0
DWIDTH 24 0
BBX 24 24 0 -2
BITMAP
000000
000000
00C000
00F000
001C00
000000
000000
000000
007C00
01C700
030180
030180
0600C0
0600C0
0600C0
0600C0
0600C0
0600C0
030180
030180
01C700
007C00
000000
000000
ENDCHAR

STARTCHAR jisx0212_2B53
ENCODING 11091
SWIDTH 960 0
DWIDTH 24 0
BBX 24 24 0 -2
BITMAP
000000
000000
018600
03CF00
018600
000000
000000
000000
007C00
01C700
030180
030180
0600C0
0600C0
0600C0
0600C0
0600C0
0600C0
030180
030180
01C700
007C00
000000
000000
ENDCHAR

STARTCHAR jisx0212_2B54
ENCODING 11092
SWIDTH 960 0
DWIDTH 24 0
BBX 24 24 0 -2
BITMAP
000000
000000
003800
006C00
00C600
000000
000000
000000
007C00
01C700
030180
030180
0600C0
0600C0
0600C0
0600C0
0600C0
0600C0
030180
030180
01C700
007C00
000000
000000
ENDCHAR

STARTCHAR jisx0212_2B55
ENCODING 11093
SWIDTH 960 0
DWIDTH 24 0
BBX 24 24 0 -2
BITMAP
000000
000000
00C600
006C00
003800
000000
000000
000000
007C00
01C700
030180
030180
0600C0
0600C0
0600C0
0600C0
0600C0
0600C0
030180
030180
01C700
007C00
000000
000000
ENDCHAR

STARTCHAR jisx0212_2B56
ENCODING 11094
SWIDTH 960 0
DWIDTH 24 0
BBX 24 24 0 -2
BITMAP
000000
000000
006180
01E780
030C00
000000
000000
000000
007C00
01C700
030180
030180
0600C0
0600C0
0600C0
0600C0
0600C0
0600C0
030180
030180
01C700
007C00
000000
000000
ENDCHAR

STARTCHAR jisx0212_2B57
ENCODING 11095
SWIDTH 960 0
DWIDTH 24 0
BBX 24 24 0 -2
BITMAP
000000
000000
000000
01FE00
000000
000000
000000
000000
007C00
01C700
030180
030180
0600C0
0600C0
0600C0
0600C0
0600C0
0600C0
030180
030180
01C700
007C00
000000
000000
ENDCHAR

STARTCHAR jisx0212_2B58
ENCODING 11096
SWIDTH 960 0
DWIDTH 24 0
BBX 24 24 0 -2
BITMAP
000000
000000
00E200
01FE00
011C00
000000
000000
000000
007C00
01C700
030180
030180
0600C0
0600C0
0600C0
0600C0
0600C0
0600C0
030180
030180
01C700
007C00
000000
000000
ENDCHAR

STARTCHAR jisx0212_2B59
ENCODING 11097
SWIDTH 960 0
DWIDTH 24 0
BBX 24 24 0 -2
BITMAP
000000
000000
000600
001E00
007000
000000
000000
000000
006300
01EF80
007B80
007100
006000
006000
006000
006000
006000
006000
006000
006000
006000
01F800
000000
000000
ENDCHAR

STARTCHAR jisx0212_2B5A
ENCODING 11098
SWIDTH 960 0
DWIDTH 24 0
BBX 24 24 0 -2
BITMAP
000000
000000
00C600
006C00
003800
000000
000000
000000
006300
01EF80
007B80
007100
006000
006000
006000
006000
006000
006000
006000
006000
006000
01F800
000000
000000
ENDCHAR

STARTCHAR jisx0212_2B5B
ENCODING 11099
SWIDTH 960 0
DWIDTH 24 0
BBX 24 24 0 -2
BITMAP
000000
000000
000000
000000
000000
000000
000000
000000
006300
01EF80
007B80
007100
006000
006000
006000
006000
006000
006000
006000
006000
01F800
003000
019800
00F000
ENDCHAR

STARTCHAR jisx0212_2B5C
ENCODING 11100
SWIDTH 960 0
DWIDTH 24 0
BBX 24 24 0 -2
BITMAP
000000
000000
000C00
003C00
00E000
000000
000000
000000
00FE80
018380
030180
030080
038080
01F000
007E00
000F80
0201C0
0200C0
0300C0
0300C0
03C180
027F00
000000
000000
ENDCHAR

STARTCHAR jisx0212_2B5D
ENCODING 11101
SWIDTH 960 0
DWIDTH 24 0
BBX 24 24 0 -2
BITMAP
000000
000000
003800
006C00
00C600
000000
000000
000000
00FE80
018380
030180
030080
038080
01F000
007E00
000F80
0201C0
0200C0
0300C0
0300C0
03C180
027F00
000000
000000
ENDCHAR

STARTCHAR jisx0212_2B5E
ENCODING 11102
SWIDTH 960 0
DWIDTH 24 0
BBX 24 24 0 -2
BITMAP
000000
000000
00C600
006C00
003800
000000
000000
000000
00FE80
018380
030180
030080
038080
01F000
007E00
000F80
0201C0
0200C0
0300C0
0300C0
03C180
027F00
000000
000000
ENDCHAR

STARTCHAR jisx0212_2B5F
ENCODING 11103
SWIDTH 960 0
DWIDTH 24 0
BBX 24 24 0 -2
BITMAP
000000
000000
000000
000000
000000
000000
000000
000000
00FE80
018380
030180
030080
038080
01F000
007E00
020F80
0201C0
0300C0
0300C0
03C180
027F00
000C00
006600
003C00
ENDCHAR

STARTCHAR jisx0212_2B60
ENCODING 11104
SWIDTH 960 0
DWIDTH 24 0
BBX 24 24 0 -2
BITMAP
00C600
006C00
003800
000000
001000
003000
003000
003000
003000
00FE00
003000
003000
003000
003000
003000
003000
003000
003000
003080
003180
003B00
001E00
000000
000000
ENDCHAR

STARTCHAR jisx0212_2B61
ENCODING 11105
SWIDTH 960 0
DWIDTH 24 0
BBX 24 24 0 -2
BITMAP
000000
000000
001000
003000
003000
003000
003000
003000
00FE00
003000
003000
003000
003000
003000
003000
003000
003000
003080
003180
003B00
001E00
000600
003300
001E00
ENDCHAR

STARTCHAR jisx0212_2B62
ENCODING 11106
SWIDTH 960 0
DWIDTH 24 0
BBX 24 24 0 -2
BITMAP
000000
000000
000600
001E00
007000
000000
000000
000000
0300C0
0F03C0
0300C0
0300C0
0300C0
0300C0
0300C0
0300C0
0300C0
0300C0
0300C0
0181C0
01C7C0
007CF0
000000
000000
ENDCHAR

STARTCHAR jisx0212_2B63
ENCODING 11107
SWIDTH 960 0
DWIDTH 24 0
BBX 24 24 0 -2
BITMAP
000000
000000
006000
007800
000E00
000000
000000
000000
0300C0
0F03C0
0300C0
0300C0
0300C0
0300C0
0300C0
0300C0
0300C0
0300C0
0300C0
0181C0
01C7C0
007CF0
000000
000000
ENDCHAR

STARTCHAR jisx0212_2B64
ENCODING 11108
SWIDTH 960 0
DWIDTH 24 0
BBX 24 24 0 -2
BITMAP
000000
000000
00C300
01E780
00C300
000000
000000
000000
0300C0
0F03C0
0300C0
0300C0
0300C0
0300C0
0300C0
0300C0
0300C0
0300C0
0300C0
0181C0
01C7C0
007CF0
000000
000000
ENDCHAR

STARTCHAR jisx0212_2B65
ENCODING 11109
SWIDTH 960 0
DWIDTH 24 0
BBX 24 24 0 -2
BITMAP
000000
000000
003800
006C00
00C600
000000
000000
000000
0300C0
0F03C0
0300C0
0300C0
0300C0
0300C0
0300C0
0300C0
0300C0
0300C0
0300C0
0181C0
01C7C0
007CF0
000000
000000
ENDCHAR

STARTCHAR jisx0212_2B66
ENCODING 11110
SWIDTH 960 0
DWIDTH 24 0
BBX 24 24 0 -2
BITMAP
000000
000000
004200
007E00
003C00
000000
000000
000000
0300C0
0F03C0
0300C0
0300C0
0300C0
0300C0
0300C0
0300C0
0300C0
0300C0
0300C0
0181C0
01C7C0
007CF0
000000
000000
ENDCHAR

STARTCHAR jisx0212_2B67
ENCODING 11111
SWIDTH 960 0
DWIDTH 24 0
BBX 24 24 0 -2
BITMAP
000000
000000
00C600
006C00
003800
000000
000000
000000
0300C0
0F03C0
0300C0
0300C0
0300C0
0300C0
0300C0
0300C0
0300C0
0300C0
0300C0
0181C0
01C7C0
007CF0
000000
000000
ENDCHAR

STARTCHAR jisx0212_2B68
ENCODING 11112
SWIDTH 960 0
DWIDTH 24 0
BBX 24 24 0 -2
BITMAP
000000
000000
006180
01E780
030C00
000000
000000
000000
0300C0
0F03C0
0300C0
0300C0
0300C0
0300C0
0300C0
0300C0
0300C0
0300C0
0300C0
0181C0
01C7C0
007CF0
000000
000000
ENDCHAR

STARTCHAR jisx0212_2B69
ENCODING 11113
SWIDTH 960 0
DWIDTH 24 0
BBX 24 24 0 -2
BITMAP
000000
000000
000000
00FF00
000000
000000
000000
000000
0300C0
0F03C0
0300C0
0300C0
0300C0
0300C0
0300C0
0300C0
0300C0
0300C0
0300C0
0181C0
01C7C0
007CF0
000000
000000
ENDCHAR

STARTCHAR jisx0212_2B6A
ENCODING 11114
SWIDTH 960 0
DWIDTH 24 0
BBX 24 24 0 -2
BITMAP
000000
000000
000000
000000
000000
000000
000000
000000
0300C0
0F03C0
0300C0
0300C0
0300C0
0300C0
0300C0
0300C0
0300C0
0300C0
0181C0
01C7C0
007CF0
000080
0000F0
000070
ENDCHAR

STARTCHAR jisx0212_2B6B
ENCODING 11115
SWIDTH 960 0
DWIDTH 24 0
BBX 24 24 0 -2
BITMAP
000000
000000
001800
002400
002400
001800
000000
000000
0300C0
0F03C0
0300C0
0300C0
0300C0
0300C0
0300C0
0300C0
0300C0
0300C0
0300C0
0181C0
01C7C0
007CF0
000000
000000
ENDCHAR

STARTCHAR jisx0212_2B6C
ENCODING 11116
SWIDTH 960 0
DWIDTH 24 0
BBX 24 24 0 -2
BITMAP
000000
000000
007100
00FF00
008E00
000000
000000
000000
0300C0
0F03C0
0300C0
0300C0
0300C0
0300C0
0300C0
0300C0
0300C0
0300C0
0300C0
0181C0
01C7C0
007CF0
000000
000000
ENDCHAR

STARTCHAR jisx0212_2B6D
ENCODING 11117
SWIDTH 960 0
DWIDTH 24 0
BBX 24 24 0 -2
BITMAP
000600
001E00
007000
000000
00C300
01E780
00C300
000000
0300C0
0F03C0
0300C0
0300C0
0300C0
0300C0
0300C0
0300C0
0300C0
0300C0
0300C0
0181C0
01C7C0
007CF0
000000
000000
ENDCHAR

STARTCHAR jisx0212_2B6E
ENCODING 11118
SWIDTH 960 0
DWIDTH 24 0
BBX 24 24 0 -2
BITMAP
006000
007800
000E00
000000
00C300
01E780
00C300
000000
0300C0
0F03C0
0300C0
0300C0
0300C0
0300C0
0300C0
0300C0
0300C0
0300C0
0300C0
0181C0
01C7C0
007CF0
000000
000000
ENDCHAR

STARTCHAR jisx0212_2B6F
ENCODING 11119
SWIDTH 960 0
DWIDTH 24 0
BBX 24 24 0 -2
BITMAP
00C600
006C00
003800
00C300
01E780
00C300
000000
000000
0300C0
0F03C0
0300C0
0300C0
0300C0
0300C0
0300C0
0300C0
0300C0
0300C0
0300C0
0181C0
01C7C0
007CF0
000000
000000
ENDCHAR

STARTCHAR jisx0212_2B70
ENCODING 11120
SWIDTH 960 0
DWIDTH 24 0
BBX 24 24 0 -2
BITMAP
00FF00
000000
000000
00C300
01E780
00C300
000000
000000
0300C0
0F03C0
0300C0
0300C0
0300C0
0300C0
0300C0
0300C0
0300C0
0300C0
0300C0
0181C0
01C7C0
007CF0
000000
000000
ENDCHAR

STARTCHAR jisx0212_2B71
ENCODING 11121
SWIDTH 960 0
DWIDTH 24 0
BBX 24 24 0 -2
BITMAP
000000
000000
003800
006C00
00C600
000000
000000
000000
7E187C
181810
183830
0C2C20
0C2C20
0C6C60
064640
064640
06C6C0
038380
038380
038380
010100
010100
000000
000000
ENDCHAR

STARTCHAR jisx0212_2B72
ENCODING 11122
SWIDTH 960 0
DWIDTH 24 0
BBX 24 24 0 -2
BITMAP
000000
000000
000600
001E00
007000
000000
000000
000000
07E1F0
018040
0180C0
00C080
00C180
006100
006300
003200
003600
001C00
001C00
000800
011800
039000
03B000
01E000
ENDCHAR

STARTCHAR jisx0212_2B73
ENCODING 11123
SWIDTH 960 0
DWIDTH 24 0
BBX 24 24 0 -2
BITMAP
000000
000000
006180
00F3C0
006180
000000
000000
000000
07E1F0
018040
0180C0
00C080
00C180
006100
006300
003200
003600
001C00
001C00
000800
011800
039000
03B000
01E000
ENDCHAR

STARTCHAR jisx0212_2B74
ENCODING 11124
SWIDTH 960 0
DWIDTH 24 0
BBX 24 24 0 -2
BITMAP
000000
000000
001C00
003600
006300
000000
000000
000000
07E1F0
018040
0180C0
00C080
00C180
006100
006300
003200
003600
001C00
001C00
000800
011800
039000
03B000
01E000
ENDCHAR

STARTCHAR jisx0212_2B75
ENCODING 11125
SWIDTH 960 0
DWIDTH 24 0
BBX 24 24 0 -2
BITMAP
000000
000000
000600
001E00
007000
000000
000000
000000
01FFC0
0181C0
010380
010700
000600
000C00
001C00
003800
003000
006000
00E040
01C040
0380C0
03FFC0
000000
000000
ENDCHAR

STARTCHAR jisx0212_2B76
ENCODING 11126
SWIDTH 960 0
DWIDTH 24 0
BBX 24 24 0 -2
BITMAP
000000
000000
00C600
006C00
003800
000000
000000
000000
01FFC0
0181C0
010380
010700
000600
000C00
001C00
003800
003000
006000
00E040
01C040
0380C0
03FFC0
000000
000000
ENDCHAR

STARTCHAR jisx0212_2B77
ENCODING 11127
SWIDTH 960 0
DWIDTH 24 0
BBX 24 24 0 -2
BITMAP
000000
000000
001800
003C00
001800
000000
000000
000000
01FFC0
0181C0
010380
010700
000600
000C00
001C00
003800
003000
006000
00E040
01C040
0380C0
03FFC0
000000
000000
ENDCHAR

STARTCHAR jisx0212_3021
ENCODING 12321
SWIDTH 960 0
DWIDTH 24 0
BBX 24 24 0 -2
BITMAP
000004
00000E
FFFFFF
00C000
00C000
01C000
018000
018000
038020
030070
03FFF8
070038
060030
060030
000030
000030
000030
000030
000070
000060
0038E0
000FC0
000380
000200
ENDCHAR

STARTCHAR jisx0212_3022
ENCODING 12322
SWIDTH 960 0
DWIDTH 24 0
BBX 24 24 0 -2
BITMAP
000000
001800
001E00
001800
001800
001800
001800
001800
001800
001800
001800
001800
001800
001800
001800
001800
001800
001800
001800
001800
001804
00180E
7FFFFF
000000
ENDCHAR

STARTCHAR jisx0212_3023
ENCODING 12323
SWIDTH 960 0
DWIDTH 24 0
BBX 24 24 0 -2
BITMAP
000000
000004
00000E
7FFFFF
001800
001800
001800
001800
001800
001800
001800
001800
001800
001800
001800
001800
001800
001800
001800
001800
001800
001800
001800
001800
ENDCHAR

STARTCHAR jisx0212_3024
ENCODING 12324
SWIDTH 960 0
DWIDTH 24 0
BBX 24 24 0 -2
BITMAP
000000
000004
00000E
7FFFFF
018180
018180
018180
018180
018180
018180
018180
018180
018180
038180
030180
030180
030180
060180
060180
0C0180
180180
300180
600180
C00180
ENDCHAR

STARTCHAR jisx0212_3025
ENCODING 12325
SWIDTH 960 0
DWIDTH 24 0
BBX 24 24 0 -2
BITMAP
000010
000038
3FFFFC
00001C
000C18
000F18
000C18
0C1C18
071818
01F818
00F018
007818
00FC18
00CE18
018718
030718
060238
0C0030
1807F0
3000E0
000084
00000E
FFFFFF
000000
ENDCHAR

STARTCHAR jisx0212_3026
ENCODING 12326
SWIDTH 960 0
DWIDTH 24 0
BBX 24 24 0 -2
BITMAP
000008
00001C
7FFFFE
001800
001800
001820
001870
1FFFF8
001800
001800
001804
00180E
FFFFFF
007000
006000
00E300
00C180
0180E0
018070
030038
0207FC
7FFC0E
3F800E
200004
ENDCHAR

STARTCHAR jisx0212_3027
ENCODING 12327
SWIDTH 960 0
DWIDTH 24 0
BBX 24 24 0 -2
BITMAP
000004
00000E
FFFFFF
00C600
00C600
00C600
20C608
30C61C
3FC7FE
30C60E
30C60C
30C60C
30C60C
30C60C
3FC7FC
30C60C
30C60C
01C600
018600
038600
070600
0E0600
380600
E00600
ENDCHAR

STARTCHAR jisx0212_3028
ENCODING 12328
SWIDTH 960 0
DWIDTH 24 0
BBX 24 24 0 -2
BITMAP
000004
00000E
FFFFFF
018300
018300
418304
61830E
7FFFFF
618307
618306
63C306
636786
6336C6
663666
662C76
6C0C36
681836
703026
606006
600006
600006
6000FE
60001C
600008
ENDCHAR

STARTCHAR jisx0212_3029
ENCODING 12329
SWIDTH 960 0
DWIDTH 24 0
BBX 24 24 0 -2
BITMAP
001800
001E00
001800
001800
001800
001800
001800
001800
001800
001800
001800
001800
001800
001800
001800
001800
001800
001800
001800
001800
001800
001800
001800
001800
ENDCHAR

STARTCHAR jisx0212_302A
ENCODING 12330
SWIDTH 960 0
DWIDTH 24 0
BBX 24 24 0 -2
BITMAP
0000C0
0600F0
0381C0
01C180
00E300
00E600
004400
001800
001E00
001800
001800
001800
001800
001800
001800
001800
001800
001800
001800
001800
001800
001800
001800
001800
ENDCHAR

STARTCHAR jisx0212_302B
ENCODING 12331
SWIDTH 960 0
DWIDTH 24 0
BBX 24 24 0 -2
BITMAP
000020
000070
FFFFF8
000038
018030
01E030
018030
018430
018E30
3FFF30
018030
018030
018030
018230
018738
7FFF98
018018
018019
01801D
01800D
01800F
018006
018007
018003
ENDCHAR

STARTCHAR jisx0212_302C
ENCODING 12332
SWIDTH 960 0
DWIDTH 24 0
BBX 24 24 0 -2
BITMAP
001800
001E00
001830
0019FC
001FE0
01FE00
3F9800
001800
001830
0019FC
001FE0
01FE00
3F9800
001800
00180C
0018FF
001FF8
03FF00
FF1800
001800
001800
001800
001800
001800
ENDCHAR

STARTCHAR jisx0212_302D
ENCODING 12333
SWIDTH 960 0
DWIDTH 24 0
BBX 24 24 0 -2
BITMAP
001800
001E00
001800
001808
00181C
7FFFFE
001800
001800
001800
001810
001838
3FFFFC
001800
001800
001800
001804
00180E
FFFFFF
001800
001800
001800
001800
001800
001800
ENDCHAR

STARTCHAR jisx0212_302E
ENCODING 12334
SWIDTH 960 0
DWIDTH 24 0
BBX 24 24 0 -2
BITMAP
004400
047740
076670
066660
066660
066660
066666
FFFFFF
0301C0
018180
01C180
00C310
008238
3FFFFC
001800
001800
001804
00180E
FFFFFF
001800
001800
001800
001800
001800
ENDCHAR

STARTCHAR jisx0212_302F
ENCODING 12335
SWIDTH 960 0
DWIDTH 24 0
BBX 24 24 0 -2
BITMAP
000000
000000
020000
020000
060000
050000
0D0000
0D0000
1D8000
388000
18C000
086000
006000
003000
003800
001C00
000F00
000780
0003E0
0000F8
00007F
00001E
000004
000000
ENDCHAR

STARTCHAR jisx0212_3030
ENCODING 12336
SWIDTH 960 0
DWIDTH 24 0
BBX 24 24 0 -2
BITMAP
000200
000700
0FFF80
000300
000200
000200
000200
000200
000300
000300
000100
000180
000180
0001C0
0000C0
0000E0
000070
000070
000038
00003C
00001E
00000F
000004
000000
ENDCHAR

STARTCHAR jisx0212_3031
ENCODING 12337
SWIDTH 960 0
DWIDTH 24 0
BBX 24 24 0 -2
BITMAP
000180
0001E0
000180
000180
000380
000300
0C0300
070700
01E600
007E00
001C00
000F00
001F80
0039E0
0030F0
007078
20E038
21C010
238000
270000
3E0000
7C0000
700000
000000
ENDCHAR

STARTCHAR jisx0212_3032
ENCODING 12338
SWIDTH 960 0
DWIDTH 24 0
BBX 24 24 0 -2
BITMAP
000020
0001F0
000FF8
00FF80
0FF800
FC6000
006000
006000
006000
006004
00600E
006FFF
FFF800
006000
006000
006000
006000
006002
006002
006006
006004
00700E
003FFF
001FFE
ENDCHAR

STARTCHAR jisx0212_3033
ENCODING 12339
SWIDTH 960 0
DWIDTH 24 0
BBX 24 24 0 -2
BITMAP
000040
0007E0
00FFF0
3FF800
001800
001800
021818
07983E
071878
0E1CE0
1C1DC0
381F00
601A00
C11B00
03D980
0399C0
0718E0
0E1878
1C183C
38181F
60180E
C01804
001800
001800
ENDCHAR

STARTCHAR jisx0212_3034
ENCODING 12340
SWIDTH 960 0
DWIDTH 24 0
BBX 24 24 0 -2
BITMAP
180000
1E0000
180000
180000
180000
180000
180000
180000
180000
180000
180000
180000
180000
180000
180000
180000
180008
180008
180018
180010
1C0038
0FFFFC
07FFF8
000000
ENDCHAR

STARTCHAR jisx0212_3035
ENCODING 12341
SWIDTH 960 0
DWIDTH 24 0
BBX 24 24 0 -2
BITMAP
060000
078000
060000
060000
060020
060070
0601F8
060F38
067830
07C030
3E0030
E60030
060030
060070
060060
060060
0607E0
0601C2
060102
060006
060004
07000E
03FFFF
01FFFE
ENDCHAR

STARTCHAR jisx0212_3036
ENCODING 12342
SWIDTH 960 0
DWIDTH 24 0
BBX 24 24 0 -2
BITMAP
030600
03C780
030600
070600
060600
060600
0C0600
8C0600
D8C600
70F600
31C600
398600
198600
130600
030600
060600
068600
0CC602
0C6602
186606
13F604
FE360E
7037FF
4023FE
ENDCHAR

STARTCHAR jisx0212_3037
ENCODING 12343
SWIDTH 960 0
DWIDTH 24 0
BBX 24 24 0 -2
BITMAP
060180
0781E0
060180
0E0180
0C0180
0CC180
186180
183180
11F980
FF1D80
780D80
400980
202180
307180
3FF980
303980
303180
303182
303182
303182
303186
3FF186
3031FF
3030FE
ENDCHAR

STARTCHAR jisx0212_3038
ENCODING 12344
SWIDTH 960 0
DWIDTH 24 0
BBX 24 24 0 -2
BITMAP
060180
0781E0
060180
060180
061180
063980
07FD80
060180
060180
060180
060180
462180
667180
7FF980
603980
603180
603180
603182
603182
603182
603186
7FF186
6031FF
6030FE
ENDCHAR

STARTCHAR jisx0212_3039
ENCODING 12345
SWIDTH 960 0
DWIDTH 24 0
BBX 24 24 0 -2
BITMAP
0E1018
0C18FE
0CDFE0
FFF804
0C180E
0C1FFF
0DD860
FF1860
7C1860
4C3060
0C3060
0C6060
7CC060
198860
001C00
7FFE00
003800
007002
00E002
01C006
038004
07000E
07FFFF
03FFFE
ENDCHAR

STARTCHAR jisx0212_303A
ENCODING 12346
SWIDTH 960 0
DWIDTH 24 0
BBX 24 24 0 -2
BITMAP
040300
0703C0
060300
066300
7FF300
21C300
318300
118300
1B0300
1B2300
127300
FFFB00
060300
060300
060300
066300
7FF300
060302
060302
060306
060304
06030E
0603FF
0601FE
ENDCHAR

STARTCHAR jisx0212_303B
ENCODING 12347
SWIDTH 960 0
DWIDTH 24 0
BBX 24 24 0 -2
BITMAP
070300
0603C0
063300
FFFB00
060300
060300
466300
7FF300
607300
606300
7FE300
606300
606300
606300
7FE300
666300
060300
063302
FFFB02
060306
060304
06030E
0603FF
0601FE
ENDCHAR

STARTCHAR jisx0212_303C
ENCODING 12348
SWIDTH 960 0
DWIDTH 24 0
BBX 24 24 0 -2
BITMAP
003180
21F9E0
3F8180
333180
319980
618D80
650D80
C70180
8E8180
6CE180
39C180
198180
136180
063180
FFF980
7B1980
431180
3B6182
333182
333982
631986
631986
C311FF
8300FE
ENDCHAR

STARTCHAR jisx0212_303D
ENCODING 12349
SWIDTH 960 0
DWIDTH 24 0
BBX 24 24 0 -2
BITMAP
000010
000038
3FFFFC
000000
000000
000000
000000
000004
00000E
FFFFFF
001800
001800
001800
001800
001800
001800
001800
001800
001800
001800
001800
03F800
007000
002000
ENDCHAR

STARTCHAR jisx0212_303E
ENCODING 12350
SWIDTH 960 0
DWIDTH 24 0
BBX 24 24 0 -2
BITMAP
000020
000070
1FFFF8
000000
000000
000000
000000
000008
00001C
7FFFFE
000000
000000
000000
000020
000070
1FFFF8
000000
000000
000000
000000
000004
00000E
FFFFFF
000000
ENDCHAR

STARTCHAR jisx0212_303F
ENCODING 12351
SWIDTH 960 0
DWIDTH 24 0
BBX 24 24 0 -2
BITMAP
001800
001E00
30180C
3C180F
30180C
30180C
30180C
30180C
30180C
3FFFFC
30000C
30000C
000000
000020
000070
1FFFF8
000000
000000
000000
000000
000004
00000E
FFFFFF
000000
ENDCHAR

STARTCHAR jisx0212_3040
ENCODING 12352
SWIDTH 960 0
DWIDTH 24 0
BBX 24 24 0 -2
BITMAP
003000
003C00
007000
006300
00C1C0
0180E0
3FFFF0
1FE038
140098
0700E0
0E01C0
0C0198
19830C
10C206
FFEFFF
786783
404422
000070
1FFFF8
000000
000008
00001C
7FFFFE
000000
ENDCHAR

STARTCHAR jisx0212_3041
ENCODING 12353
SWIDTH 960 0
DWIDTH 24 0
BBX 24 24 0 -2
BITMAP
001C00
001804
00180E
FFFFFF
000000
080030
0FFFF8
0C0030
0C0030
0C0030
0FFFF0
0C0030
200008
30001C
3FFFFE
30000E
30000C
30000C
3FFFFC
30000C
30000C
30000C
3FFFFC
30000C
ENDCHAR

STARTCHAR jisx0212_3042
ENCODING 12354
SWIDTH 960 0
DWIDTH 24 0
BBX 24 24 0 -2
BITMAP
001C00
001806
FFFFFF
020000
17FF18
1C837C
18BB18
1E8378
18BB18
1EAB78
18BB18
18831A
3FFFFF
600003
E40066
C7FFF4
060060
07FFE0
060060
07FFE0
060062
060067
FFFFFF
000000
ENDCHAR

STARTCHAR jisx0212_3043
ENCODING 12355
SWIDTH 960 0
DWIDTH 24 0
BBX 24 24 0 -2
BITMAP
0C0000
0F0004
0C000E
0DFFFF
1C0180
180180
180180
380180
380180
380180
780180
580180
D80180
980180
180180
180180
180180
180180
180180
180180
180180
183F80
180700
180200
ENDCHAR

STARTCHAR jisx0212_3044
ENCODING 12356
SWIDTH 960 0
DWIDTH 24 0
BBX 24 24 0 -2
BITMAP
003000
003C00
007800
00EC00
00C600
018300
0301C0
0600F0
0C187C
381E3F
60180E
C01804
001800
001808
00181C
7FFFFE
001800
001800
001800
001800
001800
001800
001800
001800
ENDCHAR

STARTCHAR jisx0212_3045
ENCODING 12357
SWIDTH 960 0
DWIDTH 24 0
BBX 24 24 0 -2
BITMAP
003000
003C00
007800
00EC00
00C600
018300
0301C0
0600F0
0C007C
38183F
601E0E
C01804
001800
181818
1E181E
181818
181818
181818
181818
181818
181818
1FFFF8
180018
180018
ENDCHAR

STARTCHAR jisx0212_3046
ENCODING 12358
SWIDTH 960 0
DWIDTH 24 0
BBX 24 24 0 -2
BITMAP
0C0010
0F0078
0C03FC
0C1FC0
1DFC00
180C00
180C00
380C00
380C00
380C04
780C0E
580FFF
DBFC00
980C00
180C00
180C00
180C02
180C02
180C06
180C04
180C0E
180FFF
1807FE
180000
ENDCHAR

STARTCHAR jisx0212_3047
ENCODING 12359
SWIDTH 960 0
DWIDTH 24 0
BBX 24 24 0 -2
BITMAP
0C0008
0F001C
0CFFFE
0C0300
1C0300
180300
180300
380300
380300
380304
78030E
59FFFF
D80300
980300
180300
180300
180300
180300
180300
180300
180300
180300
180300
180300
ENDCHAR

STARTCHAR jisx0212_3048
ENCODING 12360
SWIDTH 960 0
DWIDTH 24 0
BBX 24 24 0 -2
BITMAP
0C1800
0F1E00
0C1800
0C3804
1C300E
187FFF
186000
38C000
398080
3B01C0
7AFFE0
580180
D80380
980700
180600
180E00
181C00
181802
183802
183006
187004
18600E
187FFF
183FFE
ENDCHAR

STARTCHAR jisx0212_3049
ENCODING 12361
SWIDTH 960 0
DWIDTH 24 0
BBX 24 24 0 -2
BITMAP
0C1800
0F1E00
0C1800
0C3804
1C300E
183FFF
186007
386006
38C006
38C006
799806
5B0C06
DA0606
980706
180386
180386
180106
180006
18000E
18000C
18001C
1803F8
180070
180040
ENDCHAR

STARTCHAR jisx0212_304A
ENCODING 12362
SWIDTH 960 0
DWIDTH 24 0
BBX 24 24 0 -2
BITMAP
060000
078000
060008
0E001C
0DFFFE
0C0000
1C0000
180000
380000
380000
780010
780038
D8FFFC
980000
180000
180000
180000
180000
180000
180004
18000E
1BFFFF
180000
180000
ENDCHAR

STARTCHAR jisx0212_304B
ENCODING 12363
SWIDTH 960 0
DWIDTH 24 0
BBX 24 24 0 -2
BITMAP
060300
0783C0
060300
0E0300
0C0300
0C6360
1C7B30
186318
38630C
38E306
78C307
78C303
D98313
99831E
1B0338
1A3F30
180670
1804E0
1801C0
180780
180F00
183C00
18F000
1B8000
ENDCHAR

STARTCHAR jisx0212_304C
ENCODING 12364
SWIDTH 960 0
DWIDTH 24 0
BBX 24 24 0 -2
BITMAP
060780
078700
060F80
0E0C80
0C1CC0
0C3860
1C3070
186038
38C01E
3980CF
7B3FE6
7E0002
D80000
980018
19FFFC
180018
180038
180030
180070
180060
1800E0
1800C0
1801C0
180180
ENDCHAR

STARTCHAR jisx0212_304D
ENCODING 12365
SWIDTH 960 0
DWIDTH 24 0
BBX 24 24 0 -2
BITMAP
0C60C0
0F78F0
0C60C0
0C60C0
1C60C0
1860C2
1860C7
3860CE
3866DC
387FF0
7860C0
5860C0
D860C0
9860C0
1860C0
1860C0
1860C0
1860C2
1860C2
1866C2
187CC6
1BF0C6
19C0FF
19007E
ENDCHAR

STARTCHAR jisx0212_304E
ENCODING 12366
SWIDTH 960 0
DWIDTH 24 0
BBX 24 24 0 -2
BITMAP
0C3000
0F3C00
0C3008
0C701C
1C7FFE
186300
18C300
38C300
398300
3B0300
7A0300
580304
D8030E
9BFFFF
180300
180300
180300
180300
180300
180300
180300
180300
180300
180300
ENDCHAR

STARTCHAR jisx0212_304F
ENCODING 12367
SWIDTH 960 0
DWIDTH 24 0
BBX 24 24 0 -2
BITMAP
0C00C0
0F3FE0
0C0080
0C20C0
1C3840
187060
186030
38E018
38C01E
39800F
7B0036
5E7FFA
D81830
981830
181830
181830
183830
183030
183030
186070
186060
18C7E0
1981C0
1B0100
ENDCHAR

STARTCHAR jisx0212_3050
ENCODING 12368
SWIDTH 960 0
DWIDTH 24 0
BBX 24 24 0 -2
BITMAP
0E0004
0C000E
0DFFFF
0C3000
1C3000
183000
183020
383070
387FF8
386038
786030
586030
D86030
98E070
18C060
18FFE0
18C060
18C060
1800E0
1800C0
1800C2
1800C7
1BFFFF
180000
ENDCHAR

STARTCHAR jisx0212_3051
ENCODING 12369
SWIDTH 960 0
DWIDTH 24 0
BBX 24 24 0 -2
BITMAP
0C0600
0F0780
0C0600
0C0604
1C060E
1BFFFF
181800
381E00
381800
381810
781838
581FFC
D8181C
981818
183818
183018
183018
183018
186018
186018
18C038
1987F0
1B00E0
1C0080
ENDCHAR

STARTCHAR jisx0212_3052
ENCODING 12370
SWIDTH 960 0
DWIDTH 24 0
BBX 24 24 0 -2
BITMAP
0C0060
0F0FF0
0C0040
0C6040
1C7860
186020
18E030
38C038
38C01C
398C1E
798F0F
5B0C04
DA0C00
981C00
181800
181860
181830
183018
18300C
1821FE
1BFF87
19F807
190002
180000
ENDCHAR

STARTCHAR jisx0212_3053
ENCODING 12371
SWIDTH 960 0
DWIDTH 24 0
BBX 24 24 0 -2
BITMAP
0C0300
0F03C0
0C0300
0C0304
1C030E
1BFFFF
180300
380300
388308
38C31C
78FFFE
58C30E
D8C30C
98C30C
18C30C
18C30C
18C30C
18C30C
18C37C
18C318
18C310
180300
180300
180300
ENDCHAR

STARTCHAR jisx0212_3054
ENCODING 12372
SWIDTH 960 0
DWIDTH 24 0
BBX 24 24 0 -2
BITMAP
0C0000
0F0018
0CFFFC
0C003E
1C0078
1830E0
181DC0
380F00
380700
380306
7BFFFF
580307
D8030E
98030C
180318
180310
180300
180300
180300
180300
180300
187F00
180E00
180400
ENDCHAR

STARTCHAR jisx0212_3055
ENCODING 12373
SWIDTH 960 0
DWIDTH 24 0
BBX 24 24 0 -2
BITMAP
0C0E00
0F0780
0C01C0
0C00E0
1C0060
181800
181E00
381800
381800
381800
781810
589818
D8980C
98980E
199806
199807
1B9823
1B1823
1F1822
1A1860
181860
181FF0
180FE0
180000
ENDCHAR

STARTCHAR jisx0212_3056
ENCODING 12374
SWIDTH 960 0
DWIDTH 24 0
BBX 24 24 0 -2
BITMAP
0E0060
0DFFF0
0C3070
0C3060
1C3060
183060
1830E0
3830C0
3830D8
383FFC
78741C
586418
D86438
986630
186270
18C360
18C1E0
18C1C0
1983E0
198670
1B1C3C
1A381F
1CE00E
198004
ENDCHAR

STARTCHAR jisx0212_3057
ENCODING 12375
SWIDTH 960 0
DWIDTH 24 0
BBX 24 24 0 -2
BITMAP
0E8004
0CC00E
0CFFFF
0CC000
1CC000
18C000
18C810
38CC38
38CFFC
38CC1C
78CC18
58CC18
D8CC18
98CC18
18CC18
18CCF8
19CC30
198C22
198C02
198C06
1B0C06
1B0FFF
1A07FE
1C0000
ENDCHAR

STARTCHAR jisx0212_3058
ENCODING 12376
SWIDTH 960 0
DWIDTH 24 0
BBX 24 24 0 -2
BITMAP
0C0008
0F203C
0C31FE
0C3FC0
1C3000
183000
183000
383004
38300E
383FFF
783030
583030
D83030
983030
183030
183030
187030
186030
186030
186030
18C030
18C030
198030
1B0030
ENDCHAR

STARTCHAR jisx0212_3059
ENCODING 12377
SWIDTH 960 0
DWIDTH 24 0
BBX 24 24 0 -2
BITMAP
0C0600
0F0780
0C0600
0C0600
1C0608
18061C
19FFFE
380600
380600
380600
780604
58060E
DBFFFF
980600
180F00
180D00
180D80
1818C0
1818E0
183070
18603C
18C01F
1B800E
1E0004
ENDCHAR

STARTCHAR jisx0212_305A
ENCODING 12378
SWIDTH 960 0
DWIDTH 24 0
BBX 24 24 0 -2
BITMAP
0C1800
0F1E00
0C1800
0C1804
1C180E
1BFFFF
181800
381800
381800
381830
781FF8
58383C
D83C30
983430
183670
187260
1863E0
1861C0
18C1C0
18C3E0
198678
1B1C3E
1E701F
19C004
ENDCHAR

STARTCHAR jisx0212_305B
ENCODING 12379
SWIDTH 960 0
DWIDTH 24 0
BBX 24 24 0 -2
BITMAP
003000
003C00
007800
00EC00
00C600
018300
0301C0
0600F0
0C007C
38003F
63030E
C3C3C4
030300
030300
030300
070380
078780
06C6C0
0C6660
0C6C70
184C38
30181E
60700F
C1C004
ENDCHAR

STARTCHAR jisx0212_305C
ENCODING 12380
SWIDTH 960 0
DWIDTH 24 0
BBX 24 24 0 -2
BITMAP
0C0600
0F0780
0C0600
0C0600
1C0600
18060C
18460F
38461C
384618
38C630
78C660
59C6C0
D98F00
998D00
180D00
181D80
181880
1838C0
183060
186070
18C03C
19801F
1B000E
1C0004
ENDCHAR

STARTCHAR jisx0212_305D
ENCODING 12381
SWIDTH 960 0
DWIDTH 24 0
BBX 24 24 0 -2
BITMAP
0C6000
0F7800
0C600C
0C67FE
1C610E
18CD0C
1BFF0C
38CD0C
38CD8C
38CC8C
79CC9C
598C98
D99CD8
999858
199878
1BD830
1B3070
1B3878
186CD8
186D9C
18C30E
19860F
1B1C06
1A3002
ENDCHAR

STARTCHAR jisx0212_305E
ENCODING 12382
SWIDTH 960 0
DWIDTH 24 0
BBX 24 24 0 -2
BITMAP
0C0780
0F0700
0C0F80
0C0C80
1C1CC0
183860
183070
386038
38C21E
39838F
7B0306
5E4302
D87320
986330
186318
18E30C
18C30E
18C306
198307
198307
1B0302
1A3F00
180E00
180400
ENDCHAR

STARTCHAR jisx0212_305F
ENCODING 12383
SWIDTH 960 0
DWIDTH 24 0
BBX 24 24 0 -2
BITMAP
0C3000
0F3C00
0C3000
0C7000
1C6006
187FFF
18C307
38C30C
398308
398310
7B6300
5A7B20
D86330
986318
18E30C
18C30E
18C306
198307
198307
1B0302
1A0300
187F00
180E00
180400
ENDCHAR

STARTCHAR jisx0212_3060
ENCODING 12384
SWIDTH 960 0
DWIDTH 24 0
BBX 24 24 0 -2
BITMAP
0E0420
0C8738
0CE630
0CC630
1CC630
18C630
18C632
38C637
3BFFFF
38C630
78C630
58C630
D8C630
98C630
18C630
18C630
18C7F0
18C630
18C630
18C000
18C002
18C007
18FFFF
18C000
ENDCHAR

STARTCHAR jisx0212_3061
ENCODING 12385
SWIDTH 960 0
DWIDTH 24 0
BBX 24 24 0 -2
BITMAP
080000
0E8004
0CC00E
0CFFFF
1CCCC7
18CCC6
18CCC6
38CCC6
38CCC6
38CCC6
78CCC6
58CCC6
D8CCC6
98CCC6
18D8FE
18D87E
18F006
18E006
18C006
18C006
18C006
18FFFE
18C006
18C006
ENDCHAR

STARTCHAR jisx0212_3062
ENCODING 12386
SWIDTH 960 0
DWIDTH 24 0
BBX 24 24 0 -2
BITMAP
0C0300
0F03C0
0C0300
0C0300
1C0300
188304
18C30E
38FFFF
38C307
38C306
78C306
58C306
D8C306
98C306
18FFFE
18C306
18C306
18C306
18C306
18C306
18C306
18FFFE
18C006
18C006
ENDCHAR

STARTCHAR jisx0212_3063
ENCODING 12387
SWIDTH 960 0
DWIDTH 24 0
BBX 24 24 0 -2
BITMAP
0C4010
0F6038
0C7FFC
0C601C
1C6018
186018
186018
386018
387FF8
386018
786018
586018
D86018
986018
186018
187FF8
186018
186018
186018
186018
186018
18601B
1BFFFF
180000
ENDCHAR

STARTCHAR jisx0212_3064
ENCODING 12388
SWIDTH 960 0
DWIDTH 24 0
BBX 24 24 0 -2
BITMAP
0C0008
0F001C
0CFFFE
0C0300
1C6320
187B30
186318
38631C
38630E
38C30E
78C306
588304
D98300
990304
18030E
1BFFFF
180300
180300
180300
180300
180300
180300
180300
180300
ENDCHAR

STARTCHAR jisx0212_3065
ENCODING 12389
SWIDTH 960 0
DWIDTH 24 0
BBX 24 24 0 -2
BITMAP
0E0004
0C000E
0DFFFF
0C0300
1C03C0
180700
180600
380F80
380F00
381F60
783B38
58331C
D8630E
98C307
198307
1B0302
180300
180300
180300
180300
180304
18000E
1BFFFF
180000
ENDCHAR

STARTCHAR jisx0212_3066
ENCODING 12390
SWIDTH 960 0
DWIDTH 24 0
BBX 24 24 0 -2
BITMAP
0C4008
0F601C
0C7FFE
0C600E
1C600C
18600C
18600C
38600C
387FFC
38600C
78600C
586000
D86004
98600E
187FFF
186007
186006
186006
186006
186006
186006
187FFE
186006
186006
ENDCHAR

STARTCHAR jisx0212_3067
ENCODING 12391
SWIDTH 960 0
DWIDTH 24 0
BBX 24 24 0 -2
BITMAP
0E0004
0C000E
0DFFFF
0C0300
1C0300
180300
180300
380300
384300
387308
78631C
5863FE
D86300
986300
186300
186300
186300
186300
186300
186300
186304
18630E
1BFFFF
180000
ENDCHAR

STARTCHAR jisx0212_3068
ENCODING 12392
SWIDTH 960 0
DWIDTH 24 0
BBX 24 24 0 -2
BITMAP
0C0C00
0F0F00
0C0C00
0C1C04
1C180E
1BFFFF
183800
383200
387380
386308
78E31C
58FFFE
D9E30E
9B630C
1E630C
1C630C
18630C
18630C
18630C
18637C
186318
186310
180300
180300
ENDCHAR

STARTCHAR jisx0212_3069
ENCODING 12393
SWIDTH 960 0
DWIDTH 24 0
BBX 24 24 0 -2
BITMAP
0C0600
0F0780
0C0600
0C0608
1C061C
19FFFE
180600
380600
380600
380604
78060E
5BFFFF
D80C00
980F00
181C00
181860
181830
183018
18301C
18600E
1841FE
1BFF87
19F007
190002
ENDCHAR

STARTCHAR jisx0212_306A
ENCODING 12394
SWIDTH 960 0
DWIDTH 24 0
BBX 24 24 0 -2
BITMAP
0C0004
0F000E
0CFFFF
0C0C07
1C0C06
180C06
180C06
381C06
38180E
38380C
7871FC
58E038
D9C020
9B4006
187FFF
186007
186006
186006
186006
186006
186006
187FFE
186006
186006
ENDCHAR

STARTCHAR jisx0212_306B
ENCODING 12395
SWIDTH 960 0
DWIDTH 24 0
BBX 24 24 0 -2
BITMAP
0C1860
0F1E78
0C1860
0C1860
1C1860
181862
191867
39D866
399B6C
399FF8
799870
599860
D99860
999860
199860
199860
199860
199862
199862
199B66
199C66
1BF07F
19C03E
190000
ENDCHAR

STARTCHAR jisx0212_306C
ENCODING 12396
SWIDTH 960 0
DWIDTH 24 0
BBX 24 24 0 -2
BITMAP
0C0600
0F0780
0C0600
0C8610
1CC638
18FFFC
18C61C
38C618
38C618
38C618
78C618
58C618
D8C618
98C61B
1BFFFF
180D00
180D80
1818C0
1818E0
183070
18603C
18C01F
1B800E
1E0004
ENDCHAR

STARTCHAR jisx0212_306D
ENCODING 12397
SWIDTH 960 0
DWIDTH 24 0
BBX 24 24 0 -2
BITMAP
060300
0783C0
060300
0E0300
0C0304
0C030E
1C03FF
180300
380300
380300
780300
788308
D8C31C
98FFFE
18C00E
18C00C
18C00C
18C00C
18C00C
18C00C
18C00C
18FFFC
18C00C
18C00C
ENDCHAR

STARTCHAR jisx0212_306E
ENCODING 12398
SWIDTH 960 0
DWIDTH 24 0
BBX 24 24 0 -2
BITMAP
0C3000
0F1C00
0C0E00
0C0730
1C033C
181030
181C70
381860
3818E0
3818C0
7899D0
589998
D89B8C
999B0E
199E06
1B9E07
1B1C03
1B1813
183812
187830
18D830
199FF8
1B0FF0
1C0000
ENDCHAR

STARTCHAR jisx0212_306F
ENCODING 12399
SWIDTH 960 0
DWIDTH 24 0
BBX 24 24 0 -2
BITMAP
003C00
003800
007400
00E600
01C300
0381C0
0700F0
0E007C
1801BF
77FFCE
C00004
000008
00001C
7FFFFE
001800
061980
0798C0
0E1870
0C1838
18181C
30180E
63F80E
C07004
002000
ENDCHAR

STARTCHAR jisx0212_3070
ENCODING 12400
SWIDTH 960 0
DWIDTH 24 0
BBX 24 24 0 -2
BITMAP
0C0C00
0F0F00
0C0C00
0C1830
1C1FF8
18303C
183870
386860
38CCE0
3987C0
7B0380
5807C0
D80EF0
98387C
18701F
19CF0E
1B03C2
1800C0
180000
18003C
1803F0
187F80
183C00
182000
ENDCHAR

STARTCHAR jisx0212_3071
ENCODING 12401
SWIDTH 960 0
DWIDTH 24 0
BBX 24 24 0 -2
BITMAP
0E8004
0CC00E
0CFFFF
0CC307
1CC306
18C306
18C306
38C306
38FFFE
38C306
78C306
58C306
D8C306
98C306
18FFFE
18C306
18C306
19C306
198306
198306
190306
1B033E
1A030C
1C0008
ENDCHAR

STARTCHAR jisx0212_3072
ENCODING 12402
SWIDTH 960 0
DWIDTH 24 0
BBX 24 24 0 -2
BITMAP
0E8004
0CC00E
0CFFFF
0CC007
1CC006
18C006
18C866
38CFF6
38CC66
38CC66
78CC66
58CC66
D8CC66
98CC66
18CC66
18CC66
18CFE6
18CC66
18CC06
18C006
18C006
18FFFE
18C006
18C006
ENDCHAR

STARTCHAR jisx0212_3073
ENCODING 12403
SWIDTH 960 0
DWIDTH 24 0
BBX 24 24 0 -2
BITMAP
0C0C00
0F0F00
0C0C0C
0C0CCF
1DFFFC
180C18
180C30
380C62
380CC7
3FFFFF
780300
581600
D81C10
98183C
187878
18D9E0
1B9F00
1E1802
181802
181806
181804
18180E
181FFF
180FFE
ENDCHAR

STARTCHAR jisx0212_3074
ENCODING 12404
SWIDTH 960 0
DWIDTH 24 0
BBX 24 24 0 -2
BITMAP
0C0780
0F0700
0C0F80
0C0C80
1C1CC0
183860
183070
386038
38C01E
39806F
7B7FF6
5E0002
D80000
988010
18C038
18FFFC
18C01C
18C018
18C018
18C018
18C018
18C018
18FFF8
18C018
ENDCHAR

STARTCHAR jisx0212_3075
ENCODING 12405
SWIDTH 960 0
DWIDTH 24 0
BBX 24 24 0 -2
BITMAP
003C00
003800
007400
00E600
01C300
0381C0
0700F0
0E007C
18033F
73FF8E
C00004
000010
000038
3FFFFC
001800
041820
071870
061FF8
061800
061800
061804
06180E
FFFFFF
000000
ENDCHAR

STARTCHAR jisx0212_3076
ENCODING 12406
SWIDTH 960 0
DWIDTH 24 0
BBX 24 24 0 -2
BITMAP
0C4010
0F6038
0C7FFC
0C601C
1C6018
186018
187FF8
386018
386018
386018
786018
587FF8
D8621C
986207
18630E
18611C
1861B0
1860C0
1860E0
186770
187C3C
1BF01F
19C00E
190004
ENDCHAR

STARTCHAR jisx0212_3077
ENCODING 12407
SWIDTH 960 0
DWIDTH 24 0
BBX 24 24 0 -2
BITMAP
0C0030
0F01FC
0C1FE0
0DFB00
1C0300
180300
180304
38030E
3BFFFF
380300
780300
580300
D88308
98C31C
18FFFE
18C00E
18C00C
18C00C
18C00C
18C00C
18C00C
18FFFC
18C00C
18C00C
ENDCHAR

STARTCHAR jisx0212_3078
ENCODING 12408
SWIDTH 960 0
DWIDTH 24 0
BBX 24 24 0 -2
BITMAP
0C3800
0F3000
0C30C0
0C7FE0
1C60C0
18C184
18C30E
39FFFF
3BC000
3EC000
78C818
58CFFC
D8CC18
98CC18
18CC18
18CC18
19CCF8
198C32
198C22
198C06
1B0C06
1B0FFF
1A07FE
1C0000
ENDCHAR

STARTCHAR jisx0212_3079
ENCODING 12409
SWIDTH 960 0
DWIDTH 24 0
BBX 24 24 0 -2
BITMAP
070600
06FF00
060E00
0E1D00
0C1980
0C38C0
1C7070
186038
38C01E
39800F
7B0036
7EFFFA
D80600
980600
180600
180618
18FFFC
180600
180600
180600
180604
18060E
1BFFFF
180000
ENDCHAR

STARTCHAR jisx0212_307A
ENCODING 12410
SWIDTH 960 0
DWIDTH 24 0
BBX 24 24 0 -2
BITMAP
0C0300
0F03C0
0C0300
0C0300
1C6600
1BF606
1807FF
380D87
380D86
38198C
78118C
582198
D80190
9819C0
18F3C0
1FC360
1B0360
1A0630
180638
180C1C
18181E
18300F
18E006
198002
ENDCHAR

STARTCHAR jisx0212_307B
ENCODING 12411
SWIDTH 960 0
DWIDTH 24 0
BBX 24 24 0 -2
BITMAP
0C0060
0F3FF0
0C0040
0C2060
1C3820
187030
186018
38C01C
39C03F
3B7FF6
7E6032
586030
D86030
987FF0
186030
186030
186030
187FF0
186030
18C030
18C030
1983F0
1B0060
1E0040
ENDCHAR

STARTCHAR jisx0212_307C
ENCODING 12412
SWIDTH 960 0
DWIDTH 24 0
BBX 24 24 0 -2
BITMAP
0C0300
0F43C0
0C7300
0C6308
1C631C
18FFFE
18C300
38C300
398300
390304
78030E
5BFFFF
D81080
981CE0
1818C0
1818C0
1818C0
1818C2
1830C2
1830C6
1860C6
18C0FF
1B807E
1E0000
ENDCHAR

STARTCHAR jisx0212_307D
ENCODING 12413
SWIDTH 960 0
DWIDTH 24 0
BBX 24 24 0 -2
BITMAP
0C0300
0F03C0
0C0304
0C830E
1CFFFF
18C000
18C030
38C0FC
38C7E0
38FF00
78C300
58C304
D8C30E
98C3FF
18FF00
18C300
18C300
198302
198302
190306
1B0306
1A03FF
1C01FE
180000
ENDCHAR

STARTCHAR jisx0212_307E
ENCODING 12414
SWIDTH 960 0
DWIDTH 24 0
BBX 24 24 0 -2
BITMAP
0E0004
0C000E
0DFFFF
0C0700
1C0600
180C00
180C60
381838
38101C
39FFFE
78FC06
588204
D80380
980308
18031C
18FFFE
180300
180300
180300
180300
180302
180307
1BFFFF
180000
ENDCHAR

STARTCHAR jisx0212_3121
ENCODING 12577
SWIDTH 960 0
DWIDTH 24 0
BBX 24 24 0 -2
BITMAP
0C0300
0F03C0
0C0302
0C0307
1DFFFF
180380
180700
380600
38CC40
387870
7838E0
5819C8
D8138E
98071C
180E38
181C70
1870E0
18E1C0
1983B0
18071C
181C0E
183807
18E007
198002
ENDCHAR

STARTCHAR jisx0212_3122
ENCODING 12578
SWIDTH 960 0
DWIDTH 24 0
BBX 24 24 0 -2
BITMAP
0C0C00
0F0F00
0C0C04
0C0C0E
1DFFFF
181880
1830C0
383060
386038
38C19E
79BFCF
5B0002
D80018
9BFFFC
183000
183018
187FFC
186018
18E018
18C038
180030
1807F0
1800E0
180080
ENDCHAR

STARTCHAR jisx0212_3123
ENCODING 12579
SWIDTH 960 0
DWIDTH 24 0
BBX 24 24 0 -2
BITMAP
0C0600
0F0780
0C0618
0D061E
1D8638
18C630
18E660
386640
384684
38060E
7BFFFF
5818C0
D818C0
9818C0
1818C0
1818C0
1838C2
1830C2
1870C2
1860C6
18C0C6
1980FF
1B007E
1C0000
ENDCHAR

STARTCHAR jisx0212_3124
ENCODING 12580
SWIDTH 960 0
DWIDTH 24 0
BBX 24 24 0 -2
BITMAP
003C00
003800
007400
00E600
01C300
0381C0
0706F0
0FFF7C
18003F
70018E
CFFFC4
000180
000380
000330
1FFFF8
000004
00000E
7FFFFF
00E000
00C180
0180E0
3FFFF8
1FE01C
10000C
ENDCHAR

STARTCHAR jisx0212_3125
ENCODING 12581
SWIDTH 960 0
DWIDTH 24 0
BBX 24 24 0 -2
BITMAP
0C0300
0F03C0
0C0308
0C830E
1CC31C
186318
187330
383320
382344
38030E
7BFFFF
580780
D80F80
980F40
181F60
183B30
183338
18631E
18C30F
198306
1B0302
1C0300
180300
180300
ENDCHAR

STARTCHAR jisx0212_3126
ENCODING 12582
SWIDTH 960 0
DWIDTH 24 0
BBX 24 24 0 -2
BITMAP
0C0C00
0F0F00
0C0C00
0C0C00
1D1810
199038
19FFFC
39999C
319998
319998
719998
719998
F19998
B19998
319998
319998
319998
319998
319998
319998
319998
31999B
37FFFF
300000
ENDCHAR

STARTCHAR jisx0212_3127
ENCODING 12583
SWIDTH 960 0
DWIDTH 24 0
BBX 24 24 0 -2
BITMAP
0C0300
0F03C0
0C0300
0C8306
1CFFFF
198007
19860C
3B8788
3B0600
380E04
780C0E
5BFFFF
D81830
981830
183870
183060
187C60
1867E0
1861C0
1803F0
18073C
181E0E
18F807
1BC003
ENDCHAR

STARTCHAR jisx0212_3128
ENCODING 12584
SWIDTH 960 0
DWIDTH 24 0
BBX 24 24 0 -2
BITMAP
0C0700
0F0600
0C0618
0CFFFC
1C0618
180618
18061B
3BFFFF
380618
380618
780618
58FFF8
D80618
980600
18060C
19FFFE
180600
180604
18060E
1BFFFF
180600
180600
180600
180600
ENDCHAR

STARTCHAR jisx0212_3129
ENCODING 12585
SWIDTH 960 0
DWIDTH 24 0
BBX 24 24 0 -2
BITMAP
0C0600
0F0780
0C0E00
0C0C60
1C1838
18101C
19FFFE
38FE06
38A204
383B80
783308
58631C
D87FFE
98C300
188300
190304
18030E
1BFFFF
180300
180300
180300
180300
180300
180300
ENDCHAR

STARTCHAR jisx0212_312A
ENCODING 12586
SWIDTH 960 0
DWIDTH 24 0
BBX 24 24 0 -2
BITMAP
0E8004
0CC00E
0CFFFF
0CC007
1CC006
18C036
18DFFE
38C006
38C006
38C866
78CFF6
58CC66
D8CC66
98CC66
18CC66
18CC66
18CFE6
18CC66
18CC66
18C006
18C006
18C07E
18C00C
18C008
ENDCHAR

STARTCHAR jisx0212_312B
ENCODING 12587
SWIDTH 960 0
DWIDTH 24 0
BBX 24 24 0 -2
BITMAP
0C0070
0F006C
0C0066
0C0066
1C0060
180066
1BFFFF
380060
380060
380060
780660
59FF60
D83060
983070
183030
183030
183030
1833B9
183E19
1BF81D
19C00F
19000E
180007
180003
ENDCHAR

STARTCHAR jisx0212_312C
ENCODING 12588
SWIDTH 960 0
DWIDTH 24 0
BBX 24 24 0 -2
BITMAP
0C3000
0F3C00
0C3000
0C7004
1C600E
187FFF
18C007
38C006
39C186
3B7FC6
7A6186
586186
D86186
987F86
186186
186186
186186
187F86
18618E
18618C
18001C
1803F8
180070
180040
ENDCHAR

STARTCHAR jisx0212_312D
ENCODING 12589
SWIDTH 960 0
DWIDTH 24 0
BBX 24 24 0 -2
BITMAP
0C6000
0F7800
0C6000
0C6086
1C60FF
18C6C7
1BFFC6
38C6C6
38C6C6
38C6C6
78C6C6
59CEC6
D98CC6
998CC6
198CC6
199CC6
1BD8C6
1B38C6
1B3CC6
186EC6
18C6FE
1986C6
1B00C6
1E00C0
ENDCHAR

STARTCHAR jisx0212_312E
ENCODING 12590
SWIDTH 960 0
DWIDTH 24 0
BBX 24 24 0 -2
BITMAP
0C1800
0F1E00
0C1804
0C180E
1DFFFF
183000
183000
38700C
386FFE
38601C
78E018
58E0B0
D9E0E0
99E0C2
1B60C7
1E7FFF
1C60C0
1860C0
1860C0
1860C0
1860C0
1867C0
186180
186100
ENDCHAR

STARTCHAR jisx0212_312F
ENCODING 12591
SWIDTH 960 0
DWIDTH 24 0
BBX 24 24 0 -2
BITMAP
0E8004
0CC00E
0CFFFF
0CC000
1CC000
18C010
18C038
38DFFC
38C000
38C004
78C00E
58FFFF
D8CC80
98CC84
18CCCF
18CC5C
19CC70
198C60
198C30
198C38
1B0DDE
1BFF0F
1A7806
1C4002
ENDCHAR

STARTCHAR jisx0212_3130
ENCODING 12592
SWIDTH 960 0
DWIDTH 24 0
BBX 24 24 0 -2
BITMAP
0E8008
0CC01C
0CFFFE
0CC00E
1CC00C
18C00C
18FFFC
38C00C
38C000
38C006
78FFFF
58C007
D8D0C6
98DFE6
18D8C6
18D8C6
19D8C6
199FC6
1998C6
1B180E
1B000C
1A01FC
1C0038
180020
ENDCHAR

STARTCHAR jisx0212_3131
ENCODING 12593
SWIDTH 960 0
DWIDTH 24 0
BBX 24 24 0 -2
BITMAP
0E0000
0C300C
0DF83E
0C31F8
1C7760
186060
186060
38E060
38C060
38D866
79FFFF
599860
D81860
989860
199860
19D860
1B5060
1E7066
1A27FF
187000
18DC00
198FFF
1B03FE
1E0000
ENDCHAR

STARTCHAR jisx0212_3132
ENCODING 12594
SWIDTH 960 0
DWIDTH 24 0
BBX 24 24 0 -2
BITMAP
0C0060
0F3FF0
0C0040
0C4060
1C7020
18E030
18C018
39FFFC
3BC03F
3EC036
78C032
58C030
D8C030
98FFF0
18D9B0
181980
181980
181982
183182
183186
186186
18C1FF
1B80FE
1E0000
ENDCHAR

STARTCHAR jisx0212_3133
ENCODING 12595
SWIDTH 960 0
DWIDTH 24 0
BBX 24 24 0 -2
BITMAP
0C0380
0F0304
0C030E
0DFFFF
1C0300
180300
188306
38FFFF
398007
3B800C
7B0030
587FF8
D80060
9802C0
180382
180307
1BFFFF
180300
180300
180300
180300
183F00
180600
180400
ENDCHAR

STARTCHAR jisx0212_3134
ENCODING 12596
SWIDTH 960 0
DWIDTH 24 0
BBX 24 24 0 -2
BITMAP
0E8004
0CC00E
0CFFFF
0CC307
1CC306
18C306
18FFFE
38C306
38C306
38C306
78FFFE
58C306
D80300
980306
19FFFF
180607
180606
180C06
180C06
18180E
18300C
1861FC
19C038
1B0020
ENDCHAR

STARTCHAR jisx0212_3135
ENCODING 12597
SWIDTH 960 0
DWIDTH 24 0
BBX 24 24 0 -2
BITMAP
0C0400
0F0708
0C060E
0C065C
1CFFF8
180630
180670
3806E6
3BFFFF
380380
780700
580E18
D83FFC
987030
19C160
1B01C2
1C0187
19FFFF
180180
180180
180180
181F80
180300
180200
ENDCHAR

STARTCHAR jisx0212_3136
ENCODING 12598
SWIDTH 960 0
DWIDTH 24 0
BBX 24 24 0 -2
BITMAP
0C0008
0F403C
0C61FE
0C7F80
1C6430
18E618
18C30C
38C306
398187
398183
7B0F02
5A0C04
D80C0E
9BFFFF
181830
181830
183070
183060
187EE0
1861C0
1803F8
180F1E
187C07
1BE003
ENDCHAR

STARTCHAR jisx0212_3137
ENCODING 12599
SWIDTH 960 0
DWIDTH 24 0
BBX 24 24 0 -2
BITMAP
0C0000
0F1018
0C1FFC
0D1818
1DD818
199818
199818
399FF8
319818
318000
718018
71FFFC
F18618
B00618
300618
30061B
37FFFF
300D00
300D80
3018E0
303078
30E03F
33801E
3E0004
ENDCHAR

STARTCHAR jisx0212_3138
ENCODING 12600
SWIDTH 960 0
DWIDTH 24 0
BBX 24 24 0 -2
BITMAP
0C0740
0F0660
0C0630
0C0632
1C0607
1BFFFF
180600
380608
39870E
38C71C
78E798
5866B0
D846E0
9806C0
180660
183670
186638
19C63C
1F861E
1B060F
1A0604
187E00
180C00
180800
ENDCHAR

STARTCHAR jisx0212_3139
ENCODING 12601
SWIDTH 960 0
DWIDTH 24 0
BBX 24 24 0 -2
BITMAP
0C0F00
0F0E00
0C1D00
0C1980
1C38C0
187070
186038
38C01E
3980CF
3B7FE4
7E0600
580608
D8061C
9BFFFE
180600
188600
18E660
18C638
19C61C
19860E
1B060E
1A7E04
1C0C00
180800
ENDCHAR

STARTCHAR jisx0212_313A
ENCODING 12602
SWIDTH 960 0
DWIDTH 24 0
BBX 24 24 0 -2
BITMAP
0C0300
0F63C0
0C7B00
0C6308
1C631C
18FFFE
18C300
38C300
398304
39030E
7BFFFF
580300
D80300
988308
18C01C
18FFFE
18C00E
18C00C
18C00C
18C00C
18C00C
18FFFC
18C00C
18C00C
ENDCHAR

STARTCHAR jisx0212_313B
ENCODING 12603
SWIDTH 960 0
DWIDTH 24 0
BBX 24 24 0 -2
BITMAP
0C0008
0F001C
0CFFFE
0C0C00
1C0C00
180C20
181870
38FFF8
381838
381830
783030
583033
DBFFFF
980000
18800C
18FFFE
18C00E
18C00C
18C00C
18C00C
18C00C
18FFFC
18C00C
18C00C
ENDCHAR

STARTCHAR jisx0212_313C
ENCODING 12604
SWIDTH 960 0
DWIDTH 24 0
BBX 24 24 0 -2
BITMAP
0E4010
0C6038
0C7FFC
0C601C
1C6018
186018
187FF8
386018
380000
38800C
78FFFE
58C30E
D8C30C
98C30C
18C30C
18FFFC
18C00C
18C002
18C002
18C006
18C006
18FFFF
187FFE
180000
ENDCHAR

STARTCHAR jisx0212_313D
ENCODING 12605
SWIDTH 960 0
DWIDTH 24 0
BBX 24 24 0 -2
BITMAP
0C0360
0F0338
0C0318
0C0313
1DFFFF
180300
188304
38C30E
38FFFF
38C307
78C306
58C306
D8FFFE
98C306
18C306
18C306
18C306
18FFFE
18C306
18C306
18C306
18C37E
18C30C
18C308
ENDCHAR

STARTCHAR jisx0212_313E
ENCODING 12606
SWIDTH 960 0
DWIDTH 24 0
BBX 24 24 0 -2
BITMAP
0E0600
0C0780
0C8610
0CC638
1CFFFC
18C01C
18C018
38C018
38FFF8
38C018
78C018
58C018
D8FFF8
98C418
18C60E
18C21C
18C338
18C1E0
18C0C0
18C3F0
18DE3C
1BF81F
19C00E
190002
ENDCHAR

STARTCHAR jisx0212_313F
ENCODING 12607
SWIDTH 960 0
DWIDTH 24 0
BBX 24 24 0 -2
BITMAP
0C0380
0F2300
0C3B30
0C7318
1C630C
18E306
18C307
398303
39431A
3A7FFC
786018
586018
D86018
987FF8
186018
186018
186018
187FF8
186018
186018
186018
1861F8
186030
186020
ENDCHAR

STARTCHAR jisx0212_3140
ENCODING 12608
SWIDTH 960 0
DWIDTH 24 0
BBX 24 24 0 -2
BITMAP
0C0600
0F0780
0C0600
0C8606
1CFFFF
198007
1B8004
3B0030
387FF8
380000
780000
580004
D8000E
9BFFFF
1818C0
1818C0
1818C0
1818C2
1830C2
1830C6
1860C6
18C0FF
19807E
1B0000
ENDCHAR

STARTCHAR jisx0212_3141
ENCODING 12609
SWIDTH 960 0
DWIDTH 24 0
BBX 24 24 0 -2
BITMAP
0E0380
0C8308
0CC31C
0CFFFE
1CC30E
18C30C
18FFFC
38C30C
38C30C
38C30C
78FFFC
58C00C
D80003
9BFFFF
181800
18180C
183FFE
18300E
18700C
18600C
18001C
1803F8
180070
180040
ENDCHAR

STARTCHAR jisx0212_3142
ENCODING 12610
SWIDTH 960 0
DWIDTH 24 0
BBX 24 24 0 -2
BITMAP
0C0300
0F03C0
0C0300
0C0304
1C030E
19FFFF
180300
384310
38731C
386318
786318
58F33C
D8DB36
999F66
1917C4
1A0680
180EC0
180C60
181C70
183838
18701E
18E00F
1B8006
1E0002
ENDCHAR

STARTCHAR jisx0212_3143
ENCODING 12611
SWIDTH 960 0
DWIDTH 24 0
BBX 24 24 0 -2
BITMAP
0C3800
0F3004
0C300E
0C7FFF
1C6060
18F0E0
18D9C0
398F80
3B0700
3A0FC0
7839F8
58727F
D9C79E
9F0E44
183CF0
18F1E0
1B83CC
180F1F
183C3C
18F0F8
1B83E0
180F80
187C00
1BC000
ENDCHAR

STARTCHAR jisx0212_3144
ENCODING 12612
SWIDTH 960 0
DWIDTH 24 0
BBX 24 24 0 -2
BITMAP
0C0800
0F1E84
0C78CE
0DE0FF
1C60C7
1860C6
1860C6
3866C6
3BFFC6
3860C6
78E0C6
58E0C6
D8F8C6
99ECC6
19EEC6
1966C6
1B64C6
1A60C6
1C60C6
1860C6
1860FE
1860C6
1860C6
1860C0
ENDCHAR

STARTCHAR jisx0212_3145
ENCODING 12613
SWIDTH 960 0
DWIDTH 24 0
BBX 24 24 0 -2
BITMAP
0C3060
0F3C78
0C3060
0C3060
1C3660
1BFF60
188066
38EDFF
38C667
39C366
798366
5B1866
DE1E66
999866
18D8E6
1878C6
1830C6
1878C6
186D86
18CD8E
19830C
1B06FC
1E0C38
181820
ENDCHAR

STARTCHAR jisx0212_3146
ENCODING 12614
SWIDTH 960 0
DWIDTH 24 0
BBX 24 24 0 -2
BITMAP
0C0380
0F0304
0C030E
0DFFFF
1C0E00
180C40
181830
38101C
39FFFE
38FE07
788003
58400C
D87FFE
98600E
18600C
187FFC
18600C
18600C
187FFC
18600C
18600C
1860FC
186018
186010
ENDCHAR

STARTCHAR jisx0212_3147
ENCODING 12615
SWIDTH 960 0
DWIDTH 24 0
BBX 24 24 0 -2
BITMAP
0E00C0
0C08F0
0D3EC0
0DF8C0
1D80C0
198186
1981FF
3981E7
398D66
39FF64
799B6C
599A68
D99C60
999860
199870
199870
1998D0
1B98D8
1B18D8
1B198C
1A198E
1E1B07
1C1E06
181C02
ENDCHAR

STARTCHAR jisx0212_3148
ENCODING 12616
SWIDTH 960 0
DWIDTH 24 0
BBX 24 24 0 -2
BITMAP
0C0700
0F0608
0C061C
0C07FE
1D0600
198606
19FFFF
398607
39866C
3987F8
79FE04
598604
D987FE
9983FC
198000
198880
198EE0
198CC2
198CC2
1B1CC6
1B18C6
1A38FF
1C707E
19C000
ENDCHAR

STARTCHAR jisx0212_3149
ENCODING 12617
SWIDTH 960 0
DWIDTH 24 0
BBX 24 24 0 -2
BITMAP
0C4008
0F601C
0C7FFE
0C6000
1C6030
187FF8
186000
386030
387FF8
386000
786002
586007
DBFFFF
986100
186108
18618E
18609C
1860F0
186060
186070
1867BC
1BFC1F
19E00E
190004
ENDCHAR

STARTCHAR jisx0212_314A
ENCODING 12618
SWIDTH 960 0
DWIDTH 24 0
BBX 24 24 0 -2
BITMAP
0E8000
0CE084
0CC0CE
0CC6FF
1DFFC7
19B0C6
1930C6
3B30C6
3A30C6
3C30C6
7832C6
5BFFC6
D830C6
9830C6
1830C6
1870C6
1878C6
186CC6
18CCC6
18C6C6
1986FE
1B04C6
1A00C6
1C00C0
ENDCHAR

STARTCHAR jisx0212_314B
ENCODING 12619
SWIDTH 960 0
DWIDTH 24 0
BBX 24 24 0 -2
BITMAP
0C0060
0F70F8
0C1DC0
0C0780
1C1CE0
187838
198E18
380C06
3BFFFF
381800
783818
583FFC
D8701C
987018
18FFF8
19B018
1B3018
1E3FF8
183018
183018
183018
1830F8
183030
183020
ENDCHAR

STARTCHAR jisx0212_314C
ENCODING 12620
SWIDTH 960 0
DWIDTH 24 0
BBX 24 24 0 -2
BITMAP
0C0600
0F0780
0C0600
0C8606
1CFFFF
198007
1BC00C
397008
38610C
38CDFE
78FF8E
58CD8C
D98D8C
998D8C
1B198C
1AD98C
1C798C
1871FC
18319A
186192
18C186
1981FF
1B00FE
1C0000
ENDCHAR

STARTCHAR jisx0212_314D
ENCODING 12621
SWIDTH 960 0
DWIDTH 24 0
BBX 24 24 0 -2
BITMAP
0C0060
0F3FF0
0C0040
0C2060
1C3830
187038
18641E
38C70F
398E06
3B0CC2
781870
581038
D9FFFC
98F80C
188608
180300
182198
18B98C
18B026
19B027
1B3063
1F3FF2
1A1FE0
180000
ENDCHAR

STARTCHAR jisx0212_314E
ENCODING 12622
SWIDTH 960 0
DWIDTH 24 0
BBX 24 24 0 -2
BITMAP
0C0300
0F03C0
0C0300
0C4306
1C7FFF
18C007
19C00C
39A018
383FFC
38301C
783018
583018
D83FF8
983018
183000
18300C
183FFE
18300E
18300C
18300C
18300C
183FFC
18300C
18300C
ENDCHAR

STARTCHAR jisx0212_314F
ENCODING 12623
SWIDTH 960 0
DWIDTH 24 0
BBX 24 24 0 -2
BITMAP
0C0880
0F0EE0
0C0CC0
0C8CCC
1CFFFE
18CCCE
18CCCC
38CCCC
38CCCC
38CCCC
78FFFC
58CCCC
D8CCCC
98CCCC
18CCCC
18CCCD
1BFFFF
181000
183C60
187838
18F01E
19C00F
1B0007
1C0002
ENDCHAR

STARTCHAR jisx0212_3150
ENCODING 12624
SWIDTH 960 0
DWIDTH 24 0
BBX 24 24 0 -2
BITMAP
0C0700
0F0600
0C0C18
0C0FFC
1C1C38
19B670
19E3E0
3981C0
3983F0
398E3C
79B91F
59E1C4
D98180
998984
19898F
19999C
19B3F0
19F340
19A760
198E30
181C3C
18381F
18E00E
198004
ENDCHAR

STARTCHAR jisx0212_3151
ENCODING 12625
SWIDTH 960 0
DWIDTH 24 0
BBX 24 24 0 -2
BITMAP
0C0300
0F03C0
0C2308
0C231E
1C6338
186360
18E780
38C600
380EE0
381C78
78381E
58E30E
DB83C4
982308
18230E
18631C
1867B8
18E6E0
18C6C0
180E60
181C38
18381F
18F00E
1B8004
ENDCHAR

STARTCHAR jisx0212_3152
ENCODING 12626
SWIDTH 960 0
DWIDTH 24 0
BBX 24 24 0 -2
BITMAP
0E0000
0D0C86
0DFEFF
0D8EC7
1D8CC6
198CC6
19CCE6
39ACD6
39BCDE
39BCDE
798CC6
598CC6
D9CCE6
99ACD6
19BCDE
19BCDE
198CC6
198CC6
1B0D86
1B0D86
1B0D86
1A7D3E
1E1B0C
1C1208
ENDCHAR

STARTCHAR jisx0212_3153
ENCODING 12627
SWIDTH 960 0
DWIDTH 24 0
BBX 24 24 0 -2
BITMAP
0C0380
0F2300
0C3B30
0C331C
1C730E
186307
18C303
398303
3B8306
3AFFFF
78C006
58C006
D8C866
98CFF6
18CC66
18CC66
18CC66
18CC66
18CFE6
18CC66
18CC06
18C03E
18C00C
18C008
ENDCHAR

STARTCHAR jisx0212_3154
ENCODING 12628
SWIDTH 960 0
DWIDTH 24 0
BBX 24 24 0 -2
BITMAP
0C6060
0F7878
0C6060
0C6066
1FFFFF
186060
186060
386060
387FE0
386060
786060
586060
D87FE0
986060
186060
186062
186067
1BFFFF
181080
183C60
187038
19E01C
1B800E
1E0006
ENDCHAR

STARTCHAR jisx0212_3155
ENCODING 12629
SWIDTH 960 0
DWIDTH 24 0
BBX 24 24 0 -2
BITMAP
0E8004
0CC00E
0CFFFF
0CC007
1CC386
18C326
18DFF6
38C306
38C306
38C326
78DFF6
58C306
D8C306
98C866
18CFF6
18CC66
19CC66
198C66
198FE6
198C66
1B0C06
1B003E
1A000C
1C0008
ENDCHAR

STARTCHAR jisx0212_3156
ENCODING 12630
SWIDTH 960 0
DWIDTH 24 0
BBX 24 24 0 -2
BITMAP
0700C0
0600F0
0630C0
FFF8C0
0600C0
0600C0
4660C0
7FF0C0
6070C0
6060C0
7FE0C0
6060C0
6060E0
6061E0
7FE1A0
6661B0
0601B0
063318
FFFB18
06061C
060C0E
06180F
063006
064004
ENDCHAR

STARTCHAR jisx0212_3157
ENCODING 12631
SWIDTH 960 0
DWIDTH 24 0
BBX 24 24 0 -2
BITMAP
0C0300
0F03C0
0C0304
0C030E
1DFFFF
180000
184010
386038
387FFC
38601C
786018
586018
D86018
987FF8
186318
182300
183B60
187330
18631C
18C30E
198307
1B3F07
1E0602
180400
ENDCHAR

STARTCHAR jisx0212_3158
ENCODING 12632
SWIDTH 960 0
DWIDTH 24 0
BBX 24 24 0 -2
BITMAP
0C0380
0F0304
0C030E
0DFFFF
1C0300
180318
18FFFC
380318
38031B
3BFFFF
780318
580318
D8FFF8
980318
184300
18730C
1863FE
18E300
18C300
19E300
19BB00
1B1FFF
1A07FE
1C0000
ENDCHAR

STARTCHAR jisx0212_3159
ENCODING 12633
SWIDTH 960 0
DWIDTH 24 0
BBX 24 24 0 -2
BITMAP
0C0300
0F03C0
0C0300
0C8306
1CFFFF
198007
1B800C
390028
380070
38FFF8
780000
580004
D8000E
9BFFFF
180300
184300
187330
18E318
18C30C
198306
1B0307
1E3F03
180602
180400
ENDCHAR

STARTCHAR jisx0212_315A
ENCODING 12634
SWIDTH 960 0
DWIDTH 24 0
BBX 24 24 0 -2
BITMAP
0E8008
0CC01C
0CFFFE
0CC30E
1CC30C
18C30C
18FFFC
38C30C
38C30C
38C30C
78FFFC
58C30C
D80302
980307
1BFFFF
180780
180FC0
181F60
183B38
18731E
18E30F
198306
1A0302
180300
ENDCHAR

STARTCHAR jisx0212_315B
ENCODING 12635
SWIDTH 960 0
DWIDTH 24 0
BBX 24 24 0 -2
BITMAP
0C0700
0F0608
0C061C
0DFFFE
1C0600
180604
18060E
3BFFFF
3830C0
3830C2
7870C2
5868FF
D8CE7E
999C00
1B1830
183FF8
187070
18D8E0
198DC0
1B0780
180FF0
183CFF
18F03E
1B8004
ENDCHAR

STARTCHAR jisx0212_315C
ENCODING 12636
SWIDTH 960 0
DWIDTH 24 0
BBX 24 24 0 -2
BITMAP
0C0300
0F03C0
0C0304
0C030E
1DFFFF
180300
188308
38C31C
38FFFE
38C30E
78C30C
58FFFC
D8C30C
98C30C
18FFFC
18CF8C
181FC0
181B60
183B70
18733C
18E31F
19C30E
1B0304
180300
ENDCHAR

STARTCHAR jisx0212_315D
ENCODING 12637
SWIDTH 960 0
DWIDTH 24 0
BBX 24 24 0 -2
BITMAP
1C0700
180600
18060C
1BFFFE
380600
310618
31FFFC
318618
718618
71FFF8
718600
F00618
B1FFFC
300618
30061B
37FFFF
300618
300618
31FFF8
300618
300600
307E00
300C00
300800
ENDCHAR

STARTCHAR jisx0212_315E
ENCODING 12638
SWIDTH 960 0
DWIDTH 24 0
BBX 24 24 0 -2
BITMAP
0C0070
0F0060
0C066C
0CFF66
1C0066
180060
180066
39FFFF
380C60
380C60
780C60
588C60
D8ED70
98CFB0
18CC30
18CC30
18CC38
18CC19
18CC19
18CDDD
18CF0F
1BFC0E
19E007
190003
ENDCHAR

STARTCHAR jisx0212_315F
ENCODING 12639
SWIDTH 960 0
DWIDTH 24 0
BBX 24 24 0 -2
BITMAP
0E3870
0C3060
0C3066
0DFFFF
1C3060
183060
183760
380600
388618
38FFFC
78C61C
58C618
D8C618
98C618
18C61B
1BFFFF
180D00
181D80
1818C0
1838E0
187078
18E03F
1B801E
1E0004
ENDCHAR

STARTCHAR jisx0212_3160
ENCODING 12640
SWIDTH 960 0
DWIDTH 24 0
BBX 24 24 0 -2
BITMAP
0E0030
0C81FC
0CFFE0
0CC430
1CC21C
19830E
198306
3B0604
3A8618
38FFFC
78C618
58C618
D8C61B
9BFFFF
18C618
18C618
18C61B
1BFFFF
18C018
18C018
18C018
18C1F8
18C030
18C020
ENDCHAR

STARTCHAR jisx0212_3161
ENCODING 12641
SWIDTH 960 0
DWIDTH 24 0
BBX 24 24 0 -2
BITMAP
0E4020
0C3038
0C3870
0C1862
1C10C7
1BFFFF
180000
390604
39FF47
398676
798666
59E666
D9B666
99B666
198666
198666
19E666
19B666
19B666
198666
198606
19BE3E
198C0C
198808
ENDCHAR

STARTCHAR jisx0212_3162
ENCODING 12642
SWIDTH 960 0
DWIDTH 24 0
BBX 24 24 0 -2
BITMAP
0C0030
0F03FC
0CFFE0
0C0304
1C030E
1BFFFF
180300
38830C
38FFFE
38C30E
78C30C
58FFFC
D8C30C
98C30C
18FFFC
18C30C
180300
18030C
19FFFE
180300
180304
18030E
1BFFFF
180000
ENDCHAR

STARTCHAR jisx0212_3163
ENCODING 12643
SWIDTH 960 0
DWIDTH 24 0
BBX 24 24 0 -2
BITMAP
0E0700
0C0600
0C060C
0DFFFE
1C0C00
180C18
19FFFC
381880
3818C0
383046
7BFFFF
586030
D8C018
99C03E
1B7FFF
1E6036
186032
186030
187FF0
186030
186030
186030
187FF0
186030
ENDCHAR

STARTCHAR jisx0212_3164
ENCODING 12644
SWIDTH 960 0
DWIDTH 24 0
BBX 24 24 0 -2
BITMAP
0C0030
0F01FC
0C0FE0
0CFB00
1C0300
18830C
18FFFE
38C30C
38C30C
38C30C
78FFFC
58C30C
D80300
990306
19FFFF
198307
198366
198336
19FFFE
19BE16
19A006
19807E
19800C
198008
ENDCHAR

STARTCHAR jisx0212_3165
ENCODING 12645
SWIDTH 960 0
DWIDTH 24 0
BBX 24 24 0 -2
BITMAP
0C3060
0F3C78
0C3060
0C3066
1DFFFF
183060
183060
383860
380E00
380C04
780C0E
5BFFFF
D81800
983800
183008
18701C
18FFFE
19B00E
1B300C
1E300C
18300C
18300C
183FFC
18300C
ENDCHAR

STARTCHAR jisx0212_3166
ENCODING 12646
SWIDTH 960 0
DWIDTH 24 0
BBX 24 24 0 -2
BITMAP
0E8008
0CC01C
0CFFFE
0CC30E
1CC30C
18C30C
18FFFC
38C30C
38C30C
38C30C
78FFFC
58C00C
D80006
9FFFFF
18C408
18C61E
18C238
18C370
18C1C0
18C0E0
18CF78
1FF83F
1BC01E
1A0004
ENDCHAR

STARTCHAR jisx0212_3167
ENCODING 12647
SWIDTH 960 0
DWIDTH 24 0
BBX 24 24 0 -2
BITMAP
0E0010
0D0038
0DFFFC
0D801C
1D8198
1987D8
19BC18
398418
39A4D8
39BFF8
79A4D8
59A4D8
D9A4D8
99A4D8
19A4D8
19BFD8
19A4D8
19859D
1B04CD
1B05ED
1BFF7F
1AF036
1C8027
180003
ENDCHAR

STARTCHAR jisx0212_3168
ENCODING 12648
SWIDTH 960 0
DWIDTH 24 0
BBX 24 24 0 -2
BITMAP
0E4010
0C6038
0C7FFC
0C601C
1C6018
187FF8
186018
386018
387FF8
38601A
780007
5BFFFF
D83000
987006
187FFF
18CCC7
199DC6
1B3986
1C7386
18E70E
19CE0C
1B1CFC
187038
18C020
ENDCHAR

STARTCHAR jisx0212_3169
ENCODING 12649
SWIDTH 960 0
DWIDTH 24 0
BBX 24 24 0 -2
BITMAP
0E8004
0CC00E
0CFFFF
0CC007
1CC006
18C006
18FFFE
38C000
38C006
38FFFF
78C700
58C630
D8CC1C
98FFFE
18DF07
18D1C3
198180
19818C
19BFFE
190180
1B0182
1A0187
1CFFFF
180000
ENDCHAR

STARTCHAR jisx0212_316A
ENCODING 12650
SWIDTH 960 0
DWIDTH 24 0
BBX 24 24 0 -2
BITMAP
0C0380
0F0300
0C4330
0C731C
1C630E
18E327
18C37B
399FE2
3907C0
3A0380
782E08
58381C
D8FFFE
9BB00E
1E300C
183FFC
18300C
18300C
183FFC
18300C
18300C
183FFC
18300C
18300C
ENDCHAR

STARTCHAR jisx0212_316B
ENCODING 12651
SWIDTH 960 0
DWIDTH 24 0
BBX 24 24 0 -2
BITMAP
0C0380
0F0304
0C030E
0DFFFF
1C2020
181038
181870
389860
3890C6
39FFFF
7B0307
5F0304
DA830C
98FFFE
18C30C
18C30C
18C30C
18C30C
18C30C
18C30C
18C37C
18C318
18C310
180300
ENDCHAR

STARTCHAR jisx0212_316C
ENCODING 12652
SWIDTH 960 0
DWIDTH 24 0
BBX 24 24 0 -2
BITMAP
0C0380
0F4308
0C661C
0C7FFE
1C600E
18600C
18600C
387FFC
38600C
38600C
78600C
587FFC
D8600C
980006
19FFFF
180300
180300
18030C
18FFFE
180300
180302
180307
1BFFFF
180000
ENDCHAR

STARTCHAR jisx0212_316D
ENCODING 12653
SWIDTH 960 0
DWIDTH 24 0
BBX 24 24 0 -2
BITMAP
0E0004
0C000E
0DFFFF
0C0CC0
1C8CCC
18FFFE
18CCCE
38CCCC
38CCCC
38CFCC
78CCCC
58C40C
D80700
980E02
180C07
1BFFFF
183830
183070
187060
18FFE0
18C3F0
180F3C
187C0E
1BC006
ENDCHAR

STARTCHAR jisx0212_316E
ENCODING 12654
SWIDTH 960 0
DWIDTH 24 0
BBX 24 24 0 -2
BITMAP
0E0860
0C1E78
0C7860
0DE060
1C6060
186064
186167
386566
3BFD66
38636C
78E36C
58E768
D8F670
99F860
19EC60
196CF0
1B60D0
1A60D8
1C6198
18618C
18630E
186607
186C06
187002
ENDCHAR

STARTCHAR jisx0212_316F
ENCODING 12655
SWIDTH 960 0
DWIDTH 24 0
BBX 24 24 0 -2
BITMAP
0C0380
0F0300
0C0306
0DFFFF
1C2020
183038
181870
381860
3818C2
381087
7BFFFF
580000
D8400C
987FFE
18600E
18600C
18600C
187FFC
18600C
18600C
18600C
187FFC
18600C
18600C
ENDCHAR

STARTCHAR jisx0212_3170
ENCODING 12656
SWIDTH 960 0
DWIDTH 24 0
BBX 24 24 0 -2
BITMAP
0E0006
0CFFFF
0C0307
0C430C
1C7318
1863FC
186300
38F300
38DFFF
3987FE
7B0000
5A400C
D87FFE
98600E
18600C
187FFC
18600C
18600C
187FFC
18600C
18600C
1860FC
186018
186010
ENDCHAR

STARTCHAR jisx0212_3171
ENCODING 12657
SWIDTH 960 0
DWIDTH 24 0
BBX 24 24 0 -2
BITMAP
0C0E00
0F0C00
0C0C0C
0DFFFE
1C1880
1838C0
183060
386838
38DE1F
3998CE
7A3FE4
5861C0
D8F380
999F70
1A0EE6
183DFF
18E70E
1B8E1C
183B38
18E1F0
1801E0
180780
183E00
19F000
ENDCHAR

STARTCHAR jisx0212_3172
ENCODING 12658
SWIDTH 960 0
DWIDTH 24 0
BBX 24 24 0 -2
BITMAP
0E0004
0C000E
0DFFFF
0C0000
1C4008
18601C
187FFE
38600E
38600C
38600C
787FFC
58600C
D80000
988006
18FFFF
18C307
18C306
18C306
18FFFE
18C306
18C306
18C306
18FFFE
18C006
ENDCHAR

STARTCHAR jisx0212_3173
ENCODING 12659
SWIDTH 960 0
DWIDTH 24 0
BBX 24 24 0 -2
BITMAP
0E0004
0C000E
0DFFFF
0C0700
1C0600
188C04
18C80E
38FFFF
38CCC7
38CCC6
78CCC6
58CCC6
D8CFC6
98CCC6
18CCC6
18CCC6
18CCC6
18CFC6
18CCC6
18CCC6
18CCC6
18CCC6
18FFFE
18C006
ENDCHAR

STARTCHAR jisx0212_3174
ENCODING 12660
SWIDTH 960 0
DWIDTH 24 0
BBX 24 24 0 -2
BITMAP
0C7000
0F6006
0C6DFF
0C7E66
1FE066
186C66
187E66
3BE066
386CE6
387EC6
7BE0CE
58618C
D8637C
986618
186700
180606
1BFFFF
180D00
181D80
1838E0
187078
18E03F
1B801E
1E0004
ENDCHAR

STARTCHAR jisx0212_3175
ENCODING 12661
SWIDTH 960 0
DWIDTH 24 0
BBX 24 24 0 -2
BITMAP
0E0018
0C80FE
0CC7F0
0CFE80
1CC0E0
18C0C2
18C0C7
38FFFF
38C180
38D184
78D98E
58DFFF
D8D807
98D806
18DFFE
19D806
199806
199FFE
199806
1B1806
1B1806
1A1FFE
1C1806
181806
ENDCHAR

STARTCHAR jisx0212_3176
ENCODING 12662
SWIDTH 960 0
DWIDTH 24 0
BBX 24 24 0 -2
BITMAP
0E0000
0C0686
0FFFFF
0D8CC6
1D8CC6
198CCC
198CCC
39FCC8
398CD8
398CD0
798CC8
598CCC
D9FCC6
998CC6
198CC3
198CC3
198CC3
19BCC3
1FECC7
1B8CFE
1A0CCC
180CC0
180CC0
180CC0
ENDCHAR

STARTCHAR jisx0212_3177
ENCODING 12663
SWIDTH 960 0
DWIDTH 24 0
BBX 24 24 0 -2
BITMAP
0E0380
0C0B00
0C9F0C
0CF37E
1CC30E
18C30C
18CB0C
38FB7C
38C30C
38C30C
78CB0C
58FB7C
D8C30C
980300
180018
19FFFC
183038
181870
180CE0
1807C0
180EF0
183C7F
18F01E
1B8004
ENDCHAR

STARTCHAR jisx0212_3178
ENCODING 12664
SWIDTH 960 0
DWIDTH 24 0
BBX 24 24 0 -2
BITMAP
0E0300
0C0306
0DFFFF
0C0300
1C0318
18FFFC
180300
380306
3BFFFF
380700
78CE40
587CF0
D831C0
983398
18060E
1BFFFF
19FF03
192342
183B30
18731C
18E30E
19C307
1B0303
180300
ENDCHAR

STARTCHAR jisx0212_3179
ENCODING 12665
SWIDTH 960 0
DWIDTH 24 0
BBX 24 24 0 -2
BITMAP
0C0700
0F0600
0C060C
0DFFFE
1C0D08
199D8E
18D89C
38F8D8
387070
38603C
78FFFF
59E01E
DB601A
9C6018
187FF8
186018
186018
186018
187FF8
186018
186018
186018
187FF8
186018
ENDCHAR

STARTCHAR jisx0212_317A
ENCODING 12666
SWIDTH 960 0
DWIDTH 24 0
BBX 24 24 0 -2
BITMAP
0E8004
0CC00E
0CFFFF
0CC1C0
1CC180
18C180
18C90C
38CFFE
38CC0C
38CC0C
78CFFC
58CC0C
D8CC0C
98CC0C
18CFFC
19CCCC
1988C0
198ED8
199CCC
1B18C6
1B30C7
1A67C3
1CC182
190100
ENDCHAR

STARTCHAR jisx0212_317B
ENCODING 12667
SWIDTH 960 0
DWIDTH 24 0
BBX 24 24 0 -2
BITMAP
0C4018
0F7FFC
0C601C
0C6018
1C6018
187FF8
186018
38800C
38FFFE
38C00E
78C00C
58FFFC
D8C00C
98C00C
18FFFC
18C00C
18C00C
18FFFC
18C00C
1810C0
183C78
18F01E
1BC007
1E0003
ENDCHAR

STARTCHAR jisx0212_317C
ENCODING 12668
SWIDTH 960 0
DWIDTH 24 0
BBX 24 24 0 -2
BITMAP
0C7030
0F60FC
0C67E0
0C7E02
1C6002
187FFF
183FFE
380000
39100C
39DFFE
79980C
599FFC
D9980C
999FFC
19980C
199FFC
19980C
198003
19FFFF
198800
181E70
18781E
19E007
1F0003
ENDCHAR

STARTCHAR jisx0212_317D
ENCODING 12669
SWIDTH 960 0
DWIDTH 24 0
BBX 24 24 0 -2
BITMAP
0E0380
0C8304
0CC30E
0CFFFF
1CC000
18C380
18C318
38DFFC
38C318
38C31B
78FFFF
58C318
D8C318
98DFF8
18C318
19C300
19A00C
19BFFE
19B00E
1B300C
1B300C
1A300C
1C3FFC
18300C
ENDCHAR

STARTCHAR jisx0212_317E
ENCODING 12670
SWIDTH 960 0
DWIDTH 24 0
BBX 24 24 0 -2
BITMAP
0C0380
0F0304
0C030E
0DFFFF
1C0000
182030
183FF8
383030
383030
383FF0
783030
590006
D9FFFF
998007
199066
199FF6
199866
199866
199866
199FE6
199866
19983E
19800C
198008
ENDCHAR

STARTCHAR jisx0212_3221
ENCODING 12833
SWIDTH 960 0
DWIDTH 24 0
BBX 24 24 0 -2
BITMAP
0C0030
0F41FC
0C7FC0
0C6430
1CE31C
18C18E
18C946
398E74
3958E0
3A30C0
7819B0
581B1C
D8060E
9BFFFF
19FA03
190380
180306
1BFFFF
180680
180EC0
181C70
18783C
19E01F
1F0004
ENDCHAR

STARTCHAR jisx0212_3222
ENCODING 12834
SWIDTH 960 0
DWIDTH 24 0
BBX 24 24 0 -2
BITMAP
0E8030
0CC3FC
0CFFC0
0CC000
1CC00C
18FFFE
18C00C
38C00C
38FFFC
38C00C
78C000
58C606
D9FF7F
998E0F
199E1E
19B636
19E666
198E8E
1B1E1E
1B3636
1B6666
1AC686
1D3E3E
180C0C
ENDCHAR

STARTCHAR jisx0212_3223
ENCODING 12835
SWIDTH 960 0
DWIDTH 24 0
BBX 24 24 0 -2
BITMAP
0C0810
0F1E3C
0C78F0
0DDB80
1C1986
1BFFFF
181980
381998
39FFFC
381998
78199B
5FFFFF
D81998
981998
19FFF8
183998
1879C0
1879E0
18D9B0
19999C
1B198F
1E1986
181982
181980
ENDCHAR

STARTCHAR jisx0212_3224
ENCODING 12836
SWIDTH 960 0
DWIDTH 24 0
BBX 24 24 0 -2
BITMAP
0C0780
0F0700
0C0E80
0C1CC0
1C1860
1830B0
187FDC
38C00F
39C01E
3B7FFA
786018
586018
D87FF8
986018
186018
187FF8
186018
18E004
18FFFE
18F00C
19B00C
19300C
1A3FFC
18300C
ENDCHAR

STARTCHAR jisx0212_3225
ENCODING 12837
SWIDTH 960 0
DWIDTH 24 0
BBX 24 24 0 -2
BITMAP
0C0300
0F03C0
0C0300
0C8306
1CFFFF
198007
1BA04C
393838
38721C
38678E
78C706
598E84
D91CC0
983870
18703C
18E01F
19FFFE
1B601A
1C6018
186018
186018
186018
187FF8
186018
ENDCHAR

STARTCHAR jisx0212_3226
ENCODING 12838
SWIDTH 960 0
DWIDTH 24 0
BBX 24 24 0 -2
BITMAP
0C0700
0F0E00
0C0C18
0C1FFC
1C3838
187C70
18E6E0
3933C0
381B80
381E00
783C10
58D838
DB3FFC
986300
18C304
18030E
1BFFFF
180300
18E30E
18C30C
18C30C
18C30C
18FFFC
18C00C
ENDCHAR

STARTCHAR jisx0212_3227
ENCODING 12839
SWIDTH 960 0
DWIDTH 24 0
BBX 24 24 0 -2
BITMAP
0C2020
0F3038
0C1870
0C1860
1C10C6
19FFFF
180300
380300
380318
387FFC
780300
580304
D8030E
9BFFFF
181800
183808
18301C
187FFE
186180
18C180
198182
1B0187
1CFFFF
180000
ENDCHAR

STARTCHAR jisx0212_3228
ENCODING 12840
SWIDTH 960 0
DWIDTH 24 0
BBX 24 24 0 -2
BITMAP
0C0060
0F1FF0
0C4040
0C7420
1CE730
18CE1C
198D8F
3A18E6
39FFF2
38F830
788020
580C06
DBFEFF
987C3E
18EC76
19CCE6
1B9DCE
1E3F1E
187C3E
18EC76
19CCE6
1B0D86
1C7E3E
18180C
ENDCHAR

STARTCHAR jisx0212_3229
ENCODING 12841
SWIDTH 960 0
DWIDTH 24 0
BBX 24 24 0 -2
BITMAP
0E000C
0C0C0F
0DFE0C
0C000C
1C060C
1BFF0C
18000D
380DFF
39FE0C
38000C
780C8C
59FECC
D8004C
98006C
190C6C
19FE6C
198C4C
198C0C
198C0C
198C0C
198C0C
19FC7C
198C18
198010
ENDCHAR

STARTCHAR jisx0212_322A
ENCODING 12842
SWIDTH 960 0
DWIDTH 24 0
BBX 24 24 0 -2
BITMAP
0C6060
0F7878
0C6060
0C6060
1C6060
186466
1BFDFF
381008
3A1D0E
3A190C
7B198C
59188C
D9188C
9998CC
1998CC
1990C8
1990C8
19B0C8
1920D8
182ED0
1FF892
1BC017
1A07FF
180000
ENDCHAR

STARTCHAR jisx0212_322B
ENCODING 12843
SWIDTH 960 0
DWIDTH 24 0
BBX 24 24 0 -2
BITMAP
0E0380
0C4300
0C4306
0CFFFF
1D8007
1B800C
19000A
39FFFF
380700
380E04
781C0F
58721E
D9C738
9B0DE0
1819C0
1873E0
19C7F0
1B0ED8
183CDE
1870CF
19C1C6
1F1F82
180700
180400
ENDCHAR

STARTCHAR jisx0212_322C
ENCODING 12844
SWIDTH 960 0
DWIDTH 24 0
BBX 24 24 0 -2
BITMAP
0C0700
0F0E00
0C0C60
0C1838
1DFFFC
18F80C
188010
38C798
39A734
391EA6
7FFCFF
5B1863
D83230
98671C
18CE4F
199CE6
1A39CA
18E39E
198E38
183870
18E1E0
180780
183E00
19F000
ENDCHAR

STARTCHAR jisx0212_322D
ENCODING 12845
SWIDTH 960 0
DWIDTH 24 0
BBX 24 24 0 -2
BITMAP
0E0700
0C8604
0CC40E
0CFFFF
1CC307
18C226
18C7F6
38D466
38CFC6
38D9C6
78C366
58CE36
D8D836
98C006
18FFFE
18C206
181188
189DCC
1898C6
199897
199813
1B9833
1B1FFA
180FF0
ENDCHAR

STARTCHAR jisx0212_322E
ENCODING 12846
SWIDTH 960 0
DWIDTH 24 0
BBX 24 24 0 -2
BITMAP
0E0300
0CC3CC
0CF30F
0CC30C
1CC30C
18FFFC
18C00C
380000
390C86
39FEFF
798CC7
598CC6
D9CCE6
99BCDE
19BCDE
198CC6
19CCE6
19BCDE
19BCDE
198CC6
1B0D86
1B7DBE
1A190C
1C1208
ENDCHAR

STARTCHAR jisx0212_322F
ENCODING 12847
SWIDTH 960 0
DWIDTH 24 0
BBX 24 24 0 -2
BITMAP
0C0700
0F0600
0C060C
0CFFFE
1C2070
181860
1818C6
3BFFFF
380000
388018
78FFFC
58C01C
D8C018
98FFF8
18C018
18C018
18FFF8
18D998
181982
183182
183186
1861FF
19C0FE
1B0000
ENDCHAR

STARTCHAR jisx0212_3230
ENCODING 12848
SWIDTH 960 0
DWIDTH 24 0
BBX 24 24 0 -2
BITMAP
0EE100
0CCD06
0CFEBF
0DCC86
1D8CCC
19D858
1B7870
3B3030
3DB038
38E0DE
78FFEF
598006
DB0002
9C000C
1BFFFE
180300
184340
187330
18E31C
18C30E
198307
1B1F07
1E0602
180400
ENDCHAR

STARTCHAR jisx0212_3231
ENCODING 12849
SWIDTH 960 0
DWIDTH 24 0
BBX 24 24 0 -2
BITMAP
0C0380
0F0300
0C030C
0DFFFE
1C2070
181860
1818C6
3BFFFF
380000
38800C
78FFFE
58C00C
D8C00C
98FFFC
18C00C
18C00C
18FFFC
18C300
180306
1BFFFF
180300
180300
180300
180300
ENDCHAR

STARTCHAR jisx0212_3232
ENCODING 12850
SWIDTH 960 0
DWIDTH 24 0
BBX 24 24 0 -2
BITMAP
0C76DC
0F6498
0C649A
0DFFFF
1C6498
18649A
18C49A
38C79F
39848E
3B0002
79FFFF
5B0206
DF038C
9A8304
18FFFE
18C30E
18C30C
18C30C
18C30C
18C30C
18C37C
18C318
18C310
180300
ENDCHAR

STARTCHAR jisx0212_3233
ENCODING 12851
SWIDTH 960 0
DWIDTH 24 0
BBX 24 24 0 -2
BITMAP
0C1C70
0F1860
0C1866
0DFFFF
1C1860
18F864
18C00E
38FFFF
39C007
398006
7980C6
5BFFE6
DACCC6
9CCCC6
18FFC6
18CCC6
18CCC6
18FFC6
18CCC6
18CCCE
18CCCC
18CFFC
18CD98
180010
ENDCHAR

STARTCHAR jisx0212_3234
ENCODING 12852
SWIDTH 960 0
DWIDTH 24 0
BBX 24 24 0 -2
BITMAP
0E0004
0C000E
0DFFFF
0C0CC0
1C8CCC
18FFFE
18CCCC
38CCCC
38CCCC
38CCCC
78FFFC
58C00C
D80018
98FFFC
180000
180006
1BFFFF
184300
187330
18E31C
18C30E
199F07
1B0606
1C0400
ENDCHAR

STARTCHAR jisx0212_3235
ENCODING 12853
SWIDTH 960 0
DWIDTH 24 0
BBX 24 24 0 -2
BITMAP
0E0606
0DFF7F
0C1E1E
0C3636
1C6666
18CECE
191E1E
383636
386766
38CE86
791CC0
583870
D8723C
98E71F
1B8E4E
1E1CF2
1871C4
19C38F
180E1C
183878
18E1E0
180780
183E00
19E000
ENDCHAR

STARTCHAR jisx0212_3236
ENCODING 12854
SWIDTH 960 0
DWIDTH 24 0
BBX 24 24 0 -2
BITMAP
0E3820
0C3038
0C3330
0FFFB0
1C3070
183060
193663
39FF7F
3926CC
3926CC
7926CC
59FF4C
D9264C
99266C
19262C
19FE28
193638
183138
1FFFEC
18306C
1830CE
183187
183306
183602
ENDCHAR

STARTCHAR jisx0212_3237
ENCODING 12855
SWIDTH 960 0
DWIDTH 24 0
BBX 24 24 0 -2
BITMAP
0C0000
0F8C86
0CFEFF
0CCCC6
1CCCC6
18FCFE
18C4C2
38C4C2
38FEFF
387C7E
780000
581C70
D81866
99FFFF
181860
181862
181867
1BFFFF
181000
183CE0
187038
18E00E
1B8007
1E0003
ENDCHAR

STARTCHAR jisx0212_3238
ENCODING 12856
SWIDTH 960 0
DWIDTH 24 0
BBX 24 24 0 -2
BITMAP
0C4020
0F3078
0C3860
0C10C6
1DFFFF
180300
18030C
38FFFE
380300
380306
7BFFFF
584310
D8333C
983330
182366
1BFFFF
180000
18800C
18FFFE
18C00C
18C00C
18C00C
18FFFC
18C00C
ENDCHAR

STARTCHAR jisx0212_3239
ENCODING 12857
SWIDTH 960 0
DWIDTH 24 0
BBX 24 24 0 -2
BITMAP
0C0380
0F4318
0C7FFC
0C6318
1C6318
187FF8
186318
380306
3BFFFF
380000
784018
587FFC
D86018
987FF8
186018
187FF8
186018
186018
187FF8
186018
1810E0
183C3C
18F00E
1B8006
ENDCHAR

STARTCHAR jisx0212_323A
ENCODING 12858
SWIDTH 960 0
DWIDTH 24 0
BBX 24 24 0 -2
BITMAP
0C0060
0F1FF0
0C4020
0C7030
1CE0DC
18FFEF
198D86
3B8D8E
3CFFFC
38CDAC
78D9FC
58F0EC
D8C00C
98FFFC
18C00C
18FFFC
18C06C
180063
1BFFFF
186060
183860
181BE0
1810C0
180080
ENDCHAR

STARTCHAR jisx0212_323B
ENCODING 12859
SWIDTH 960 0
DWIDTH 24 0
BBX 24 24 0 -2
BITMAP
0E3820
0C3038
0D3430
0DF630
1DB370
19B360
1B3363
3B307F
3A364C
3DFFCC
7906CC
5906CC
D9574C
997E6C
19562C
195628
195638
195638
19763C
19566C
19066E
193EC7
190D86
190B02
ENDCHAR

STARTCHAR jisx0212_323C
ENCODING 12860
SWIDTH 960 0
DWIDTH 24 0
BBX 24 24 0 -2
BITMAP
0E0100
0C0D08
0DFF9E
0C0CB8
1D1CC4
18D84F
18F87C
387030
3860DC
38FFEF
798006
5B801A
D8FFFC
98C018
18C018
18C018
18FFF8
182040
183070
1818E0
1818C4
18118E
1BFFFF
180000
ENDCHAR

STARTCHAR jisx0212_323D
ENCODING 12861
SWIDTH 960 0
DWIDTH 24 0
BBX 24 24 0 -2
BITMAP
0E0000
0D0006
0DFFFF
0D8006
1D8006
19FFFE
198016
398FF8
398060
3980C6
79BFFF
5980C0
D987C0
998180
198306
19FFFF
19860C
198C18
1B0F9B
1BFCFF
1B6C18
1A0C18
1C7CF8
181830
ENDCHAR

STARTCHAR jisx0212_323E
ENCODING 12862
SWIDTH 960 0
DWIDTH 24 0
BBX 24 24 0 -2
BITMAP
0E2308
0C3B0E
0C731C
0C6318
1ED3B4
199F67
19BB6E
39B36C
386318
38DB36
7BFFFF
59CF63
D90390
98019B
1BFFFF
18C188
18C1CE
18F0DC
19DCF9
198C71
1988FB
1B03DE
1A0F0F
1C3803
ENDCHAR

STARTCHAR jisx0212_323F
ENCODING 12863
SWIDTH 960 0
DWIDTH 24 0
BBX 24 24 0 -2
BITMAP
0E0070
0C07FC
0DFF88
0C440E
1C661C
183318
183330
392226
39FFFF
3B4007
7F700C
5A6418
D8FF1A
98CDFF
198D98
199998
1BD998
1A719B
1C77FF
186018
18C018
198018
1B0018
1C0018
ENDCHAR

STARTCHAR jisx0212_3240
ENCODING 12864
SWIDTH 960 0
DWIDTH 24 0
BBX 24 24 0 -2
BITMAP
0E0000
0D0C86
0DFEFF
0D8CC6
1D8CC6
19FCFE
198CC6
380000
38800C
38FFFE
78C30C
58C30C
D8FFFC
98C30C
18C30C
18FFFC
18C30C
180302
180307
1BFFFF
180300
180300
180300
180300
ENDCHAR

STARTCHAR jisx0212_3241
ENCODING 12865
SWIDTH 960 0
DWIDTH 24 0
BBX 24 24 0 -2
BITMAP
0C3870
0F3068
0C3064
0C3366
1FFFE6
180060
1801FF
390660
39FF60
398660
79867C
598678
D9FE78
99B678
1930F8
19F8D8
19B4D8
19B6DA
1B379A
1B359A
1A331B
1DF61F
186C0E
185800
ENDCHAR

STARTCHAR jisx0212_3242
ENCODING 12866
SWIDTH 960 0
DWIDTH 24 0
BBX 24 24 0 -2
BITMAP
0C0380
0F030C
0CFFFE
0C0300
1C3B38
183033
1BFFFF
383030
383030
38800C
78FFFE
58C00C
D8C00C
98FFFC
18C00C
18C00C
18FFFC
18C00C
18C00C
18FFFC
181060
187C1C
19F00F
1F0003
ENDCHAR

STARTCHAR jisx0212_3243
ENCODING 12867
SWIDTH 960 0
DWIDTH 24 0
BBX 24 24 0 -2
BITMAP
0F0C86
0DFEFF
0D8CC6
0D8CC6
1DFCFE
198CC6
198CC6
398CC6
39FCFE
398CC6
798006
5990C6
D99FE6
9998C6
1998C6
199FC6
1998C6
1998C6
199FC6
1998C6
19B0C6
19B7C6
19A1BE
19C00C
ENDCHAR

STARTCHAR jisx0212_3244
ENCODING 12868
SWIDTH 960 0
DWIDTH 24 0
BBX 24 24 0 -2
BITMAP
0E0380
0C8310
0C633C
0C7330
1C2366
19FFFF
180F80
381FC0
383B70
38733C
79C31F
5B8304
D8E01C
98CC18
18FF1A
198DFF
199D98
1BD998
1A7999
1C77FF
186018
18C018
198018
1A0018
ENDCHAR

STARTCHAR jisx0212_3245
ENCODING 12869
SWIDTH 960 0
DWIDTH 24 0
BBX 24 24 0 -2
BITMAP
0E8038
0CC3FE
0CFFC0
0CC000
1CC006
18FFFF
18C006
38C006
38FFFE
38C846
78CE70
58CC60
D8DCC6
98DFFF
18D8C0
19B8CC
19BFFE
19D8C0
1998CC
1B1FFE
1B18C0
1A18C6
1C1FFF
181800
ENDCHAR

STARTCHAR jisx0212_3246
ENCODING 12870
SWIDTH 960 0
DWIDTH 24 0
BBX 24 24 0 -2
BITMAP
0E8008
0CC01C
0CFFFE
0CCCCC
1CCCCC
18CCCC
18FCFC
38CCCC
390CC6
39FCFF
798CC7
598CC6
D98CC6
99FCFE
198CC6
198CC6
198CC6
19FCFE
198CC6
198CC2
180CC2
180C06
180FFF
1807FE
ENDCHAR

STARTCHAR jisx0212_3247
ENCODING 12871
SWIDTH 960 0
DWIDTH 24 0
BBX 24 24 0 -2
BITMAP
0C2030
0F3FF8
0C3030
0C3030
1C3030
183FF0
183030
390C86
39FEFF
398CC6
798CC6
598CC6
D9FCFE
998CC6
180300
180306
1BFFFF
180FC0
181F60
183B38
18731E
19C30F
1F0302
180300
ENDCHAR

STARTCHAR jisx0212_3248
ENCODING 12872
SWIDTH 960 0
DWIDTH 24 0
BBX 24 24 0 -2
BITMAP
0E0070
0C07FC
0DFF90
0C441C
1C2238
183330
192266
39FFFF
3B0207
3F5998
7A59AC
58D826
D9DFF6
988FE0
181C00
181830
183FF8
187870
18CCE0
1987C0
1B07C0
181EF8
18F83F
1BC00C
ENDCHAR

STARTCHAR jisx0212_3249
ENCODING 12873
SWIDTH 960 0
DWIDTH 24 0
BBX 24 24 0 -2
BITMAP
0C0380
0F0304
0C030E
0DFFFF
1C0000
18800C
18FFFE
38C00E
38CFCC
38CCCC
78CFCC
58C00C
D8FFFC
98C00C
184018
187FFC
186018
187FF8
186018
187FF8
18601A
180007
1BFFFF
180000
ENDCHAR

STARTCHAR jisx0212_324A
ENCODING 12874
SWIDTH 960 0
DWIDTH 24 0
BBX 24 24 0 -2
BITMAP
0E8820
0CEE38
0CCC30
0CCD30
1FFFF0
18CC63
18CC7F
39806C
3986CC
39FFCC
7906CC
5B374C
DBFE4C
9B366C
1D362C
193628
193638
19F638
19366C
190E6C
180CCE
187D87
181B06
181602
ENDCHAR

STARTCHAR jisx0212_324B
ENCODING 12875
SWIDTH 960 0
DWIDTH 24 0
BBX 24 24 0 -2
BITMAP
0E800C
0CFFFE
0CCCCC
0CCCCC
1CCCCC
18FFFC
18C00C
380006
3BFFFF
380000
78800C
58FFFE
D8C00C
98C00C
18C00C
18FFFC
189C84
1838CF
18785C
19D870
1E1BB8
19FE1E
18E00F
188004
ENDCHAR

STARTCHAR jisx0212_324C
ENCODING 12876
SWIDTH 960 0
DWIDTH 24 0
BBX 24 24 0 -2
BITMAP
0C0780
0F0700
0C0E80
0C1CC0
1C1870
1830DC
187FEF
38C006
398002
3BFFFF
78D326
58DB36
D8CF66
98CB46
18FFFE
182008
183FFC
183018
183018
183FF8
183018
183018
183FF8
183018
ENDCHAR

STARTCHAR jisx0212_324D
ENCODING 12877
SWIDTH 960 0
DWIDTH 24 0
BBX 24 24 0 -2
BITMAP
0C3800
0F3060
0C7FF0
0C6062
1CC087
18FFFF
19C662
3BCE62
3ECC7F
38D83E
78E000
58C7F0
D8C006
98FFFF
18C000
18CFFC
18C000
18CFFC
199004
199FFE
19980C
1B180C
1A1FFC
1C180C
ENDCHAR

STARTCHAR jisx0212_324E
ENCODING 12878
SWIDTH 960 0
DWIDTH 24 0
BBX 24 24 0 -2
BITMAP
0E3820
0C3038
0D2630
0DFF30
1D8670
198663
19FE7F
39864C
3986CC
39FECC
79A6CC
58394C
D8324C
9BFF6C
18C02C
18CC28
18FE38
18CC38
19CC6C
198C6C
199CCE
1B1987
1AFB06
1C3602
ENDCHAR

STARTCHAR jisx0212_324F
ENCODING 12879
SWIDTH 960 0
DWIDTH 24 0
BBX 24 24 0 -2
BITMAP
0E0620
0CE377
0CCCE6
0CF7C6
1CD3B6
18C6DE
18DC66
38F326
38C186
38FFFE
78D8C6
5818C2
D830FF
986E7E
19CC08
1B1FFC
183838
186C70
18C6E0
1983C0
1A0EF0
183C7F
18F01E
1B8004
ENDCHAR

STARTCHAR jisx0212_3250
ENCODING 12880
SWIDTH 960 0
DWIDTH 24 0
BBX 24 24 0 -2
BITMAP
1C7070
18606C
186666
1BFF66
386060
306066
37FFFF
306060
706664
77FF67
706066
F46666
B7FF6E
36662C
37FE3C
36663C
37FE18
366639
30623D
3FFF6D
3060CF
306186
306307
306603
ENDCHAR

STARTCHAR jisx0212_3251
ENCODING 12881
SWIDTH 960 0
DWIDTH 24 0
BBX 24 24 0 -2
BITMAP
0E0002
0C0007
0DFFFF
0C0CC0
1C8CC6
18FFFF
18CCC6
38CCC6
38CCC6
38FFFE
78C006
586018
D86418
987E1A
18CFFF
18CD18
199DD8
19D998
1A799B
1833FF
186318
18C018
198018
1E0018
ENDCHAR

STARTCHAR jisx0212_3252
ENCODING 12882
SWIDTH 960 0
DWIDTH 24 0
BBX 24 24 0 -2
BITMAP
0E0380
0C0300
0C8306
0CFFFF
1D8027
1BBFFC
191310
383F3C
3873F0
39C3C0
7B1F0C
58FFFE
DF600C
98600C
187FFC
18600C
187FFC
18600C
18600C
187FFC
181000
183C78
18F01E
1B8007
ENDCHAR

STARTCHAR jisx0212_3253
ENCODING 12883
SWIDTH 960 0
DWIDTH 24 0
BBX 24 24 0 -2
BITMAP
0F0000
0DC806
0D9DFF
0DB806
1DE0CC
198478
198430
39FE18
38FC12
3903FF
79C033
598836
DBFD34
9B61F0
1E61B2
1865BF
1FFFB0
18C130
18F3B0
19DBF0
199A70
1B163F
1A040E
1C0800
ENDCHAR

STARTCHAR jisx0212_3254
ENCODING 12884
SWIDTH 960 0
DWIDTH 24 0
BBX 24 24 0 -2
BITMAP
0E00C0
0D08CC
0CCFFE
0C6CCC
1C6CCC
180FFC
1C0CCC
3B00C2
39BFFF
398804
780FFE
580C0C
D8CC0C
9BEFFC
18CC00
18CC06
18CFFF
18CC06
18CC06
18CFFE
19EC06
1FB800
1B1FFF
1A07FE
ENDCHAR

STARTCHAR jisx0212_3255
ENCODING 12885
SWIDTH 960 0
DWIDTH 24 0
BBX 24 24 0 -2
BITMAP
0E7000
0C6000
0CC006
0CFFFF
1DE498
1B6498
18649A
3BFFFF
386498
386498
78649A
5BFFFF
D86000
986418
18FF1A
18CDFF
198D98
19D998
1A799B
1C37FF
186018
18C018
198018
1A0018
ENDCHAR

STARTCHAR jisx0212_3256
ENCODING 12886
SWIDTH 960 0
DWIDTH 24 0
BBX 24 24 0 -2
BITMAP
0E0380
0C0300
0C8306
0CFFFF
1D8207
1B9984
1959AC
38D826
39DFF3
398FE2
78800C
58FFFE
D8CCCC
98CCCC
18CCCD
1BFFFF
180000
18000C
19FFFE
180300
180300
181F00
180600
180400
ENDCHAR

STARTCHAR jisx0212_3257
ENCODING 12887
SWIDTH 960 0
DWIDTH 24 0
BBX 24 24 0 -2
BITMAP
0E3838
0C3030
0CB4B2
0CB6B7
1DB9BC
1BB3B0
193130
38787C
386C6E
39CCC4
790106
5BFFFF
DF0207
9A0388
180306
1BFFFF
180F80
181FC0
183B70
18733C
19E31F
1B830E
1E0302
180300
ENDCHAR

STARTCHAR jisx0212_3258
ENCODING 12888
SWIDTH 960 0
DWIDTH 24 0
BBX 24 24 0 -2
BITMAP
0E0004
0C000E
0DFFFF
0C2300
1C3B70
18731E
18E307
3B8303
3DFFFE
398B16
79EFDE
59BB76
D99B36
99BF7E
19E7CE
198B16
19EFDE
19BB76
199B36
19BF7E
19E7CE
19C386
19833E
19830C
ENDCHAR

STARTCHAR jisx0212_3259
ENCODING 12889
SWIDTH 960 0
DWIDTH 24 0
BBX 24 24 0 -2
BITMAP
0E0180
0C8183
0CFFFF
0CC000
1CC618
18C61A
18FFFF
38C618
38C7F8
38C618
78C003
58FFFF
D8C0C0
98D0C6
18DFFF
19D8C6
199FFE
1998C6
1998C6
1B1FFE
1B0400
1A0F3C
1C3C0F
18E003
ENDCHAR

STARTCHAR jisx0212_325A
ENCODING 12890
SWIDTH 960 0
DWIDTH 24 0
BBX 24 24 0 -2
BITMAP
0E3060
0C3264
0DFFFE
0C3060
1C3266
1BFFFF
1870D0
386CD8
38CD8E
39830F
7B7FFA
586018
D86018
987FF8
186018
186018
187FF8
186018
186018
187FF8
181000
187C7C
19F00F
1F0003
ENDCHAR

STARTCHAR jisx0212_325B
ENCODING 12891
SWIDTH 960 0
DWIDTH 24 0
BBX 24 24 0 -2
BITMAP
0E0808
0D3D3E
0DF1F0
0D8180
1D8D86
19FFFF
199998
399998
3B1B18
3B0200
7AFFFC
5CC00C
D8C00C
98FFFC
18C00C
18C00C
18FFFC
18C00C
18C00C
18FFFC
181000
187C7C
19F00F
1F8003
ENDCHAR

STARTCHAR jisx0212_325C
ENCODING 12892
SWIDTH 960 0
DWIDTH 24 0
BBX 24 24 0 -2
BITMAP
1C7086
1860FF
1864C6
1BFEC6
3860C6
3064FE
33FEC6
3060C6
7066C6
77FFFE
7000C6
F20CC6
B3FEC6
336CFE
336C98
336CF8
336CD8
33FCD8
330CDA
330DDA
330D9A
337D9B
331B1F
33160E
ENDCHAR

STARTCHAR jisx0212_325D
ENCODING 12893
SWIDTH 960 0
DWIDTH 24 0
BBX 24 24 0 -2
BITMAP
1C6086
1878FF
1860C6
1864C6
3BFEC6
3210FE
311CC6
3198C6
71B0C6
7126FE
77FFC6
F060C6
B060C6
3064FE
33FE98
30E0F8
30F0D8
31F8D8
31ECDA
336DDA
32619A
34619B
38631F
30660E
ENDCHAR

STARTCHAR jisx0212_325E
ENCODING 12894
SWIDTH 960 0
DWIDTH 24 0
BBX 24 24 0 -2
BITMAP
0E4700
0C7630
0C661C
0CCC6E
1CFFF6
198D00
1A188C
3BFFFE
383060
386030
78FFFC
59E30F
DB7FF6
9C6302
187FF0
186300
18630C
187FFE
18648E
18926C
199B6C
1B9B1C
1B10F8
180030
ENDCHAR

STARTCHAR jisx0212_325F
ENCODING 12895
SWIDTH 960 0
DWIDTH 24 0
BBX 24 24 0 -2
BITMAP
1CE1C0
18C180
18C98C
1FFDFE
3A1180
31198C
3191FE
31B18C
71240C
7FFF0C
7001FC
F21980
B3FD8C
3319FE
331980
33F98C
3319FE
331980
33F98C
3319FE
331982
331986
3379FF
3330FE
ENDCHAR

STARTCHAR jisx0212_3260
ENCODING 12896
SWIDTH 960 0
DWIDTH 24 0
BBX 24 24 0 -2
BITMAP
0C1C00
0F3840
0C3FE0
0C608C
1CFFFE
19E00C
1B7FFC
383066
383F7C
383062
78377F
59FC3E
D8D8C0
983FE0
18618C
18FFFE
19E30C
1B630C
187FFC
1867A0
180F9A
183D8A
18F1FF
1B80FE
ENDCHAR

STARTCHAR jisx0212_3261
ENCODING 12897
SWIDTH 960 0
DWIDTH 24 0
BBX 24 24 0 -2
BITMAP
0E0300
0C0306
0DFFFF
0C0000
1C8C8C
18FEFE
18CCCC
38FCFC
38CCCC
380000
7818C4
59FFFE
D818C0
98FFFC
1818C2
1BFFFF
181D04
18388F
18F0DC
1BB070
1E33BC
19FE1F
18F006
188002
ENDCHAR

STARTCHAR jisx0212_3262
ENCODING 12898
SWIDTH 960 0
DWIDTH 24 0
BBX 24 24 0 -2
BITMAP
0C0700
0F0600
0C0C06
0C0FFF
1C1E38
193370
1961E0
3947F8
391E3F
39700E
793FFC
5939AC
D935BC
9935CC
193FFC
190180
193FFE
190180
197FFF
180000
182888
186666
18E663
18C443
ENDCHAR

STARTCHAR jisx0212_3263
ENCODING 12899
SWIDTH 960 0
DWIDTH 24 0
BBX 24 24 0 -2
BITMAP
1D000C
19FFFE
19998C
19998C
39998C
31FFFC
318108
30C1DC
71A198
773B26
7373FF
F36730
B0D730
319B36
3FFBFF
37CF30
30CB30
34E336
37D3FF
36DB30
34DB30
3CD336
38C3FF
30C200
ENDCHAR

STARTCHAR jisx0212_3264
ENCODING 12900
SWIDTH 960 0
DWIDTH 24 0
BBX 24 24 0 -2
BITMAP
1CB160
18B164
19FFFE
193260
383066
33FFFF
30D8DA
30DADA
71BD9F
73130E
76FFF8
F0C018
B0C018
30FFF8
30C018
30C018
30FFF8
30C018
30C018
30FFF8
302000
30F87C
33E00F
3E0003
ENDCHAR

STARTCHAR jisx0212_3265
ENCODING 12901
SWIDTH 960 0
DWIDTH 24 0
BBX 24 24 0 -2
BITMAP
000C00
000F00
000C00
080C08
0C0C1C
0FFFFE
0C0C00
0C0C00
0C0C00
0C1C00
0C1804
0C180E
7FFFFF
001800
003E00
003780
007600
006602
00E602
01C606
038604
0F060E
3C07FF
E003FE
ENDCHAR

STARTCHAR jisx0212_3266
ENCODING 12902
SWIDTH 960 0
DWIDTH 24 0
BBX 24 24 0 -2
BITMAP
000180
01FFC0
000100
020080
07A0C0
0E3870
1C703C
38661F
60C38E
8180E4
3FFFF0
1FC038
100018
018600
01E780
018600
018600
038602
030602
070606
0E0604
1C060E
7007FF
C003FE
ENDCHAR

STARTCHAR jisx0212_3267
ENCODING 12903
SWIDTH 960 0
DWIDTH 24 0
BBX 24 24 0 -2
BITMAP
100070
180FFC
1FFF80
180800
180E00
180C10
180C38
180FFC
180C00
180C00
180C04
180C0E
1FFFFF
186300
186300
386300
306300
306302
30E302
60C306
61C304
C3830E
8F03FF
3C01FE
ENDCHAR

STARTCHAR jisx0212_3268
ENCODING 12904
SWIDTH 960 0
DWIDTH 24 0
BBX 24 24 0 -2
BITMAP
030060
03C078
030060
230460
332666
3FF7FF
330660
330660
330660
330660
330660
333666
FFFFFF
0600C0
07C0F8
0F80F0
0D81F0
0D91B2
1991B2
199B32
31FB33
60F63F
C00C1E
801800
ENDCHAR

STARTCHAR jisx0212_3269
ENCODING 12905
SWIDTH 960 0
DWIDTH 24 0
BBX 24 24 0 -2
BITMAP
208208
31C31C
3FE3FE
30E30E
30C30C
30C30C
30C30C
30C30C
30FF0C
30C30C
30C00C
30000C
30000C
3FFFFC
30C30C
30C30C
00C300
01C302
018302
038306
070304
0E030E
3803FF
E001FE
ENDCHAR

STARTCHAR jisx0212_326A
ENCODING 12906
SWIDTH 960 0
DWIDTH 24 0
BBX 24 24 0 -2
BITMAP
001C00
001804
00180E
7FFFFF
000080
00FFC0
010080
03C040
0F0070
1E003C
77FFFF
C60034
060030
060030
060030
07FFF0
068630
00E602
00C602
01C606
038604
07060E
1C07FF
F003FE
ENDCHAR

STARTCHAR jisx0212_326B
ENCODING 12907
SWIDTH 960 0
DWIDTH 24 0
BBX 24 24 0 -2
BITMAP
000100
0181C0
7FC180
000380
000300
000330
00C618
FFE40C
333FFE
333F06
332004
331018
331FFC
331818
331818
331818
331818
331818
731FFA
63181A
630002
430006
C3FFFF
81FFFE
ENDCHAR

STARTCHAR jisx0212_326C
ENCODING 12908
SWIDTH 960 0
DWIDTH 24 0
BBX 24 24 0 -2
BITMAP
0600C0
0780F0
3E07C0
3606C4
3666CE
7FFFFF
660CC0
4608C0
C618C0
8610C4
0660CE
FFFFFF
198330
198330
198330
198330
198330
398732
31B632
31EE32
67CC33
63183F
C2701E
80C000
ENDCHAR

STARTCHAR jisx0212_326D
ENCODING 12909
SWIDTH 960 0
DWIDTH 24 0
BBX 24 24 0 -2
BITMAP
0E00C0
0C20C4
8CBFFE
CCF330
4DB334
6DBFFE
6D3330
6E33F0
4C3004
0CBFFE
FFF0C0
3337FC
33364C
33364C
3337FC
33364C
33664C
3367FC
634220
63C79A
638E1A
433813
C3FFFF
81FFFE
ENDCHAR

STARTCHAR jisx0212_326E
ENCODING 12910
SWIDTH 960 0
DWIDTH 24 0
BBX 24 24 0 -2
BITMAP
000400
600E00
79FF00
600C00
600C00
600E00
601A00
601A00
601B00
603900
603180
603180
6070C0
6060E0
60E070
60C078
61803E
63001F
66000E
6C0004
700000
7FFFFF
3FFFFF
000000
ENDCHAR

STARTCHAR jisx0212_326F
ENCODING 12911
SWIDTH 960 0
DWIDTH 24 0
BBX 24 24 0 -2
BITMAP
000180
00FFC0
020100
0780C0
0E0070
1C003C
7FFFFF
CC1834
0C1830
0FFFF0
0C1830
0C1830
0FFFF0
0CC330
00C308
3FFFFC
00C300
00C306
FFFFFF
008000
01E3E0
07807C
1E001E
700006
ENDCHAR

STARTCHAR jisx0212_3270
ENCODING 12912
SWIDTH 960 0
DWIDTH 24 0
BBX 24 24 0 -2
BITMAP
400008
60001C
7FFFFE
60000E
60000C
60000C
60010C
60038C
67FFCC
60000C
60000C
60000C
60008C
6001CC
6FFFEC
60000C
60000C
60000C
60000C
60000C
60000C
6001FC
600038
600010
ENDCHAR

STARTCHAR jisx0212_3271
ENCODING 12913
SWIDTH 960 0
DWIDTH 24 0
BBX 24 24 0 -2
BITMAP
080040
0C00E0
0FFFF0
0C0070
0C0060
0C0060
0C0062
0C0067
FFFFFF
0C0060
0C0060
0C0060
0C0062
0C0067
FFFFFF
0C0060
0C0060
0C0060
0C0060
0C0060
0C0060
0C0FE0
0C01C0
0C0080
ENDCHAR

STARTCHAR jisx0212_3272
ENCODING 12914
SWIDTH 960 0
DWIDTH 24 0
BBX 24 24 0 -2
BITMAP
400008
60001C
7FFFFE
60000E
60000C
60000C
61020C
61870C
61FF8C
61838C
61830C
61830C
61830C
61830C
61830C
61FF0C
61830C
61830C
61800C
60000C
60000C
6001FC
600038
600010
ENDCHAR

STARTCHAR jisx0212_3273
ENCODING 12915
SWIDTH 960 0
DWIDTH 24 0
BBX 24 24 0 -2
BITMAP
040040
0600E0
07FFF0
060070
060060
061060
061FE0
061860
061860
061860
061860
26186C
3FFFFE
30000E
30000C
30000C
30000C
30000C
30000C
30000C
30000C
3001FC
300038
300010
ENDCHAR

STARTCHAR jisx0212_3274
ENCODING 12916
SWIDTH 960 0
DWIDTH 24 0
BBX 24 24 0 -2
BITMAP
003000
003C00
003000
083000
08300C
1FFFFE
18300F
30300C
703C18
607F10
006C00
006C00
006C00
00EC00
00CC00
01CC00
018C00
038C02
070C02
0E0C06
1C0C04
380C0E
700FFF
C007FE
ENDCHAR

STARTCHAR jisx0212_3275
ENCODING 12917
SWIDTH 960 0
DWIDTH 24 0
BBX 24 24 0 -2
BITMAP
100000
10000C
1FFFFE
30000F
30001C
740050
6600E0
07FFF0
060070
060060
060060
060060
07FFE0
060060
060060
060060
060060
07FFE0
060060
060060
060062
060067
FFFFFF
000000
ENDCHAR

STARTCHAR jisx0212_3276
ENCODING 12918
SWIDTH 960 0
DWIDTH 24 0
BBX 24 24 0 -2
BITMAP
100000
10000C
1FFFFE
30000F
30009C
7001D0
67FFE0
000004
00000E
7FFFFF
007000
01E018
07903E
1E3878
70ECE0
01CF80
071F00
1C7780
70E6E0
038678
0E0E3F
38FC1E
E03804
002000
ENDCHAR

STARTCHAR jisx0212_3277
ENCODING 12919
SWIDTH 960 0
DWIDTH 24 0
BBX 24 24 0 -2
BITMAP
100000
10000C
3FFFFE
30000F
70101C
203810
7FFC00
186000
186018
1867FC
1FE21E
186218
186318
186138
1FE130
1861B0
1860F0
1860E0
1860E0
1BE1B0
FE633C
70661F
406C0E
007804
ENDCHAR

STARTCHAR jisx0212_3278
ENCODING 12920
SWIDTH 960 0
DWIDTH 24 0
BBX 24 24 0 -2
BITMAP
003000
003C00
003000
007008
00601C
7FFFFE
00C400
01C600
018300
038180
0700E0
0E6070
1C383C
381C1F
700E0E
C00604
000000
000000
0000E0
000F80
00FE00
0FF000
078000
040000
ENDCHAR

STARTCHAR jisx0212_3279
ENCODING 12921
SWIDTH 960 0
DWIDTH 24 0
BBX 24 24 0 -2
BITMAP
000380
600300
382330
1C3B18
0D330C
097306
026307
026303
06C31A
04BFFC
0D0300
0C0300
180300
180304
38030E
F1FFFF
300300
300300
300300
380300
380300
780300
700300
200300
ENDCHAR

STARTCHAR jisx0212_327A
ENCODING 12922
SWIDTH 960 0
DWIDTH 24 0
BBX 24 24 0 -2
BITMAP
004004
60600E
387FFF
1C6007
0D6006
096006
026006
027FFE
066186
046180
0C6184
0C618E
187FFF
1860C0
3860C0
F060E0
306060
306071
306031
3860FB
386F9F
7BFC0E
71E007
210003
ENDCHAR

STARTCHAR jisx0212_327B
ENCODING 12923
SWIDTH 960 0
DWIDTH 24 0
BBX 24 24 0 -2
BITMAP
000300
6023C0
383B00
1C3308
0D731C
097FFE
026300
02C300
068300
050304
0C030E
0DFFFF
1818C0
1818C0
3818C0
F018C0
3038C2
3030C2
3030C6
3870C4
3860CE
78C0FF
73807E
260000
ENDCHAR

STARTCHAR jisx0212_327C
ENCODING 12924
SWIDTH 960 0
DWIDTH 24 0
BBX 24 24 0 -2
BITMAP
000780
600700
380F80
1C0C80
0D1CC0
091860
023870
027038
0660DE
04FFEF
0D8006
0F0002
188010
18C038
38FFFC
F0C01C
30C018
30C018
30C018
38C018
38C018
78FFF8
70C018
20C018
ENDCHAR

STARTCHAR jisx0212_327D
ENCODING 12925
SWIDTH 960 0
DWIDTH 24 0
BBX 24 24 0 -2
BITMAP
000700
600600
380618
1CFFFC
0C0618
080618
00061B
03FFFF
020618
060618
040618
0CFFF8
0C0618
180600
180618
39FFFC
F00600
300604
30060E
3BFFFF
380600
780600
700600
200600
ENDCHAR

STARTCHAR jisx0212_327E
ENCODING 12926
SWIDTH 960 0
DWIDTH 24 0
BBX 24 24 0 -2
BITMAP
001C00
601800
383860
1C3FF0
0D60C0
096180
02C30C
03FFFE
06C30E
04C30C
0CC30C
0CC70C
18C60C
18FFFC
38C60C
F0CF80
300F02
301B02
301B06
383304
38630E
78C3FF
7381FE
260000
ENDCHAR

STARTCHAR jisx0212_3321
ENCODING 13089
SWIDTH 960 0
DWIDTH 24 0
BBX 24 24 0 -2
BITMAP
004030
6061FC
387FC0
1C6430
0D621C
09630E
02C306
02C204
068018
05FFFC
0D0318
0C0318
18031B
19FFFF
380318
F00318
300318
30FFF8
300318
380300
380300
783F00
700600
200400
ENDCHAR

STARTCHAR jisx0212_3322
ENCODING 13090
SWIDTH 960 0
DWIDTH 24 0
BBX 24 24 0 -2
BITMAP
000070
60006C
380066
1C8066
0CC061
08FFFF
02C060
02C060
06C364
04FFE7
0CC066
0CD36E
18DFEC
18D37C
38D338
F0D338
31D330
319F71
3190F9
3991DB
3B039F
7B070E
760C07
241003
ENDCHAR

STARTCHAR jisx0212_3323
ENCODING 13091
SWIDTH 960 0
DWIDTH 24 0
BBX 24 24 0 -2
BITMAP
000700
600600
38060C
1DFFFE
0C0C00
080C18
02FFFC
021880
0418C6
07FFFF
0C3060
0C6030
1861B8
18C7DE
39BE0F
F30606
36061A
3DFFFC
300D00
381CC0
383878
78703F
71E01E
270004
ENDCHAR

STARTCHAR jisx0212_3324
ENCODING 13092
SWIDTH 960 0
DWIDTH 24 0
BBX 24 24 0 -2
BITMAP
000300
60C3CC
38F30F
1CC30C
0CC30C
08C30C
02FFFC
02C00C
060006
05FFFF
0C0000
0C4018
187FFC
186018
386018
F06018
307FF8
302040
303070
3818E0
3818C4
78118E
73FFFF
200000
ENDCHAR

STARTCHAR jisx0212_3325
ENCODING 13093
SWIDTH 960 0
DWIDTH 24 0
BBX 24 24 0 -2
BITMAP
000004
60000E
39FFFF
1C0CC0
0C0CC0
088CCC
02FFFE
02CCCC
06CCCC
04CCCC
0CCCCC
0CFFFC
18C60C
180600
380606
F7FFFF
301F80
303EC0
307670
38E63C
39C61F
7B060E
7C0602
200600
ENDCHAR

STARTCHAR jisx0212_3326
ENCODING 13094
SWIDTH 960 0
DWIDTH 24 0
BBX 24 24 0 -2
BITMAP
004000
604006
38FFFF
1DC007
0D800C
084018
027FFC
026018
066018
047FF8
0C6018
0C6018
187FF8
186218
380384
F0030E
33FFFF
300000
3010C0
383C78
38701E
78E00F
738007
260002
ENDCHAR

STARTCHAR jisx0212_3327
ENCODING 13095
SWIDTH 960 0
DWIDTH 24 0
BBX 24 24 0 -2
BITMAP
011000
01DC06
61989F
319AF8
3BFFC0
1998C0
1598C0
0598C2
0DF8C7
0D98FF
0998CC
1998CC
19F8CC
1998CC
3198CC
F198CC
319ACC
37FFCC
31218C
39D18C
3B9B8C
7B1B0C
76060C
2C0C0C
ENDCHAR

STARTCHAR jisx0212_3328
ENCODING 13096
SWIDTH 960 0
DWIDTH 24 0
BBX 24 24 0 -2
BITMAP
010000
61E146
31BFFF
39B466
19B466
11B566
05BFE6
05B366
0DB37E
0DB366
09BF60
19B462
19B462
19B462
33B566
F33FFF
33303E
360000
349198
3998CC
399CE6
7B0C67
770C63
260842
ENDCHAR

STARTCHAR jisx0212_3329
ENCODING 13097
SWIDTH 960 0
DWIDTH 24 0
BBX 24 24 0 -2
BITMAP
001000
001C00
003800
023100
036380
03FFC0
0301C0
030180
030180
030180
030180
030180
030180
030180
030180
070180
060182
060182
0E0186
0C0184
1C018E
3801FF
7000FE
C00000
ENDCHAR

STARTCHAR jisx0212_332A
ENCODING 13098
SWIDTH 960 0
DWIDTH 24 0
BBX 24 24 0 -2
BITMAP
100008
18001C
1FFFFE
18000E
18000C
18000C
1FFFFC
18000C
184080
1861C0
187FE0
1860E0
1860C0
1860C0
1860C0
1860C0
38E0C2
30C0C2
30C0C2
7180C6
6180C6
6300FF
C6007E
8C0000
ENDCHAR

STARTCHAR jisx0212_332B
ENCODING 13099
SWIDTH 960 0
DWIDTH 24 0
BBX 24 24 0 -2
BITMAP
100010
180038
1FFFFC
18001C
180098
1801D8
1BFFD8
183818
183018
192198
19FFD8
1981D8
198198
198198
19FF98
398198
31819C
31818D
31818D
71FF8F
61818F
618006
C00007
800003
ENDCHAR

STARTCHAR jisx0212_332C
ENCODING 13100
SWIDTH 960 0
DWIDTH 24 0
BBX 24 24 0 -2
BITMAP
100010
180038
1FFFFC
18211C
18F798
1BDE18
184898
1BFFD8
184818
1BFF98
184998
184998
1FFFF8
184998
184998
3BFF98
30CE1C
31CF0D
33CDCD
76CCEF
6CCC7F
78CC26
C0CC07
80CC03
ENDCHAR

STARTCHAR jisx0212_332D
ENCODING 13101
SWIDTH 960 0
DWIDTH 24 0
BBX 24 24 0 -2
BITMAP
006420
1FF678
00E3E4
19C18F
0F86DC
077F70
0E003C
1E00DF
73FFE6
C300C2
0300C0
03FFC0
00C184
00630E
7FFFFF
000000
010180
01FFC0
018180
018182
038182
070186
1E01FF
F800FE
ENDCHAR

STARTCHAR jisx0212_332E
ENCODING 13102
SWIDTH 960 0
DWIDTH 24 0
BBX 24 24 0 -2
BITMAP
00400C
607FFE
386300
196318
127FFC
066300
046318
0C7FFC
186300
386306
F07FFF
30A486
319266
339B46
73123E
71018C
21FFC0
018180
018182
038182
030186
070186
1E01FF
F800FE
ENDCHAR

STARTCHAR jisx0212_332F
ENCODING 13103
SWIDTH 960 0
DWIDTH 24 0
BBX 24 24 0 -2
BITMAP
001800
001E00
401804
701807
601806
601806
601846
6018E6
67FFF6
601806
601806
601806
601806
601806
601806
601826
601876
6FFFFE
600006
600006
600006
7FFFFE
600006
600006
ENDCHAR

STARTCHAR jisx0212_3330
ENCODING 13104
SWIDTH 960 0
DWIDTH 24 0
BBX 24 24 0 -2
BITMAP
000008
00001C
7FFFFE
00000E
00000C
00000C
00000C
00000C
00000C
0001CC
001F0C
03F80C
7FC00C
3E000C
20000C
00000C
00000C
00001C
000018
000018
000E38
0003F0
0000E0
000080
ENDCHAR

STARTCHAR jisx0212_3331
ENCODING 13105
SWIDTH 960 0
DWIDTH 24 0
BBX 24 24 0 -2
BITMAP
000180
0001E0
000180
018180
01E180
018180
018180
018180
018180
018180
018180
018180
018180
018180
018180
018180
018180
018180
000180
000180
000180
003F80
000700
000200
ENDCHAR

STARTCHAR jisx0212_3332
ENCODING 13106
SWIDTH 960 0
DWIDTH 24 0
BBX 24 24 0 -2
BITMAP
000040
0000E0
7FFFF0
00C070
00C060
00C060
08C060
08C068
18C06C
18C066
31C066
318067
718063
E18063
E38063
430062
070060
0600E0
0E00C0
0C00C0
1801C0
303F80
600700
C00400
ENDCHAR

STARTCHAR jisx0212_3333
ENCODING 13107
SWIDTH 960 0
DWIDTH 24 0
BBX 24 24 0 -2
BITMAP
0E0004
0D8007
0CE006
0C7086
0C60E6
0C0CC6
0DFEC6
FF00C6
0610C6
061CC6
0638C6
0730C6
0370C6
03E0C6
03C0C6
0180C6
03C4C6
07C4C6
0EEC06
1C7C06
383806
601C7E
C00C0C
000008
ENDCHAR

STARTCHAR jisx0212_3334
ENCODING 13108
SWIDTH 960 0
DWIDTH 24 0
BBX 24 24 0 -2
BITMAP
001004
003807
7FFC06
000086
0000E6
0000C6
0000C6
0008C6
001CC6
FFFEC6
0C60C6
0C60C6
0C60C6
0C60C6
0C60C6
0C60C6
1C60C6
1860C6
186006
306706
307C06
63F07E
C1C00C
810008
ENDCHAR

STARTCHAR jisx0212_3335
ENCODING 13109
SWIDTH 960 0
DWIDTH 24 0
BBX 24 24 0 -2
BITMAP
000020
000070
1FFFF8
006038
00E030
00C030
01C070
038060
0700E0
0E0FC0
380380
604204
00E00E
FFF7FF
0C70C7
0C60C6
1C61C6
186186
186186
30E38E
30C30C
6FC6FC
C38C38
821820
ENDCHAR

STARTCHAR jisx0212_3336
ENCODING 13110
SWIDTH 960 0
DWIDTH 24 0
BBX 24 24 0 -2
BITMAP
101004
183807
1FFC06
181C86
1818E6
1818C6
1818C6
1818C6
1FF8C6
1818C6
1818C6
1818C6
1818C6
1818C6
1FF8C6
1818C6
1818C6
3818C6
301806
301806
601806
61F87E
C0300C
802008
ENDCHAR

STARTCHAR jisx0212_3337
ENCODING 13111
SWIDTH 960 0
DWIDTH 24 0
BBX 24 24 0 -2
BITMAP
030004
03C007
030006
030886
031CE6
FFFEC6
0000C6
0020C6
0038C6
0030C6
3070C6
1C60C6
07E0C6
03C0C6
01C0C6
03E0C6
0370C6
0738C6
0E3806
0C1806
181006
30007E
60000C
C00008
ENDCHAR

STARTCHAR jisx0212_3338
ENCODING 13112
SWIDTH 960 0
DWIDTH 24 0
BBX 24 24 0 -2
BITMAP
078004
070007
0EC006
0C7086
1C38E6
181CC6
300CC6
6068C6
DFF0C6
8000C6
0000C6
0018C6
7FFCC6
061CC6
0618C6
0618C6
0618C6
0618C6
06F806
063006
062006
06003E
06000C
060008
ENDCHAR

STARTCHAR jisx0212_3339
ENCODING 13113
SWIDTH 960 0
DWIDTH 24 0
BBX 24 24 0 -2
BITMAP
180004
1E0007
180806
181C86
3FFEE6
300EC6
300CC6
600CC6
618CC6
FFCCC6
B18CC6
318CC6
318CC6
318CC6
3F9CC6
3198C6
3018C6
31F8C6
307206
304206
300606
3FFF3E
1FFE0C
000008
ENDCHAR

STARTCHAR jisx0212_333A
ENCODING 13114
SWIDTH 960 0
DWIDTH 24 0
BBX 24 24 0 -2
BITMAP
3B8010
330038
333FFC
33031C
330318
334B18
FFEB18
330B18
331B18
331B18
333B1C
33331E
33031A
33671B
FFF61B
33061B
330E1B
730C3A
630C30
631830
631870
C333E0
C360C0
834080
ENDCHAR

STARTCHAR jisx0212_333B
ENCODING 13115
SWIDTH 960 0
DWIDTH 24 0
BBX 24 24 0 -2
BITMAP
030004
03C007
030006
031886
7FFCE6
0300C6
0300C6
0300C6
0308C6
031CC6
FFFEC6
0200C6
0380C6
0300C6
0318C6
7FFCC6
0300C6
0300C6
030006
030E06
03F806
FFC07E
7C000C
400008
ENDCHAR

STARTCHAR jisx0212_333C
ENCODING 13116
SWIDTH 960 0
DWIDTH 24 0
BBX 24 24 0 -2
BITMAP
000404
000E07
FFFF06
183086
1830E6
1830C6
1830C6
1FF0C6
1830C6
1830C6
1830C6
1830C6
1FF0C6
1830C6
1830C6
1830C6
1830C6
19F0C6
FF3006
783006
403006
00307E
00300C
003008
ENDCHAR

STARTCHAR jisx0212_333D
ENCODING 13117
SWIDTH 960 0
DWIDTH 24 0
BBX 24 24 0 -2
BITMAP
060004
07800E
061FFF
0600C7
0664C6
7FF4C6
060CC6
060EC6
061AC6
060AC6
0633C6
FFF9C6
0E01C6
0C00C6
0D81E6
18C1B6
18639E
10730E
33F707
FF360F
782C1D
401BF8
003070
006040
ENDCHAR

STARTCHAR jisx0212_333E
ENCODING 13118
SWIDTH 960 0
DWIDTH 24 0
BBX 24 24 0 -2
BITMAP
000404
000E07
FFFF06
000086
0000E6
2010C6
3038C6
3FFCC6
301CC6
3018C6
3018C6
3018C6
3FF8C6
3018C6
1020C6
1838C6
0C70C6
0C60C6
0C6006
08CE06
03F806
FF807E
78000C
400008
ENDCHAR

STARTCHAR jisx0212_333F
ENCODING 13119
SWIDTH 960 0
DWIDTH 24 0
BBX 24 24 0 -2
BITMAP
010004
01C007
118806
1D8E46
198C76
198C66
199C66
399866
319C66
3DB666
67B366
67E366
C5C266
818466
018E66
7FFF66
018066
018066
018006
018F06
03F806
FFC03E
7C000C
400008
ENDCHAR

STARTCHAR jisx0212_3340
ENCODING 13120
SWIDTH 960 0
DWIDTH 24 0
BBX 24 24 0 -2
BITMAP
044004
077007
066006
066046
066676
FE7F66
066066
066066
066066
066466
7E7E66
066066
066066
066066
066066
1E6666
F67F66
EE6066
8C6006
1C6006
186006
30603E
60600C
C06008
ENDCHAR

STARTCHAR jisx0212_3341
ENCODING 13121
SWIDTH 960 0
DWIDTH 24 0
BBX 24 24 0 -2
BITMAP
0E8004
0C6007
0C6C06
0FFE86
FC20E6
0678C6
06E0C6
03C4C6
078CC6
1DE8C6
78FCC6
CD3CC6
0CC0C6
0CCCC6
0FFEC6
FE10C6
063CC6
0770C6
03E006
03C406
07CC06
1EF83E
787C0C
C01C08
ENDCHAR

STARTCHAR jisx0212_3342
ENCODING 13122
SWIDTH 960 0
DWIDTH 24 0
BBX 24 24 0 -2
BITMAP
081004
0E1C07
0C1806
0C1A86
7FFFE6
0C18C6
0C18C6
0C18C6
0FF8C6
0C18C6
0C18C6
0C18C6
0FF8C6
0C18C6
0C18C6
0C1AC6
FFFFC6
0400C6
0F60C6
0E3806
1C1C06
380E3E
70060C
C00008
ENDCHAR

STARTCHAR jisx0212_3343
ENCODING 13123
SWIDTH 960 0
DWIDTH 24 0
BBX 24 24 0 -2
BITMAP
01C004
018007
018606
FFFF46
018076
218C66
3FFE66
318C66
318C66
3FFC66
318066
018C66
7FFE66
018C66
018D66
FFFFE6
018C66
018C66
7FFC06
018C06
018006
0F803E
03000C
020008
ENDCHAR

STARTCHAR jisx0212_3344
ENCODING 13124
SWIDTH 960 0
DWIDTH 24 0
BBX 24 24 0 -2
BITMAP
01C004
018007
218606
3FFF46
600776
E00C66
DC0866
184666
1B7F66
3FE666
336666
336666
636666
676666
766666
DE6666
8E7E66
0C6C66
1C6106
186106
306306
607FBE
C03F0C
800008
ENDCHAR

STARTCHAR jisx0212_3345
ENCODING 13125
SWIDTH 960 0
DWIDTH 24 0
BBX 24 24 0 -2
BITMAP
000004
060607
FFFF06
060646
6C6C76
3C3C66
181866
1C3C66
366666
66C666
C18066
060666
FFFF66
060666
0E0E66
6C6C66
3C3C66
1C1866
3E3E06
333706
636306
C0C23E
81800C
030008
ENDCHAR

STARTCHAR jisx0212_3346
ENCODING 13126
SWIDTH 960 0
DWIDTH 24 0
BBX 24 24 0 -2
BITMAP
018004
01E007
018006
018686
FFFFE6
0000C6
2008C6
301CC6
3FFEC6
300EC6
300CC6
300CC6
300CC6
3FFCC6
318CC6
0180C6
11B0C6
1D98C6
398C06
318E06
618606
CF847E
83000C
020008
ENDCHAR

STARTCHAR jisx0212_3347
ENCODING 13127
SWIDTH 960 0
DWIDTH 24 0
BBX 24 24 0 -2
BITMAP
030004
03C007
231006
233C86
6370E6
63C0C6
E700C6
C6C0C6
0E70C6
1C38C6
381CC6
730CC6
C3C0C6
2308C6
231EC6
6338C6
6360C6
E700C6
C6C006
0E7006
1C3806
381C7E
701C0C
C00808
ENDCHAR

STARTCHAR jisx0212_3348
ENCODING 13128
SWIDTH 960 0
DWIDTH 24 0
BBX 24 24 0 -2
BITMAP
038004
030007
070406
060E46
FFFF76
0C2066
1C3066
191C66
31CF66
6187E6
E18E66
3FFC66
318C66
318C66
3FFC66
318C66
318C66
3FFC66
318D06
318106
018106
01FFBE
00FF0C
000008
ENDCHAR

STARTCHAR jisx0212_3349
ENCODING 13129
SWIDTH 960 0
DWIDTH 24 0
BBX 24 24 0 -2
BITMAP
101004
183807
1FFC06
181C46
191876
19F866
199866
199866
199866
599A66
7FFF66
600666
600666
646666
67F666
666666
666666
666666
67E606
666606
660606
603E3E
600C0C
600808
ENDCHAR

STARTCHAR jisx0212_334A
ENCODING 13130
SWIDTH 960 0
DWIDTH 24 0
BBX 24 24 0 -2
BITMAP
01C004
018007
018606
FFFF06
0020E6
1E70C6
03C0C6
0770C6
1C38C6
4016C6
7FFFC6
6080C6
6EE0C6
6CCCC6
6FFEC6
78C0C6
70C8C6
67FCC6
60C0C6
60C006
C0DE06
FFF03E
9F000C
900008
ENDCHAR

STARTCHAR jisx0212_334B
ENCODING 13131
SWIDTH 960 0
DWIDTH 24 0
BBX 24 24 0 -2
BITMAP
018004
018607
FFFF06
018046
218C76
3FFE66
318C66
318C66
3FFC66
318C66
318C66
3FFC66
319066
01FC66
FF8E66
783666
403166
FFFFE6
203006
183006
0C3006
0DF03E
00600C
004008
ENDCHAR

STARTCHAR jisx0212_334C
ENCODING 13132
SWIDTH 960 0
DWIDTH 24 0
BBX 24 24 0 -2
BITMAP
000004
030607
FFFF06
1B1E46
333676
676666
8F8E66
1B1E66
333666
678666
8EE666
1C7866
391C66
738E66
C72666
0E7066
38E466
E3CF66
0F1C06
3C7806
E1E006
07807E
3E000C
E00008
ENDCHAR

STARTCHAR jisx0212_334D
ENCODING 13133
SWIDTH 960 0
DWIDTH 24 0
BBX 24 24 0 -2
BITMAP
001804
3FFC07
047006
03C046
018676
7FFF66
03C666
06CC66
1CC866
77C066
C18066
410666
7FFF66
648666
649666
68F666
700666
67E666
666606
666606
67E606
66063E
603E0C
600C08
ENDCHAR

STARTCHAR jisx0212_334E
ENCODING 13134
SWIDTH 960 0
DWIDTH 24 0
BBX 24 24 0 -2
BITMAP
400084
6001C7
7FFFE6
608806
68CE26
6CCC36
658C26
6598A6
611FE6
7FFCA6
622DA6
6ACD26
6A8C26
6A8C26
6A8C26
6A8C26
6F9E26
6A9B26
621986
463186
C431C6
CC60FE
98C0CC
B18088
ENDCHAR

STARTCHAR jisx0212_334F
ENCODING 13135
SWIDTH 960 0
DWIDTH 24 0
BBX 24 24 0 -2
BITMAP
000004
400C07
7FFE06
664C46
664C76
664C66
7FFC66
6E0C66
1C0666
1FFF66
360666
660666
C66666
FFF666
666666
666666
7FE666
668666
066606
07FE06
FF2C06
78FC3E
40380C
002008
ENDCHAR

STARTCHAR jisx0212_3350
ENCODING 13136
SWIDTH 960 0
DWIDTH 24 0
BBX 24 24 0 -2
BITMAP
03C004
038007
076006
063886
0C1CE6
186EC6
3FF7C6
6002C6
FFFCC6
39ACC6
3DBCC6
37ACC6
35CCC6
3FFCC6
300CC6
1018C6
1FFCC6
1818C6
1818C6
1FF806
181806
18183E
1FF80C
181808
ENDCHAR

STARTCHAR jisx0212_3351
ENCODING 13137
SWIDTH 960 0
DWIDTH 24 0
BBX 24 24 0 -2
BITMAP
01C004
1D8007
198C06
19FE46
198076
198366
FFFFE6
003666
403266
7FFFE6
603066
60B266
7FF3E6
623366
6A1766
6E9666
6AFE66
6ADC66
779C86
53BE86
E33786
C6633E
9CC38C
B18188
ENDCHAR

STARTCHAR jisx0212_3352
ENCODING 13138
SWIDTH 960 0
DWIDTH 24 0
BBX 24 24 0 -2
BITMAP
018004
131807
1FFC06
181846
1FF876
181866
1FF866
181866
1FF866
400666
7FFF66
618666
7FFE66
618666
7FFE66
600066
000366
FFFFE6
0C3006
0C3006
1C3006
38303E
70300C
C03008
ENDCHAR

STARTCHAR jisx0212_3353
ENCODING 13139
SWIDTH 960 0
DWIDTH 24 0
BBX 24 24 0 -2
BITMAP
020204
4F4F07
7C7C06
616146
7FFFF6
666666
666666
666666
C6C666
A08266
3FFF66
300666
300666
3FFE66
300666
3FFE66
300666
300666
3FFE06
340606
0F7006
1C1E3E
70070C
C00308
ENDCHAR

STARTCHAR jisx0212_3354
ENCODING 13140
SWIDTH 960 0
DWIDTH 24 0
BBX 24 24 0 -2
BITMAP
0E0004
0C2007
1FF006
304646
7FFF76
B00666
3FFE66
306766
3F7C66
306166
3F7FE6
FC3F66
6C6066
1FF066
30C666
7FFF66
B18666
318666
3FFE06
33D086
06C886
0CFFFE
387F8C
E00008
ENDCHAR

STARTCHAR jisx0212_3355
ENCODING 13141
SWIDTH 960 0
DWIDTH 24 0
BBX 24 24 0 -2
BITMAP
0E1C04
6C5807
6C5A06
7FFF46
CC9876
8C1B66
FFFFE6
262D66
26AD66
6F6FE6
C4C766
A08C66
3FFE66
300C66
3FFC66
300C66
3FFC66
300C66
300C06
3FFC06
080006
1E7C3E
780F0C
C00308
ENDCHAR

STARTCHAR jisx0212_3356
ENCODING 13142
SWIDTH 960 0
DWIDTH 24 0
BBX 24 24 0 -2
BITMAP
00E004
40C107
60C386
7FFFA6
620836
624926
7FFFA6
620826
6AAA26
6AAAA6
6AAAA6
724BA6
600026
61DC26
619926
6F9FA6
619826
6F9F26
619806
47D986
FD9FC6
D3183E
86180C
981808
ENDCHAR

STARTCHAR jisx0212_3357
ENCODING 13143
SWIDTH 960 0
DWIDTH 24 0
BBX 24 24 0 -2
BITMAP
400304
7FFF87
600306
7FFF26
600036
6EDE26
60C026
6EDE26
600026
6FFF26
6C9326
6FFF26
618026
630326
67FFA6
6C8326
77F326
649326
67F306
40A306
DFF306
CF173E
883E0C
800C08
ENDCHAR

STARTCHAR jisx0212_3358
ENCODING 13144
SWIDTH 960 0
DWIDTH 24 0
BBX 24 24 0 -2
BITMAP
0C0180
0F01E0
0C0180
0C0180
0C2180
0C7180
FFF980
0C3980
0C3180
0C3180
0C3180
0C3180
0C3180
1C3180
183180
183180
183180
383182
303182
307186
606184
67E18E
C1C1FF
8100FE
ENDCHAR

STARTCHAR jisx0212_3359
ENCODING 13145
SWIDTH 960 0
DWIDTH 24 0
BBX 24 24 0 -2
BITMAP
0020C0
20F8F0
33E0C0
3F00C0
3000C0
3000C4
3000CE
3037FF
3FF8C7
30C0C6
30C0C6
30C0C6
30C0C6
30C1C6
30C186
30C186
30C186
70C386
60C306
60C70E
40C60C
C0CCFC
80D838
00E020
ENDCHAR

STARTCHAR jisx0212_335A
ENCODING 13146
SWIDTH 960 0
DWIDTH 24 0
BBX 24 24 0 -2
BITMAP
0600C0
0780F0
0600C0
0610C0
0638C0
FFFCC4
0000CE
000FFF
10C0C7
1FE0C6
18E0C6
18C0C6
18C0C6
18C0C6
18C1C6
18C186
38C986
30C986
30DB06
60FB0E
607E0C
C00CFC
801838
003020
ENDCHAR

STARTCHAR jisx0212_335B
ENCODING 13147
SWIDTH 960 0
DWIDTH 24 0
BBX 24 24 0 -2
BITMAP
001C00
001800
001818
3FFFFC
00301C
007018
006018
00E038
01C030
0383F0
0E00E0
380080
0E00E0
0C60C6
FFF7FF
0C70C7
1C60C6
1861C6
186186
38E38E
30C30C
6FC6FC
C38C38
821820
ENDCHAR

STARTCHAR jisx0212_335C
ENCODING 13148
SWIDTH 960 0
DWIDTH 24 0
BBX 24 24 0 -2
BITMAP
0060C0
01F8F0
0FC0C0
7B00C0
0300C0
0300C4
0300CE
0337FF
7FF8C7
0300C6
0300C6
0300C6
0310C6
0339C6
FFFD86
030186
030186
030386
030306
03070E
03060C
7F0CFC
0E1838
043020
ENDCHAR

STARTCHAR jisx0212_335D
ENCODING 13149
SWIDTH 960 0
DWIDTH 24 0
BBX 24 24 0 -2
BITMAP
0010C0
0038F0
FFFCC0
0C00C0
0C00C0
0C00C4
1C00CE
1847FF
18E0C7
3FF0C6
3870C6
3860C6
7860C6
7861C6
D86186
986186
186186
186386
186306
1FE70E
18660C
180CFC
181838
003020
ENDCHAR

STARTCHAR jisx0212_335E
ENCODING 13150
SWIDTH 960 0
DWIDTH 24 0
BBX 24 24 0 -2
BITMAP
0200C0
0380F0
0700C0
0600C0
4C30C0
7FF8C4
6038CE
6037FF
6030C7
6030C6
6030C6
6030C6
7FF0C6
6031C6
603186
603186
603186
603386
603306
7FF70E
60360C
600CFC
601838
003020
ENDCHAR

STARTCHAR jisx0212_335F
ENCODING 13151
SWIDTH 960 0
DWIDTH 24 0
BBX 24 24 0 -2
BITMAP
003060
20FC78
33E060
3F0060
300060
301066
303BFF
3FFC67
300066
300066
301066
383866
3FFC66
3C1CE6
3C18C6
3C18C6
3C18C6
6C19C6
6C1986
6C198E
4FFB0C
CC1BFC
8C1638
000420
ENDCHAR

STARTCHAR jisx0212_3360
ENCODING 13152
SWIDTH 960 0
DWIDTH 24 0
BBX 24 24 0 -2
BITMAP
2040C0
3070F0
18E0C0
18C0C0
1980C0
1118C4
7FFCCE
0303FF
0300C7
0300C6
0330C6
3FF8C6
0300C6
0301C6
030186
037D86
FFC186
770386
460306
0E070E
0C060C
180CFC
301838
603020
ENDCHAR

STARTCHAR jisx0212_3361
ENCODING 13153
SWIDTH 960 0
DWIDTH 24 0
BBX 24 24 0 -2
BITMAP
0300C0
03C0F0
0300C0
0330C0
7FF8C0
0300C4
0300CE
0307FF
0318C7
FFFCC6
0200C6
0380C6
0300C6
0319C6
7FFD86
030186
030186
030386
033B06
03E70E
FF060C
780CFC
401838
003020
ENDCHAR

STARTCHAR jisx0212_3362
ENCODING 13154
SWIDTH 960 0
DWIDTH 24 0
BBX 24 24 0 -2
BITMAP
0400C0
0700F0
0E00C0
0C60C0
1830C0
3018C4
FFFCCE
7E0FFF
438CC7
2300C6
3B00C6
3318C6
7FFCC6
6301C6
C30186
830986
031D86
FFFF86
030306
03070E
03060C
030CFC
031838
033020
ENDCHAR

STARTCHAR jisx0212_3363
ENCODING 13155
SWIDTH 960 0
DWIDTH 24 0
BBX 24 24 0 -2
BITMAP
0000C0
4008F0
601CC0
7FFEC0
6000C0
6030C4
6FF8CE
6187FF
6180C7
6180C6
61B0C6
6FF8C6
6180C6
6181C6
618186
618186
619986
7FFF86
600306
601B0E
7FFE0C
600CFC
601838
003020
ENDCHAR

STARTCHAR jisx0212_3364
ENCODING 13156
SWIDTH 960 0
DWIDTH 24 0
BBX 24 24 0 -2
BITMAP
000804
001C07
7FFE86
0600E6
0618C6
0FFCC6
0C38C6
1830C6
3770C6
63E0C6
01C0C6
038006
07303E
1C3C0C
703008
00301C
7FFFFE
00600E
00E00C
01C01C
038018
0F03F8
3C0070
E00040
ENDCHAR

STARTCHAR jisx0212_3365
ENCODING 13157
SWIDTH 960 0
DWIDTH 24 0
BBX 24 24 0 -2
BITMAP
0380C0
0300F0
030CC0
FFFEC0
0300C0
0300C4
4318CE
7FFFFF
6018C7
6018C6
6018C6
6018C6
7FF8C6
6898C6
0EE1C6
0CC186
0CC186
1CC386
18CF06
38FB0E
37E60C
638CFC
C21838
803020
ENDCHAR

STARTCHAR jisx0212_3366
ENCODING 13158
SWIDTH 960 0
DWIDTH 24 0
BBX 24 24 0 -2
BITMAP
1C00C0
1810F0
1838C0
3FFCC0
3000C0
6000C4
7030CE
DFFFFF
9A30C7
1930C6
19B0C6
39B0C6
3134C6
FFFEC6
3460C6
3261C6
336186
736186
626B86
7FFF0E
60C30C
0FC6FC
038C38
021820
ENDCHAR

STARTCHAR jisx0212_3367
ENCODING 13159
SWIDTH 960 0
DWIDTH 24 0
BBX 24 24 0 -2
BITMAP
0300C0
03C0F0
0300C0
2330C0
3FF8C0
3030C4
3030CE
3037FF
3FF0C7
3030C6
3030C6
3030C6
3FF0C6
3011C6
363D86
337186
31C186
30E386
336306
3E770E
F8360C
602CFC
401838
003020
ENDCHAR

STARTCHAR jisx0212_3368
ENCODING 13160
SWIDTH 960 0
DWIDTH 24 0
BBX 24 24 0 -2
BITMAP
0010C0
FFF8F0
003CC0
18F0C0
0FC0C0
0700C4
4318CE
7FFFFF
6318C7
6318C6
6318C6
7FF8C6
6318C6
6318C6
6319C6
7FF986
631986
631986
631B86
631B0E
631B0C
63FEFC
633438
602820
ENDCHAR

STARTCHAR jisx0212_3369
ENCODING 13161
SWIDTH 960 0
DWIDTH 24 0
BBX 24 24 0 -2
BITMAP
0300C0
1340F0
1F30C0
3B18C0
330CC0
662CC4
DFF0CE
0683FF
0EC0C7
0C4CC6
FFFEC6
1830C6
3818C6
307CC6
7FEFC6
D86586
986186
186186
1BE386
18C30E
18930C
1816FC
1FFC38
0FF820
ENDCHAR

STARTCHAR jisx0212_336A
ENCODING 13162
SWIDTH 960 0
DWIDTH 24 0
BBX 24 24 0 -2
BITMAP
0300C0
03C0F0
0300C0
0318C0
7FFCC0
2040C4
3070CE
1867FF
18C0C7
18C0C6
108CC6
FFFEC6
0000C6
2030C6
3FF9C6
303186
303186
303186
303386
30330E
30370C
3FF6FC
300C38
301820
ENDCHAR

STARTCHAR jisx0212_336B
ENCODING 13163
SWIDTH 960 0
DWIDTH 24 0
BBX 24 24 0 -2
BITMAP
0300C0
03C0F0
0300C0
0318C0
FFFCC0
0300C4
2320CE
3B3FFF
3330C7
3330C6
3378C6
7B6CC6
6F4CC6
4F8DC6
C70986
8FC186
0F7186
1B3B86
331B06
63170E
C3060C
030CFC
031838
033020
ENDCHAR

STARTCHAR jisx0212_336C
ENCODING 13164
SWIDTH 960 0
DWIDTH 24 0
BBX 24 24 0 -2
BITMAP
000460
000E78
FFFF60
038060
030060
030060
460C66
7FFFFF
664C67
664C66
664C66
67CC66
664C66
664CE6
664CC6
664CC6
67CCC6
664DC6
664D86
664D8E
664F0C
7FFFFC
600638
600420
ENDCHAR

STARTCHAR jisx0212_336D
ENCODING 13165
SWIDTH 960 0
DWIDTH 24 0
BBX 24 24 0 -2
BITMAP
0000C0
4010F0
6038C0
7FFCC0
601CC0
6198C4
6FD8CE
601BFF
6198C7
6FD8C6
6018C6
2030C6
3FF8C6
3030C6
3031C6
3FF186
303186
303186
3FF386
30330E
30370C
3FF6FC
303C38
300820
ENDCHAR

STARTCHAR jisx0212_336E
ENCODING 13166
SWIDTH 960 0
DWIDTH 24 0
BBX 24 24 0 -2
BITMAP
2020C0
3070F0
3FF8C0
3030C0
3030C0
3030C4
3FF0CE
3037FF
4018C7
7FFCC6
6018C6
6018C6
7FF8C6
6018C6
6019C6
7FF986
601986
601986
7FFB86
719B0E
1CE70C
3876FC
702C38
C00820
ENDCHAR

STARTCHAR jisx0212_336F
ENCODING 13167
SWIDTH 960 0
DWIDTH 24 0
BBX 24 24 0 -2
BITMAP
006060
0FF078
104060
1C6060
383060
373860
66DE66
CC6DFF
7FF467
3C3066
202066
060C66
FFFE66
1E3C66
366C66
66CCE6
CF9CC6
1E3CC6
366DC6
66CD8E
C78D8C
3E7FFC
0C1E38
081420
ENDCHAR

STARTCHAR jisx0212_3370
ENCODING 13168
SWIDTH 960 0
DWIDTH 24 0
BBX 24 24 0 -2
BITMAP
0008C0
001CF0
FFFEC0
0480C0
4498C0
7FFCC4
6498CE
649BFF
6498C7
7FF8C6
6018C6
0030C6
7FF8C6
0000C6
0019C6
FFFD86
230186
3B4186
333386
731B0E
631F0C
DF06FC
860C38
041820
ENDCHAR

STARTCHAR jisx0212_3371
ENCODING 13169
SWIDTH 960 0
DWIDTH 24 0
BBX 24 24 0 -2
BITMAP
00C1C0
7FE190
00C30C
20DFFE
3FCEC7
3008CF
30CFFC
7FECCC
60CCCC
60CFFC
00CCD8
01C0CE
3FBFFF
071F03
043000
00300C
7FFFFE
00600E
00E00C
01C01C
038018
0F03F8
3C0070
E00040
ENDCHAR

STARTCHAR jisx0212_3372
ENCODING 13170
SWIDTH 960 0
DWIDTH 24 0
BBX 24 24 0 -2
BITMAP
0E00C0
0C00F0
1C60C0
1FF0C0
30C0C0
6198C4
FFFCCE
631BFF
6318C7
6318C6
7FF8C6
6708C6
0E1EC6
1D38C6
73E0C6
C6C1C6
1DF186
73D986
C6DF86
1CCF0E
71CB0C
DF86FC
070C38
040820
ENDCHAR

STARTCHAR jisx0212_3373
ENCODING 13171
SWIDTH 960 0
DWIDTH 24 0
BBX 24 24 0 -2
BITMAP
0240C0
2370F0
3A60C0
326CC0
FFFEC0
3260C4
33E0CE
3263FF
3018C7
3FFCC6
3000C6
2030C6
3FF8C6
3030C6
3FF1C6
303186
3FF186
303186
3FF386
30330E
1CC30C
3876FC
703C38
C00820
ENDCHAR

STARTCHAR jisx0212_3374
ENCODING 13172
SWIDTH 960 0
DWIDTH 24 0
BBX 24 24 0 -2
BITMAP
006060
07F878
7F8060
060660
FFFF60
0C6060
183866
3FFFFF
783E67
D83666
1FF066
183066
400C66
7FFE66
600CE6
68CCC6
6FECC6
6CCCC6
6CCCC6
6FCD8E
6CCD8C
607FFC
601A38
601420
ENDCHAR

STARTCHAR jisx0212_3375
ENCODING 13173
SWIDTH 960 0
DWIDTH 24 0
BBX 24 24 0 -2
BITMAP
138060
1F2078
3B1860
332C60
7FEC60
C68060
06C066
0C4DFF
FFFE67
193066
339C66
774F66
CCE666
85D266
0318E6
FFFCC6
7B0CC6
534CC6
1F3186
3B398E
331B0C
631BFC
C30638
030420
ENDCHAR

STARTCHAR jisx0212_3376
ENCODING 13174
SWIDTH 960 0
DWIDTH 24 0
BBX 24 24 0 -2
BITMAP
0E0404
0C060E
0C67FF
7FF667
0C6666
1C6666
18E666
38C7FE
37C666
618666
C00666
38E666
30C7FE
34D686
FFF860
2CB1B4
2CB5B6
2CB582
2CB583
6DB58B
4D3D8B
4D399A
FBE9FC
9240F8
ENDCHAR

STARTCHAR jisx0212_3377
ENCODING 13175
SWIDTH 960 0
DWIDTH 24 0
BBX 24 24 0 -2
BITMAP
0E7060
0C6078
0C6660
FFFF60
0C6060
0C6060
201866
3FFDFF
331867
3FF866
331866
3FF866
331866
430C66
7FFEE6
634CC6
632CC6
637CC6
7FBCC6
6E2D8E
680D8C
607FFC
601A38
601420
ENDCHAR

STARTCHAR jisx0212_3378
ENCODING 13176
SWIDTH 960 0
DWIDTH 24 0
BBX 24 24 0 -2
BITMAP
038060
031878
03FC60
430460
7FFE60
632660
63F866
7F09FF
63FC67
61F866
680C66
6FFE66
6CCC66
6FFC66
6CCCE6
6FFCC6
6C8CC6
60C0C6
4B6CC6
CB578E
DB138C
BBFBFC
91F238
000420
ENDCHAR

STARTCHAR jisx0212_3379
ENCODING 13177
SWIDTH 960 0
DWIDTH 24 0
BBX 24 24 0 -2
BITMAP
083020
1E3238
1BFF30
306863
68467F
CFFF6C
1D02CC
19FEAC
39872C
79FE38
D98618
19FE3C
19866E
19BEC7
198D82
183000
00300C
FFFFFE
00600E
00E00C
01C01C
0783F8
1E0070
F00040
ENDCHAR

STARTCHAR jisx0212_337A
ENCODING 13178
SWIDTH 960 0
DWIDTH 24 0
BBX 24 24 0 -2
BITMAP
01C060
018078
018660
FFFF60
000060
7EFC60
66CC66
7EFDFF
000067
0C6066
FFFE66
0C6066
7FFC66
0C6066
0C66E6
FFFFC6
0E08C6
1D9EC6
78F986
D8718E
1BBB0C
FE1AFC
701438
400820
ENDCHAR

STARTCHAR jisx0212_337B
ENCODING 13179
SWIDTH 960 0
DWIDTH 24 0
BBX 24 24 0 -2
BITMAP
030000
03C000
070008
06001C
0FFFFE
0C000E
18000C
30000C
60020C
C0070C
1FFF8C
00000C
00000C
00000C
0001CC
000F0C
01F80C
3FC01C
1E0018
100018
000038
0007F0
0000E0
000080
ENDCHAR

STARTCHAR jisx0212_337C
ENCODING 13180
SWIDTH 960 0
DWIDTH 24 0
BBX 24 24 0 -2
BITMAP
030000
03C000
070004
06000E
0FFFFF
0C0007
181806
301E06
781806
DE3806
183006
183806
187606
186306
18E186
18C1C6
1980C6
1B008E
1800CC
1FFFEC
18001C
1803F8
000070
000040
ENDCHAR

STARTCHAR jisx0212_337D
ENCODING 13181
SWIDTH 960 0
DWIDTH 24 0
BBX 24 24 0 -2
BITMAP
030000
03C000
070004
06000E
0FFFFF
0C0007
182006
383906
6431C6
C63386
033306
033606
023466
3FFFF6
007006
00FC06
01F706
03B38E
0731CC
0E30CC
18301C
3033F8
403070
003040
ENDCHAR

STARTCHAR jisx0212_337E
ENCODING 13182
SWIDTH 960 0
DWIDTH 24 0
BBX 24 24 0 -2
BITMAP
030000
03C000
070004
06000E
0FFFFF
0D0007
19C086
3381C6
63FFE6
C63006
0C3046
0830E6
3FFFF6
003006
0E30E6
0C30C6
0C30C6
0C30C6
0C30C6
0FFFCE
0C000C
0C01FC
000038
000020
ENDCHAR

STARTCHAR jisx0212_3421
ENCODING 13345
SWIDTH 960 0
DWIDTH 24 0
BBX 24 24 0 -2
BITMAP
060000
078000
0E0004
0C000E
1FFFFF
188007
30E006
61D006
C19806
030C06
060706
0C1BC6
1BFDE6
3000C6
680646
0FFF06
0C0606
0C0606
0C0606
0C060E
0C060C
0FFEFC
0C0638
000020
ENDCHAR

STARTCHAR jisx0212_3422
ENCODING 13346
SWIDTH 960 0
DWIDTH 24 0
BBX 24 24 0 -2
BITMAP
0E0000
0C0004
1C000E
1FFFFF
3A0007
3300C6
72DFE6
DFE0C6
98C0C6
18C8C6
1FCFC6
18CCC6
18CC06
1FCC06
18F8C6
18DFE6
1FD8C6
FBC0C6
66C0C6
0CC1CE
18C18C
37DFFC
418738
010420
ENDCHAR

STARTCHAR jisx0212_3423
ENCODING 13347
SWIDTH 960 0
DWIDTH 24 0
BBX 24 24 0 -2
BITMAP
0E0000
0C0004
1C000E
1FFFFF
340007
361186
641FC6
FF9986
B19996
319996
3FB1FE
31B0F6
31E046
3FBFE6
2010C6
3919C6
33C986
370F86
3C0706
308786
308DEE
3FD8CC
1FB0FC
004038
ENDCHAR

STARTCHAR jisx0212_3424
ENCODING 13348
SWIDTH 960 0
DWIDTH 24 0
BBX 24 24 0 -2
BITMAP
001084
601CE7
7839CE
60318C
606318
60C630
616318
63B18C
6738CE
6E18C6
781384
600300
602606
603FFF
603047
603C76
6133E6
6131C6
6131E6
633336
633636
7FB806
3F3FFE
003006
ENDCHAR

STARTCHAR jisx0212_3425
ENCODING 13349
SWIDTH 960 0
DWIDTH 24 0
BBX 24 24 0 -2
BITMAP
400008
60001C
7FFFFE
60C000
60F000
60C100
60C380
61FF80
618300
618300
630600
630700
660D00
6C0D80
681980
6030C0
6060E0
60C070
61807C
670038
6C0012
600007
7FFFFF
600000
ENDCHAR

STARTCHAR jisx0212_3426
ENCODING 13350
SWIDTH 960 0
DWIDTH 24 0
BBX 24 24 0 -2
BITMAP
400004
60000E
7FFFFF
600800
610E00
61CC30
618CF8
618FB8
61BC30
63EC30
6D8C30
618C30
618C30
618DF0
618C60
618C48
618008
618018
61FFFC
60FFF8
600004
60000E
7FFFFF
600000
ENDCHAR

STARTCHAR jisx0212_3427
ENCODING 13351
SWIDTH 960 0
DWIDTH 24 0
BBX 24 24 0 -2
BITMAP
400004
60000E
7FFFFF
600000
600000
600010
600038
63FFFC
600C00
600C00
600C00
600C00
600C00
600C00
600C00
600C08
600C1C
67FFFE
600000
600000
600004
60000E
7FFFFF
600000
ENDCHAR

STARTCHAR jisx0212_3428
ENCODING 13352
SWIDTH 960 0
DWIDTH 24 0
BBX 24 24 0 -2
BITMAP
400004
60000E
7FFFFF
601800
601E00
601808
60181C
6FFFFE
600000
608300
60FF80
60C380
60C300
60C300
60C304
60C304
61830C
61830C
6303FE
6601FC
6C0002
600007
7FFFFF
600000
ENDCHAR

STARTCHAR jisx0212_3429
ENCODING 13353
SWIDTH 960 0
DWIDTH 24 0
BBX 24 24 0 -2
BITMAP
400004
60000E
7FFFFF
602000
603800
607180
6060E0
60C070
6FFFF8
67F818
644110
6071C4
60618E
6FFFFF
606180
606180
606180
60C180
60C180
618180
630184
64000E
7FFFFF
600000
ENDCHAR

STARTCHAR jisx0212_342A
ENCODING 13354
SWIDTH 960 0
DWIDTH 24 0
BBX 24 24 0 -2
BITMAP
400004
60000E
7FFFFF
600800
600E00
600C08
600C1C
6FFFFE
610C40
61CC70
618C60
618C60
63DEF8
637ADC
665B8C
6C3188
6831C0
6060F0
60C07C
638038
6E0012
600007
7FFFFF
600000
ENDCHAR

STARTCHAR jisx0212_342B
ENCODING 13355
SWIDTH 960 0
DWIDTH 24 0
BBX 24 24 0 -2
BITMAP
400004
60000E
7FFFFF
604080
6470E0
6760C0
6660C0
6660C0
6660C6
67EFFF
6660C0
6060C0
6060C0
6FE0C0
6660C0
6660C0
6660C0
6660C0
6C60CC
6C6FFE
686002
700007
7FFFFF
600000
ENDCHAR

STARTCHAR jisx0212_342C
ENCODING 13356
SWIDTH 960 0
DWIDTH 24 0
BBX 24 24 0 -2
BITMAP
400004
60000E
7FFFFF
600800
640E10
670C1C
660C18
660C18
67FFF8
660C18
600C00
600018
67FFFC
600C00
600C30
63FFF8
600C00
600C00
600C0C
6FFFFE
600004
60000E
7FFFFF
600000
ENDCHAR

STARTCHAR jisx0212_342D
ENCODING 13357
SWIDTH 960 0
DWIDTH 24 0
BBX 24 24 0 -2
BITMAP
400004
60000E
7FFFFF
61C000
61800C
61FFFE
63198C
63318C
66330C
6C630C
68C61C
618CF8
631830
652020
61FFF8
618030
61FFF0
618030
618030
61FFF0
618032
600007
7FFFFF
600000
ENDCHAR

STARTCHAR jisx0212_342E
ENCODING 13358
SWIDTH 960 0
DWIDTH 24 0
BBX 24 24 0 -2
BITMAP
400004
60000E
7FFFFF
600180
61FFC0
608100
60E0C0
618370
637FBF
66000E
781912
67FDDC
661998
679B30
66DA20
661C40
679B30
66D998
6619DC
66F8CC
6630CC
600003
7FFFFF
600000
ENDCHAR

STARTCHAR jisx0212_342F
ENCODING 13359
SWIDTH 960 0
DWIDTH 24 0
BBX 24 24 0 -2
BITMAP
400004
60000E
7FFFFF
610200
61C380
619300
7FFB00
618330
699FF8
6FF330
693330
6FF330
693330
693330
6FF330
698732
619632
7FFE32
618C3F
61981E
61B002
600007
7FFFFF
600000
ENDCHAR

STARTCHAR jisx0212_3430
ENCODING 13360
SWIDTH 960 0
DWIDTH 24 0
BBX 24 24 0 -2
BITMAP
400006
7FFFFF
600000
64320C
67FBFE
66330C
66330C
67F3FC
620008
63FFFC
630C18
630C18
63FFF8
630C18
630C18
63FFF8
630C00
600C06
6FFFFF
600C00
600C04
600C0E
7FFFFF
600000
ENDCHAR

STARTCHAR jisx0212_3431
ENCODING 13361
SWIDTH 960 0
DWIDTH 24 0
BBX 24 24 0 -2
BITMAP
400004
60000E
7FFFFF
603000
603C08
60701C
7FFFFE
60C180
6180E0
63FFF8
66C0DF
6CC0CE
70FFC4
60C0C0
643218
67FBFC
663318
663318
663318
67F3F8
66331A
600007
7FFFFF
600000
ENDCHAR

STARTCHAR jisx0212_3432
ENCODING 13362
SWIDTH 960 0
DWIDTH 24 0
BBX 24 24 0 -2
BITMAP
400006
7FFFFF
600C00
67FFFC
600C00
63FFF8
600000
67FFFC
66322C
6663EC
66800C
67FFFC
66000C
61FFF0
618030
61FFF0
618030
61FFF0
618030
61FFF0
6060C2
638037
7FFFFF
600000
ENDCHAR

STARTCHAR jisx0212_3433
ENCODING 13363
SWIDTH 960 0
DWIDTH 24 0
BBX 24 24 0 -2
BITMAP
000004
00000E
FFFFFF
300C00
300F00
301D00
301980
3030C0
306070
30C1BC
31BFDF
33000E
360004
308030
30FFF8
30C038
30C030
30C030
30C030
30FFF0
30C030
380000
1FFFFF
0FFFFF
ENDCHAR

STARTCHAR jisx0212_3434
ENCODING 13364
SWIDTH 960 0
DWIDTH 24 0
BBX 24 24 0 -2
BITMAP
400006
7FFFFF
600000
610030
61FFF8
618038
618030
61FFF0
618030
618030
61FFF0
619830
603800
603006
6FFFFF
60E0C0
60C1C0
61FF80
6187E0
603C78
67E01A
600007
7FFFFF
600000
ENDCHAR

STARTCHAR jisx0212_3435
ENCODING 13365
SWIDTH 960 0
DWIDTH 24 0
BBX 24 24 0 -2
BITMAP
000000
000006
FFFFFF
300030
3203F8
33FF00
330018
33FFFC
330018
330018
33FFF8
330018
33000C
33FFFE
37998C
37998C
35FFFC
3D998C
39998C
3199BC
319998
380000
1FFFFF
0FFFFF
ENDCHAR

STARTCHAR jisx0212_3436
ENCODING 13366
SWIDTH 960 0
DWIDTH 24 0
BBX 24 24 0 -2
BITMAP
000040
0000E0
FFFFF0
000070
018060
01E060
018060
018060
018060
018060
018460
018E60
FFFF60
018060
018060
018070
018030
018031
018039
01801B
01801F
01800E
018007
018003
ENDCHAR

STARTCHAR jisx0212_3437
ENCODING 13367
SWIDTH 960 0
DWIDTH 24 0
BBX 24 24 0 -2
BITMAP
18C630
1EF7BC
18C630
18C630
18C630
18C630
18C630
18C630
18C630
18C636
FFFFFF
18C630
18C630
18C630
18C630
18C630
18C630
18C630
18C630
18C630
18C630
18C630
18C630
18C630
ENDCHAR

STARTCHAR jisx0212_3438
ENCODING 13368
SWIDTH 960 0
DWIDTH 24 0
BBX 24 24 0 -2
BITMAP
001800
001E00
001800
001804
00180E
7FFFFF
001800
001800
0C1830
0F183C
0C1830
0C1830
0C0033
FFFFFF
0C0030
0C0030
0C0030
0C0030
0C0030
0C0030
0C0030
0FFFF0
0C0030
0C0030
ENDCHAR

STARTCHAR jisx0212_3439
ENCODING 13369
SWIDTH 960 0
DWIDTH 24 0
BBX 24 24 0 -2
BITMAP
102030
1C383C
183030
183230
FFFF30
183030
183030
1FF030
183033
1837FF
1FF030
183030
183030
183230
FFFF30
666030
666430
666430
6C7E30
683C30
700030
600630
7FFF30
600030
ENDCHAR

STARTCHAR jisx0212_343A
ENCODING 13370
SWIDTH 960 0
DWIDTH 24 0
BBX 24 24 0 -2
BITMAP
100810
387C38
B400B4
67FF6F
6E006C
4C7C58
1A0034
137C26
FF81FF
C94493
7A7EF4
6B44D6
6944D3
497C93
C84192
881D10
001800
001806
FFFFFF
001800
001800
001800
001800
001800
ENDCHAR

STARTCHAR jisx0212_343B
ENCODING 13371
SWIDTH 960 0
DWIDTH 24 0
BBX 24 24 0 -2
BITMAP
003000
003C00
003000
003010
003038
003FFC
003000
003000
003004
00300E
FFFFFF
002000
003800
003000
003600
0033C0
0030F0
003078
003038
003010
003000
003000
003000
003000
ENDCHAR

STARTCHAR jisx0212_343C
ENCODING 13372
SWIDTH 960 0
DWIDTH 24 0
BBX 24 24 0 -2
BITMAP
003000
003C00
003008
00301C
003FFE
003000
203008
30301C
3FFFFE
30000E
30000C
300C0C
3FFE0C
300E0C
300C0C
300C0C
300C0C
3FFC0C
300C0C
300C0C
30000C
30000C
3FFFFC
30000C
ENDCHAR

STARTCHAR jisx0212_343D
ENCODING 13373
SWIDTH 960 0
DWIDTH 24 0
BBX 24 24 0 -2
BITMAP
003800
003008
00301C
003FFE
003000
403008
60301C
7FFFFE
60200E
60388C
6070EC
6C61CC
63C18C
61F38C
633F0C
660E0C
6C1F0C
703B8C
6071CC
60E0CC
63808C
66000C
7FFFFC
60000C
ENDCHAR

STARTCHAR jisx0212_343E
ENCODING 13374
SWIDTH 960 0
DWIDTH 24 0
BBX 24 24 0 -2
BITMAP
004000
00F404
13C60E
1E07FF
180607
180606
180606
180606
180606
180606
180606
180606
180606
180606
180606
18E606
1F8606
FC06FE
F0061C
400608
400600
000600
000600
000600
ENDCHAR

STARTCHAR jisx0212_343F
ENCODING 13375
SWIDTH 960 0
DWIDTH 24 0
BBX 24 24 0 -2
BITMAP
000000
000404
00660E
7FF7FF
060607
060606
060606
060606
060606
060606
060606
060606
060606
060606
063606
06E606
1F8606
FE06FE
70061C
400608
000600
000600
000600
000600
ENDCHAR

STARTCHAR jisx0212_3440
ENCODING 13376
SWIDTH 960 0
DWIDTH 24 0
BBX 24 24 0 -2
BITMAP
000000
001906
7FFDFF
061D87
061986
061986
0E1986
0C1986
1C3986
183186
33F186
60E186
C08186
201986
3FFD86
301986
301986
3019BE
30198C
301988
301980
3FF980
301980
301980
ENDCHAR

STARTCHAR jisx0212_3441
ENCODING 13377
SWIDTH 960 0
DWIDTH 24 0
BBX 24 24 0 -2
BITMAP
020000
038000
030106
0601FF
441987
7FFD86
649D86
649986
649986
649986
649986
649986
649986
649986
649986
649986
649986
649F86
64F9BE
6FC18C
FE0188
F00180
800180
000180
ENDCHAR

STARTCHAR jisx0212_3442
ENCODING 13378
SWIDTH 960 0
DWIDTH 24 0
BBX 24 24 0 -2
BITMAP
000000
448906
7EFDFF
64C987
64C986
64C986
7CF986
64C986
600186
003186
3FF986
000186
000D86
FFFF86
0C0186
1C3186
1FF986
3839BE
30318C
007188
006180
07E180
01C180
010180
ENDCHAR

STARTCHAR jisx0212_3443
ENCODING 13379
SWIDTH 960 0
DWIDTH 24 0
BBX 24 24 0 -2
BITMAP
01C000
018000
038300
03FF80
060700
0E0600
0C0C04
18180E
3FFFFF
6C0000
CC0000
0C0000
0C0000
0C0000
0C0000
0C0000
0C0000
1C0000
180000
180000
300000
300000
600000
C00000
ENDCHAR

STARTCHAR jisx0212_3444
ENCODING 13380
SWIDTH 960 0
DWIDTH 24 0
BBX 24 24 0 -2
BITMAP
200004
30000E
3FFFFF
300000
300060
3001F8
300FC0
307E00
33CC00
300C00
300C04
300C0E
300FFF
3FFC00
300C00
300C00
300C02
300C02
600C06
600C04
600C0E
400FFF
C007FE
800000
ENDCHAR

STARTCHAR jisx0212_3445
ENCODING 13381
SWIDTH 960 0
DWIDTH 24 0
BBX 24 24 0 -2
BITMAP
200004
30000E
3FFFFF
300000
300000
300008
30001C
33FFFE
300600
300600
300600
300600
300604
30060E
37FFFF
300600
300600
300600
600600
600600
600600
400600
C00600
800600
ENDCHAR

STARTCHAR jisx0212_3446
ENCODING 13382
SWIDTH 960 0
DWIDTH 24 0
BBX 24 24 0 -2
BITMAP
200004
30000E
3FFFFF
300020
3100F0
318FF8
31FF00
318300
318300
318304
31830E
31FFFF
318180
318180
318180
3181C0
318EC0
31F8E1
6FE061
670073
64013B
40039E
CFFFCF
800003
ENDCHAR

STARTCHAR jisx0212_3447
ENCODING 13383
SWIDTH 960 0
DWIDTH 24 0
BBX 24 24 0 -2
BITMAP
200004
30000E
3FFFFF
300800
300E00
300C10
300C38
33FFFC
300C00
300C00
300C08
300C1C
37FFFE
300800
300E00
300C10
300C38
33FFFC
600C00
600C00
600C04
400C0E
DFFFFF
800000
ENDCHAR

STARTCHAR jisx0212_3448
ENCODING 13384
SWIDTH 960 0
DWIDTH 24 0
BBX 24 24 0 -2
BITMAP
200004
30000E
3FFFFF
300000
300008
30001C
37FFFE
303800
303180
3030E0
306070
3047F8
37FE1C
33C81C
320E08
300C10
300C38
37FFFC
600C00
600C00
600C04
400C0E
DFFFFF
800000
ENDCHAR

STARTCHAR jisx0212_3449
ENCODING 13385
SWIDTH 960 0
DWIDTH 24 0
BBX 24 24 0 -2
BITMAP
200004
30000E
3FFFFF
300400
300704
30060E
37FFFF
300600
310618
31FFFC
31861C
318618
31FFF8
318618
318618
318618
31FFF8
31861A
600607
6FFFFF
600600
400600
C00600
800600
ENDCHAR

STARTCHAR jisx0212_344A
ENCODING 13386
SWIDTH 960 0
DWIDTH 24 0
BBX 24 24 0 -2
BITMAP
200004
30000E
3FFFFF
304100
3071C0
306188
30619C
37FFFE
306180
306184
30618E
3FFFFF
300000
310030
31FFF8
318038
318030
318030
61FFF0
618030
618030
418030
C1FFF0
818030
ENDCHAR

STARTCHAR jisx0212_344B
ENCODING 13387
SWIDTH 960 0
DWIDTH 24 0
BBX 24 24 0 -2
BITMAP
200004
30000E
3FFFFF
300800
300E00
311818
31FFFC
31801C
318018
31FFF8
318018
318018
31FFF8
318608
30360C
37FF1E
3076B8
30E6C0
61C670
63863C
67061F
4C7E0E
D00C02
800800
ENDCHAR

STARTCHAR jisx0212_344C
ENCODING 13388
SWIDTH 960 0
DWIDTH 24 0
BBX 24 24 0 -2
BITMAP
200004
30000E
3FFFFF
300000
301008
307C3E
31F0F8
36C360
30C060
30C062
30D867
37FFFF
31C0E0
31C0F0
31E1F0
33D1F8
33DB68
36DB6C
66C66E
6CCC67
78D866
50F062
C0C060
80C060
ENDCHAR

STARTCHAR jisx0212_344D
ENCODING 13389
SWIDTH 960 0
DWIDTH 24 0
BBX 24 24 0 -2
BITMAP
200004
30000E
3FFFFF
302080
3038E0
3030C6
37FFFF
3030C0
3030C0
303FC0
310618
31FFFC
318618
318618
31FFF8
318618
30060C
33FFFE
600600
600618
61FFFC
400602
C00607
8FFFFF
ENDCHAR

STARTCHAR jisx0212_344E
ENCODING 13390
SWIDTH 960 0
DWIDTH 24 0
BBX 24 24 0 -2
BITMAP
200004
30000E
3FFFFF
308080
30E0E0
30C8C0
37FCC0
30C0C3
30CDFF
3FFF8C
30818C
30E38C
30CA9C
3FFE98
3184D8
319878
31FC70
319870
7398F8
6318DC
67198E
463B0F
CDF606
986802
ENDCHAR

STARTCHAR jisx0212_344F
ENCODING 13391
SWIDTH 960 0
DWIDTH 24 0
BBX 24 24 0 -2
BITMAP
200004
30000E
3FFFFF
308040
30E070
30C060
30CC66
37FFFF
30C060
31E0F0
31D8EC
33CDE6
32CB67
34C663
38C862
30C060
301800
31CC30
61861C
61864E
618047
4180C7
C1FFE2
80FFC0
ENDCHAR

STARTCHAR jisx0212_3450
ENCODING 13392
SWIDTH 960 0
DWIDTH 24 0
BBX 24 24 0 -2
BITMAP
200004
30000E
3FFFFF
3030C0
3030C6
37FFFF
3030C0
3030C0
310018
31FFFC
318618
31FFF8
318618
31FFF8
318618
340606
37FFFF
360686
660666
66FFF6
667C36
464006
C6003E
86000C
ENDCHAR

STARTCHAR jisx0212_3451
ENCODING 13393
SWIDTH 960 0
DWIDTH 24 0
BBX 24 24 0 -2
BITMAP
200006
3FFFFF
300000
33F838
331836
33F832
3319FF
37FC30
360C30
37FC78
360C6C
37FCCE
360D87
363F02
31080C
31FFFE
31860C
31FFFC
61860C
61FFFC
61860C
400600
C00600
800600
ENDCHAR

STARTCHAR jisx0212_3452
ENCODING 13394
SWIDTH 960 0
DWIDTH 24 0
BBX 24 24 0 -2
BITMAP
08000C
0FFFFE
0C1800
0CFFF0
0CC030
0CFFF0
0CC030
0CFFF0
188600
19E6F0
379E3C
2C040C
402402
7FF7FF
630630
6FE6FE
686686
6FE6FE
686686
6FE6FE
534D34
DB6DB6
B76B73
A21423
ENDCHAR

STARTCHAR jisx0212_3453
ENCODING 13395
SWIDTH 960 0
DWIDTH 24 0
BBX 24 24 0 -2
BITMAP
00C000
00F000
00C000
00C004
00C00E
FFFFFF
018000
018000
038000
030C00
030F00
070C00
061C00
0E1800
0C1800
1C18C0
183060
303030
302038
60601C
C043FC
8FFF0E
07E00E
040004
ENDCHAR

STARTCHAR jisx0212_3454
ENCODING 13396
SWIDTH 960 0
DWIDTH 24 0
BBX 24 24 0 -2
BITMAP
000000
060060
078078
060060
060060
0600E0
0E00C0
0C00C0
0C00C0
0C01C0
0C0180
180180
1901A0
198310
188318
10C308
30C20C
306606
206606
23E43F
FE7FE3
706F03
404802
000000
ENDCHAR

STARTCHAR jisx0212_3455
ENCODING 13397
SWIDTH 960 0
DWIDTH 24 0
BBX 24 24 0 -2
BITMAP
006000
007800
006000
00E004
00C00E
FFFFFF
018200
038100
030180
0630C0
0E3CE0
0C3070
18703C
30601F
60600E
C0C204
00C180
0180E0
018070
030038
020FFC
3FFC1C
1F801C
100008
ENDCHAR

STARTCHAR jisx0212_3456
ENCODING 13398
SWIDTH 960 0
DWIDTH 24 0
BBX 24 24 0 -2
BITMAP
006000
007800
00E000
00C000
00C300
018180
0180E0
030070
021FF8
7FFC1C
3F801C
240048
070070
060060
0E00E0
0C00C0
0C80C8
18C18C
186186
306306
23F23F
FF3FF3
783703
402402
ENDCHAR

STARTCHAR jisx0212_3457
ENCODING 13399
SWIDTH 960 0
DWIDTH 24 0
BBX 24 24 0 -2
BITMAP
001C00
001804
00180E
FFFFFF
001800
101810
181838
1FFFFC
18181C
181818
1FFFF8
181818
181818
1FFFF8
187018
18E018
00C080
01C060
018038
03001C
020FFE
FFFE07
7F8007
600002
ENDCHAR

STARTCHAR jisx0212_3458
ENCODING 13400
SWIDTH 960 0
DWIDTH 24 0
BBX 24 24 0 -2
BITMAP
007000
006300
00C1C0
0080F0
1FFFB8
0FE018
103820
183830
36746C
236646
FFC3FF
7181C3
4340F0
0E707C
1C601F
72688E
C66C62
046630
0C6318
18639C
38618E
73E18E
60C104
008000
ENDCHAR

STARTCHAR jisx0212_3459
ENCODING 13401
SWIDTH 960 0
DWIDTH 24 0
BBX 24 24 0 -2
BITMAP
003800
003000
003060
1FFFF0
003060
003060
003062
003067
FFFFFF
003000
003000
0030C0
1FFFE0
0200F0
0101C0
018380
00C700
006E00
003C00
007E00
01E7C0
0781F8
3C007F
E0001C
ENDCHAR

STARTCHAR jisx0212_345A
ENCODING 13402
SWIDTH 960 0
DWIDTH 24 0
BBX 24 24 0 -2
BITMAP
000000
000060
3FFFF0
0100E0
0181C0
00C380
006700
003E00
007FC0
01E3FE
0F007C
780008
00C00C
FFEFFE
20C20C
31C31C
118118
1B81B8
0F00F0
0600E0
0F81B8
19F31F
70EE0E
C05804
ENDCHAR

STARTCHAR jisx0212_345B
ENCODING 13403
SWIDTH 960 0
DWIDTH 24 0
BBX 24 24 0 -2
BITMAP
001C00
001804
00180E
FFFFFF
001800
101818
1FFFFC
18181C
181818
181818
1FFFF8
181818
001840
3FFFE0
0100F0
0181C0
00C380
006700
003E00
003E00
00F780
03C3F8
1E00FF
F0001C
ENDCHAR

STARTCHAR jisx0212_345C
ENCODING 13404
SWIDTH 960 0
DWIDTH 24 0
BBX 24 24 0 -2
BITMAP
000000
00C00C
7FEFFE
10C20C
19C31C
098118
0F81B8
0700F0
0F80F0
1DE1BC
38FB1F
60660E
80C40C
7FEFFE
10C20C
11C31C
198118
0B81B8
0F00F0
0F00F0
1BC1BC
31F31F
60EE0E
805804
ENDCHAR

STARTCHAR jisx0212_345D
ENCODING 13405
SWIDTH 960 0
DWIDTH 24 0
BBX 24 24 0 -2
BITMAP
404008
60E01C
7FF7FE
60700E
60600C
60600C
60600C
60600C
7FEFFC
60600C
600000
60800C
61DFFE
7FE40E
60041C
600618
608238
61C370
7FE1E0
6001E0
600778
600E3F
60380E
60E004
ENDCHAR

STARTCHAR jisx0212_345E
ENCODING 13406
SWIDTH 960 0
DWIDTH 24 0
BBX 24 24 0 -2
BITMAP
070808
060C1C
060FFE
066C0E
7FFC0C
060C0C
060C0C
060C7C
060C18
066C10
FFFC0C
0C0FFE
0D0D0E
188D0C
18CD1C
106D98
3078B8
27F8F0
FE3870
F030F8
8031DE
00630F
00CE06
019802
ENDCHAR

STARTCHAR jisx0212_345F
ENCODING 13407
SWIDTH 960 0
DWIDTH 24 0
BBX 24 24 0 -2
BITMAP
201000
303800
3FFC06
301BFF
301907
301906
3FF906
301906
30118E
30398C
37FC8C
30008C
3008DC
301CD8
3FFE78
30C070
34F030
67D878
66DCF8
6ECCDC
4CC98E
D8C30F
B7C606
218C02
ENDCHAR

STARTCHAR jisx0212_3460
ENCODING 13408
SWIDTH 960 0
DWIDTH 24 0
BBX 24 24 0 -2
BITMAP
000060
0FFFF0
0001C0
03FB80
001F00
00F1E0
072064
7FF7FE
00600C
3EC7D8
038070
1EE1DC
F02606
3FFFFF
600007
E4006C
C7FFF0
060060
07FFE0
060060
07FFE0
060066
FFFFFF
000000
ENDCHAR

STARTCHAR jisx0212_3461
ENCODING 13409
SWIDTH 960 0
DWIDTH 24 0
BBX 24 24 0 -2
BITMAP
080010
0C0038
0FFFFC
0C001C
0C0018
0C0018
0C0018
0C0018
0FFFF8
0C1018
0C1C18
001800
00180C
7FFFFE
00300E
00300C
00700C
00600C
00E00C
01C01C
038018
0F03F8
3C0070
E00040
ENDCHAR

STARTCHAR jisx0212_3462
ENCODING 13410
SWIDTH 960 0
DWIDTH 24 0
BBX 24 24 0 -2
BITMAP
080020
0C0070
0FFFF8
0C0038
0C0030
0C0030
0C0030
0C0030
0C0030
0FFFF0
0C0030
0C0008
00001C
7FFFFE
00600E
00600C
00E00C
00C00C
01C00C
03801C
070018
0E03F8
380070
E00040
ENDCHAR

STARTCHAR jisx0212_3463
ENCODING 13411
SWIDTH 960 0
DWIDTH 24 0
BBX 24 24 0 -2
BITMAP
400008
60001C
7FFFFE
600000
600000
600000
608080
60C1C0
60FFE0
60C0E0
60C0C0
60C0C0
60C0C0
60C0C0
60C0C0
60FFC0
60C0C0
60C0C0
600000
600004
60000E
7FFFFF
600000
600000
ENDCHAR

STARTCHAR jisx0212_3464
ENCODING 13412
SWIDTH 960 0
DWIDTH 24 0
BBX 24 24 0 -2
BITMAP
001C00
201804
30180E
3FFFFF
300000
300000
300000
300000
380000
1FFFFE
0FFFFE
000000
100010
180038
1FFFFC
18001C
180018
180018
180018
180018
180018
1FFFF8
180018
180018
ENDCHAR

STARTCHAR jisx0212_3465
ENCODING 13413
SWIDTH 960 0
DWIDTH 24 0
BBX 24 24 0 -2
BITMAP
000000
000004
00000E
437FFF
7F8300
638300
630300
630300
630300
630300
6303C0
630370
630338
63031C
63030E
7F030E
630304
630300
600300
600300
000300
000300
000300
000300
ENDCHAR

STARTCHAR jisx0212_3466
ENCODING 13414
SWIDTH 960 0
DWIDTH 24 0
BBX 24 24 0 -2
BITMAP
000000
000018
007FFC
43061C
7F8618
630618
630618
63061B
63FFFF
630618
630618
630618
630618
630618
637FF8
7F0618
630618
630E18
600C00
600C00
001800
003000
006000
018000
ENDCHAR

STARTCHAR jisx0212_3467
ENCODING 13415
SWIDTH 960 0
DWIDTH 24 0
BBX 24 24 0 -2
BITMAP
0030C0
003CF0
0030C0
4330C0
7FB0C0
6330C4
6330C7
6330CE
6336CC
633FD8
6330F0
6330E0
6330C0
6330C0
6330C0
7F30C0
6330C0
6330C2
6030C2
6033C6
003CC6
03F0FF
01C07E
010000
ENDCHAR

STARTCHAR jisx0212_3468
ENCODING 13416
SWIDTH 960 0
DWIDTH 24 0
BBX 24 24 0 -2
BITMAP
002008
00301C
433FFE
7FB18E
63318C
63318C
63318C
63318C
63318C
63318C
63318C
633FFC
63300C
63300C
633000
7F3000
633002
633002
603006
603004
00300E
003FFF
001FFE
000000
ENDCHAR

STARTCHAR jisx0212_3469
ENCODING 13417
SWIDTH 960 0
DWIDTH 24 0
BBX 24 24 0 -2
BITMAP
000180
0001E0
000184
43019F
7F81FC
630FE0
637980
630180
63018C
63318F
633D8C
63318C
63318C
63318C
63318C
63318C
7F3FFC
63318C
633182
603182
000186
000186
0001FF
0000FE
ENDCHAR

STARTCHAR jisx0212_346A
ENCODING 13418
SWIDTH 960 0
DWIDTH 24 0
BBX 24 24 0 -2
BITMAP
000880
000EE0
000CC0
461CC0
7F18C0
6718C4
6638C7
6630CE
6630CC
6670D8
6670F0
66F0E0
66B0C0
6731C0
6632C0
6634C0
7E30C0
6630C2
6630C2
6030C2
0030C6
0030C6
0030FF
00307E
ENDCHAR

STARTCHAR jisx0212_346B
ENCODING 13419
SWIDTH 960 0
DWIDTH 24 0
BBX 24 24 0 -2
BITMAP
100070
181FFC
1FFF00
180000
180008
18001C
1FFFFE
18000E
18000C
18000C
18000C
1FFFFC
18000C
180000
1A0006
1BFFFF
3B0007
330006
330006
330006
630006
63FFFE
430006
830006
ENDCHAR

STARTCHAR jisx0212_346C
ENCODING 13420
SWIDTH 960 0
DWIDTH 24 0
BBX 24 24 0 -2
BITMAP
000180
0001E0
000180
430182
7F8187
637FFF
630180
630180
630180
630180
630198
637FFC
63081E
630838
630C30
7F0470
6306E0
6303C0
600380
6007E0
001E78
00383F
00E00E
038002
ENDCHAR

STARTCHAR jisx0212_346D
ENCODING 13421
SWIDTH 960 0
DWIDTH 24 0
BBX 24 24 0 -2
BITMAP
100010
180038
1FFFFC
18001C
180018
180018
180018
180018
1FFFF8
180000
000018
3FFFFC
001800
001804
00180E
FFFFFF
003400
003600
007300
00E1C0
01C0F0
07807F
1E001E
F00004
ENDCHAR

STARTCHAR jisx0212_346E
ENCODING 13422
SWIDTH 960 0
DWIDTH 24 0
BBX 24 24 0 -2
BITMAP
000180
0001E0
000180
431180
7F9DB0
639998
63198C
63398E
633186
633187
633183
636183
636188
63418E
638F9C
7F0338
630270
6300E0
6003C0
600780
001E00
007800
01E000
070000
ENDCHAR

STARTCHAR jisx0212_346F
ENCODING 13423
SWIDTH 960 0
DWIDTH 24 0
BBX 24 24 0 -2
BITMAP
004004
00600E
467FFF
7F6000
666000
666410
666638
6667FC
66661C
666618
666618
666618
666618
666618
666618
7EE618
66C6F8
66C632
61C622
618606
038606
0307FF
0603FE
040000
ENDCHAR

STARTCHAR jisx0212_3470
ENCODING 13424
SWIDTH 960 0
DWIDTH 24 0
BBX 24 24 0 -2
BITMAP
000180
7FFFC0
018180
018380
03830C
0307FE
07060E
06000C
0C101C
181DF8
701870
C01844
00180E
FFFFFF
001800
101810
181838
1FFFFC
18001C
180018
180018
180018
1FFFF8
180018
ENDCHAR

STARTCHAR jisx0212_3471
ENCODING 13425
SWIDTH 960 0
DWIDTH 24 0
BBX 24 24 0 -2
BITMAP
001800
001E00
001818
01983E
7FDC70
019AC0
039B00
031980
0618E0
0C1878
18183F
70181E
C1F804
103010
182038
1FFFFC
18001C
180018
180018
180018
180018
180018
1FFFF8
180018
ENDCHAR

STARTCHAR jisx0212_3472
ENCODING 13426
SWIDTH 960 0
DWIDTH 24 0
BBX 24 24 0 -2
BITMAP
000008
00001C
003FFE
430000
7F8000
638000
630000
630000
630004
63000E
637FFF
630700
630600
630600
630E00
7F0C30
630C18
630C0C
60180E
601806
0010FF
01FFC7
00FC07
008002
ENDCHAR

STARTCHAR jisx0212_3473
ENCODING 13427
SWIDTH 960 0
DWIDTH 24 0
BBX 24 24 0 -2
BITMAP
000130
0003FC
0007B0
430E30
7FB830
636E30
630C30
630C30
630C30
630C32
630C37
63FFFF
630C30
630C30
630C30
7F0C30
631C30
631830
601830
603030
003030
006030
00C030
018030
ENDCHAR

STARTCHAR jisx0212_3474
ENCODING 13428
SWIDTH 960 0
DWIDTH 24 0
BBX 24 24 0 -2
BITMAP
000004
00000E
00FFFF
430007
7F8046
6300E6
637FF6
630006
630006
6320C6
633FE6
6330E6
6330C6
6330C6
6330C6
7F30C6
633FC6
6330C6
603006
600006
000006
0000FE
00001C
000008
ENDCHAR

STARTCHAR jisx0212_3475
ENCODING 13429
SWIDTH 960 0
DWIDTH 24 0
BBX 24 24 0 -2
BITMAP
004008
00601C
007FFE
46600E
7F600C
67600C
66600C
667FFC
66600C
666400
666700
666608
66661E
666638
6666E0
7E6780
66E602
66C602
60C606
60C604
01860E
0187FF
0303FE
020000
ENDCHAR

STARTCHAR jisx0212_3476
ENCODING 13430
SWIDTH 960 0
DWIDTH 24 0
BBX 24 24 0 -2
BITMAP
000780
000700
000680
430EC0
7F8C60
639C70
631838
63301E
63206F
635FF6
638002
630000
63000C
637FFE
63060E
7F060C
63060C
63060C
60060C
60067C
000618
000610
000600
000600
ENDCHAR

STARTCHAR jisx0212_3477
ENCODING 13431
SWIDTH 960 0
DWIDTH 24 0
BBX 24 24 0 -2
BITMAP
001060
001C78
003860
463060
7F3460
666760
676666
66CFFF
666C67
666C66
665866
661866
663066
663866
6664E6
7E66C6
66C2C6
609FC6
67F386
03818E
02030C
00067C
000C18
001810
ENDCHAR

STARTCHAR jisx0212_3478
ENCODING 13432
SWIDTH 960 0
DWIDTH 24 0
BBX 24 24 0 -2
BITMAP
000018
00207E
0033F0
433E80
7FB0E0
6330C0
6330C0
6330C2
6330C7
633FFF
6330C0
6330E0
633060
633060
633060
7F3070
633031
6033B1
603E39
03F81B
01C09F
0101CE
007FE7
000003
ENDCHAR

STARTCHAR jisx0212_3479
ENCODING 13433
SWIDTH 960 0
DWIDTH 24 0
BBX 24 24 0 -2
BITMAP
000008
00001C
433FFE
7F8000
638000
630000
630000
630004
63000E
637FFF
630180
630180
632180
633990
7F3198
63718C
63618E
60E186
60C187
018183
030183
021F82
000300
000200
ENDCHAR

STARTCHAR jisx0212_347A
ENCODING 13434
SWIDTH 960 0
DWIDTH 24 0
BBX 24 24 0 -2
BITMAP
000180
0001E0
430180
7F8180
638182
630187
6301FF
630180
630180
630180
630180
632184
63318E
633FFF
633007
633006
7F3006
633006
633006
603006
003006
003FFE
003006
003006
ENDCHAR

STARTCHAR jisx0212_347B
ENCODING 13435
SWIDTH 960 0
DWIDTH 24 0
BBX 24 24 0 -2
BITMAP
000420
004738
467630
7F6630
666630
666632
666637
67FFFF
666630
666630
666630
666630
666630
666630
7E6630
6667F0
666630
606630
606600
006004
00600E
007FFF
006000
006000
ENDCHAR

STARTCHAR jisx0212_347C
ENCODING 13436
SWIDTH 960 0
DWIDTH 24 0
BBX 24 24 0 -2
BITMAP
000000
002008
43301C
7FBFFE
63B00E
63300C
63300C
63300C
63300C
63300C
63300C
63300C
63300C
63300C
633FFC
7F300C
630840
630E30
601C18
00380C
00700E
00E007
038007
060002
ENDCHAR

STARTCHAR jisx0212_347D
ENCODING 13437
SWIDTH 960 0
DWIDTH 24 0
BBX 24 24 0 -2
BITMAP
001800
001E00
001804
43180E
7FBFFF
633007
633006
636006
6370C6
63DFE6
6398E6
6318C6
6318C6
6318C6
6318C6
7F18C6
631FC6
6318CE
60180C
60000C
00001C
0001F8
000070
000040
ENDCHAR

STARTCHAR jisx0212_347E
ENCODING 13438
SWIDTH 960 0
DWIDTH 24 0
BBX 24 24 0 -2
BITMAP
000300
0003C0
000300
430300
7F8308
63031C
637FFE
630300
630300
630300
630304
63030E
63FFFF
630700
630600
630660
7F0C30
630C18
60081C
60180E
0011FE
01FF87
00F807
008002
ENDCHAR

STARTCHAR jisx0212_3521
ENCODING 13601
SWIDTH 960 0
DWIDTH 24 0
BBX 24 24 0 -2
BITMAP
001818
001E1E
431818
7F9818
631818
63181B
63FFFF
631818
631818
631818
631818
631818
631818
631FF8
631818
7F1818
631818
631818
601818
001818
001818
001FF8
001818
001818
ENDCHAR

STARTCHAR jisx0212_3522
ENCODING 13602
SWIDTH 960 0
DWIDTH 24 0
BBX 24 24 0 -2
BITMAP
004080
0070E0
0068C0
446EC0
7E6CC0
64ECCC
64CCDE
64CCEC
64CDCC
65CECC
65DCCC
65CCCC
66CCCC
66CCCC
64CCFC
7CCCD8
64CCC0
64CCC2
60CCC2
60CC06
00CC06
00CFFF
00C7FE
00C000
ENDCHAR

STARTCHAR jisx0212_3523
ENCODING 13603
SWIDTH 960 0
DWIDTH 24 0
BBX 24 24 0 -2
BITMAP
001800
001E00
001808
00181C
7FFFFE
020080
0300E0
0181C0
01C180
00C304
00820E
FFFFFF
000000
080020
0C0070
0FFFF8
0C0038
0C0030
0C0030
0C0030
0C0030
0FFFF0
0C0030
0C0030
ENDCHAR

STARTCHAR jisx0212_3524
ENCODING 13604
SWIDTH 960 0
DWIDTH 24 0
BBX 24 24 0 -2
BITMAP
000880
000EE0
000CC0
460CCC
7F7FFE
660CCE
660CCC
660CCC
664CCC
667FFC
6664CC
6664C0
66E4C0
66C4C6
66FFFF
7ECCC7
660CC6
661CC6
6018C6
6038FE
0070CC
00E0C8
01C0C0
0700C0
ENDCHAR

STARTCHAR jisx0212_3525
ENCODING 13605
SWIDTH 960 0
DWIDTH 24 0
BBX 24 24 0 -2
BITMAP
000300
0003C0
000300
460300
7F4310
666338
667FFC
66631C
666318
666318
666318
666318
666318
66631B
67FFFF
7E0700
660680
660EC0
600C60
601C70
00383C
00701F
01C00E
070004
ENDCHAR

STARTCHAR jisx0212_3526
ENCODING 13606
SWIDTH 960 0
DWIDTH 24 0
BBX 24 24 0 -2
BITMAP
000300
0003C0
000700
430600
7F8640
638C30
630C18
63180C
6310FE
63FFC7
637C07
634002
632008
63301C
633FFE
63300E
7F300C
63300C
60300C
60300C
00300C
003FFC
00300C
00300C
ENDCHAR

STARTCHAR jisx0212_3527
ENCODING 13607
SWIDTH 960 0
DWIDTH 24 0
BBX 24 24 0 -2
BITMAP
001000
001C02
461807
7F1BFF
671818
661B18
66FF98
661818
661818
661818
661818
661B98
663E18
67F818
66D818
7E9818
661818
661818
601818
601818
001818
01F9F8
003030
002020
ENDCHAR

STARTCHAR jisx0212_3528
ENCODING 13608
SWIDTH 960 0
DWIDTH 24 0
BBX 24 24 0 -2
BITMAP
000180
0001E0
000180
430180
7F8184
63818E
637FFF
630180
630180
630180
630180
632188
63319C
633FFE
63300E
7F300C
63300C
63300C
60300C
60300C
00300C
003FFC
00300C
00300C
ENDCHAR

STARTCHAR jisx0212_3529
ENCODING 13609
SWIDTH 960 0
DWIDTH 24 0
BBX 24 24 0 -2
BITMAP
006000
007800
006000
446046
7E607F
646667
65FF66
646766
646666
646666
646666
646666
646666
64E666
64C666
64C666
7CC666
65C666
658666
618E66
030C7E
037C66
061866
041060
ENDCHAR

STARTCHAR jisx0212_352A
ENCODING 13610
SWIDTH 960 0
DWIDTH 24 0
BBX 24 24 0 -2
BITMAP
000180
0001E0
000180
462180
7F2186
677FFF
666007
66E00C
66DC08
661800
661818
66183E
6618F8
661BC0
661E00
661800
7E1802
661802
661806
601804
00180E
001FFF
000FFE
000000
ENDCHAR

STARTCHAR jisx0212_352B
ENCODING 13611
SWIDTH 960 0
DWIDTH 24 0
BBX 24 24 0 -2
BITMAP
000004
00000E
007FFF
4301C0
7F8180
638300
63120C
631FFE
63180E
63180C
63180C
63180C
63180C
63180C
631FFC
63180C
7F180C
63180C
60180C
60180C
00180C
001FFC
00180C
00180C
ENDCHAR

STARTCHAR jisx0212_352C
ENCODING 13612
SWIDTH 960 0
DWIDTH 24 0
BBX 24 24 0 -2
BITMAP
000002
000007
00FFFF
431818
7F9818
639818
631818
631FF8
631818
631818
631818
631818
631FF8
631818
631818
7F1818
63181F
6319F8
60FF98
607818
004018
000018
000018
000018
ENDCHAR

STARTCHAR jisx0212_352D
ENCODING 13613
SWIDTH 960 0
DWIDTH 24 0
BBX 24 24 0 -2
BITMAP
000300
0003C0
000304
46030E
7FFFFF
660300
66030C
66FFFE
66030C
66430C
667FFC
66630C
666300
666306
66FFFF
7EC306
66C786
6606BE
600ECC
601C60
003838
00701F
01C00E
070002
ENDCHAR

STARTCHAR jisx0212_352E
ENCODING 13614
SWIDTH 960 0
DWIDTH 24 0
BBX 24 24 0 -2
BITMAP
000104
000387
01FFC6
463006
7F3046
663076
667066
666666
667F66
666666
66C666
66C666
66EE66
67AC66
673C66
7E3C66
661866
603866
603006
006006
00C006
01807E
03001C
040008
ENDCHAR

STARTCHAR jisx0212_352F
ENCODING 13615
SWIDTH 960 0
DWIDTH 24 0
BBX 24 24 0 -2
BITMAP
002010
00301C
001838
431C30
7F8C60
630846
637FFF
630180
630180
630180
63018C
633FFE
630180
630180
630182
630187
7F7FFF
630180
630180
600180
000180
000180
000180
000180
ENDCHAR

STARTCHAR jisx0212_3530
ENCODING 13616
SWIDTH 960 0
DWIDTH 24 0
BBX 24 24 0 -2
BITMAP
000300
0003C0
004308
46630E
7F331C
673318
663B38
661B30
661B60
661344
66030E
66FFFF
660780
660FC0
660F40
7E1B60
663B30
663338
60631E
60C30F
018306
030302
040300
000300
ENDCHAR

STARTCHAR jisx0212_3531
ENCODING 13617
SWIDTH 960 0
DWIDTH 24 0
BBX 24 24 0 -2
BITMAP
000300
0003C0
000300
460304
7F030E
66FFFF
660300
660300
660308
66031C
667FFE
660000
660000
664008
66601C
7E7FFE
66600E
66600C
60600C
60600C
00600C
007FFC
00600C
00600C
ENDCHAR

STARTCHAR jisx0212_3532
ENCODING 13618
SWIDTH 960 0
DWIDTH 24 0
BBX 24 24 0 -2
BITMAP
000300
0023C0
003B00
863300
FF7308
C6631C
C67FFE
C6C300
C68300
C70304
C6030E
C6FFFF
C60780
C60FC0
C61F40
C61B60
FE3B30
C67338
C0E31E
C1C30F
038306
060302
080300
000300
ENDCHAR

STARTCHAR jisx0212_3533
ENCODING 13619
SWIDTH 960 0
DWIDTH 24 0
BBX 24 24 0 -2
BITMAP
000180
0001E0
000180
432304
7FB20E
633FFF
633007
633006
633006
633006
633FFE
633006
633006
633006
633006
633FFE
7F3006
633006
633006
603006
003006
003FFE
003006
003006
ENDCHAR

STARTCHAR jisx0212_3534
ENCODING 13620
SWIDTH 960 0
DWIDTH 24 0
BBX 24 24 0 -2
BITMAP
000880
000EE0
000CC0
460CC0
7E8CC4
66CCC7
664CCE
666CCC
666CD8
666CF0
666CE0
664CC0
660CE0
661CD8
663CCC
7EECCE
67CCC6
619CC4
6118C0
6038C2
0070C2
00E0C6
01C0FF
03007E
ENDCHAR

ENDFONT
